<svg width="95" height="95" viewBox="0 0 95 95" fill="none" xmlns="http://www.w3.org/2000/svg">
<rect width="95" height="95" fill="#E5E5E5"/>
<rect width="375" height="812" transform="translate(-74 -491)" fill="white"/>
<rect x="-44" y="-73" width="179" height="262" rx="5" fill="white"/>
<rect x="-43.5" y="-72.5" width="178" height="261" rx="4.5" stroke="#ABABAB" stroke-opacity="0.6"/>
<path d="M35.9685 7.16602C18.9485 7.16602 5.16602 20.9794 5.16602 37.9994C5.16602 55.0194 18.9485 68.8327 35.9685 68.8327C53.0194 68.8327 66.8327 55.0194 66.8327 37.9994C66.8327 20.9794 53.0194 7.16602 35.9685 7.16602ZM35.9994 62.666C22.371 62.666 11.3327 51.6277 11.3327 37.9994C11.3327 24.371 22.371 13.3327 35.9994 13.3327C49.6277 13.3327 60.666 24.371 60.666 37.9994C60.666 51.6277 49.6277 62.666 35.9994 62.666Z" fill="#00C5B4"/>
<path d="M37.541 22.584H32.916V41.084L49.1035 50.7965L51.416 47.004L37.541 38.7715V22.584Z" fill="#00C5B4"/>
<path d="M74 12H68V18H66V12H60V10H66V4H68V10H74V12Z" fill="#00C5B4"/>
<rect width="375" height="812" transform="translate(-74 -491)" fill="white"/>
<rect x="-44" y="-73" width="179" height="262" rx="5" fill="white"/>
<rect x="-43.5" y="-72.5" width="178" height="261" rx="4.5" stroke="#ABABAB" stroke-opacity="0.6"/>
<path d="M35.9685 7.16602C18.9485 7.16602 5.16602 20.9794 5.16602 37.9994C5.16602 55.0194 18.9485 68.8327 35.9685 68.8327C53.0194 68.8327 66.8327 55.0194 66.8327 37.9994C66.8327 20.9794 53.0194 7.16602 35.9685 7.16602ZM35.9994 62.666C22.371 62.666 11.3327 51.6277 11.3327 37.9994C11.3327 24.371 22.371 13.3327 35.9994 13.3327C49.6277 13.3327 60.666 24.371 60.666 37.9994C60.666 51.6277 49.6277 62.666 35.9994 62.666Z" fill="#00C5B4"/>
<path d="M37.541 22.584H32.916V41.084L49.1035 50.7965L51.416 47.004L37.541 38.7715V22.584Z" fill="#00C5B4"/>
<path d="M74 12H68V18H66V12H60V10H66V4H68V10H74V12Z" fill="#00C5B4"/>
</svg>
