<svg width="32" height="29" viewBox="0 0 32 29" fill="none" xmlns="http://www.w3.org/2000/svg">
<path fill-rule="evenodd" clip-rule="evenodd" d="M15.536 16.9096C15.536 16.9096 4.93523 10.6856 4.93523 6.62653C4.93523 0.222175 12.8858 -1.49167 15.536 2.65763C18.1862 -1.49167 26.1368 0.222175 26.1368 6.62653C26.1368 10.6856 15.536 16.9096 15.536 16.9096ZM0.0274674 11.7681L1.59795 19.9765C1.69611 20.4275 1.89242 21.0589 2.48135 21.5099C3.65921 22.3217 8.17435 25.2082 8.17435 26.8318V28.9065H14.5544L14.4563 21.1491C14.4563 20.6079 14.3581 20.2471 12.984 19.7059L6.70202 17.09C5.13154 16.4586 4.05183 18.6234 5.62232 19.2548L10.9227 21.4197C11.2172 21.5099 11.119 21.9609 10.7264 21.8707L4.83707 19.4352C4.14999 19.1646 4.24814 18.9842 4.05183 18.443L2.38319 11.5877C1.89242 9.96402 -0.266998 10.3248 0.0274674 11.7681ZM31.0445 11.7681L29.3759 19.9765C29.3759 20.4275 29.1796 21.0589 28.4925 21.5099C27.3146 22.3217 22.8976 25.2082 22.8976 26.8318V28.9065H16.5175V21.1491C16.5175 20.6079 16.6157 20.2471 17.9899 19.7059L24.37 17.09C25.9405 16.4586 26.922 18.6234 25.3515 19.2548L20.0511 21.4197C19.7567 21.5099 19.8548 21.9609 20.2474 21.8707L26.1368 19.4352C26.8239 19.1646 26.8239 18.9842 26.922 18.443L28.6888 11.5877C29.0814 9.96402 31.2408 10.3248 31.0445 11.7681ZM14.0637 4.28127H16.9102V7.34815H20.2474V9.96402H16.9102V12.9407H14.0637V9.96402H10.8245V7.34815H14.0637V4.28127Z" fill="url(#paint0_linear)"/>
<defs>
<linearGradient id="paint0_linear" x1="23.8857" y1="0.400392" x2="1.99138" y2="30.0318" gradientUnits="userSpaceOnUse">
<stop stop-color="#22AB30"/>
<stop offset="1" stop-color="#18ACCC"/>
</linearGradient>
</defs>
</svg>
