<svg width="255" height="140" viewBox="0 0 255 140" fill="none" xmlns="http://www.w3.org/2000/svg">
<g clip-path="url(#clip0)">
<path d="M13.9268 127.497C8.4929 132.154 7.36505 139.792 7.36505 139.792C7.36505 139.792 15.0473 139.88 20.4812 135.223C25.9151 130.566 27.0429 122.928 27.0429 122.928C27.0429 122.928 19.3607 122.84 13.9268 127.497Z" fill="#F2F2F2"/>
<path d="M16.4377 129.352C14.1231 136.142 7.46847 140.001 7.46847 140.001C7.46847 140.001 4.56667 132.851 6.8813 126.061C9.19594 119.271 15.8505 115.412 15.8505 115.412C15.8505 115.412 18.7523 122.562 16.4377 129.352Z" fill="#F2F2F2"/>
<path d="M73.1567 28.8929C71.9272 27.2917 70.1896 25.8101 70.0795 23.8342C69.9787 22.022 71.3231 20.2227 70.7561 18.4889C70.3201 17.1558 68.8818 16.3514 67.4763 15.9255C64.7855 15.1217 61.906 15.2331 59.2846 16.2424L59.4269 16.1416C57.827 15.5688 55.9568 16.1601 54.698 17.2554C53.4392 18.3506 52.6911 19.8688 52.1106 21.3901C51.53 22.9115 51.0803 24.4885 50.2737 25.9148C49.467 27.341 48.232 28.6381 46.6026 29.1311C47.1481 30.2247 48.8533 30.5999 49.8534 29.8463C50.1089 29.6377 50.3386 29.3991 50.5375 29.1355C51.2045 28.3203 51.8715 27.5051 52.5386 26.6899C53.2249 27.9168 52.1996 29.6101 53.0433 30.746C53.4783 31.3317 54.2728 31.5542 55.0107 31.7137C60.7781 32.9506 66.7609 32.7275 72.4212 31.0647C72.8762 30.9299 73.3781 30.7443 73.5668 30.3305C73.7847 29.8527 73.48 29.314 73.1567 28.8929Z" fill="#333333"/>
<path d="M89.5097 35.141C89.4737 35.3002 89.4502 35.4619 89.4395 35.6247L76.8338 42.934L73.7698 41.1611L70.5034 45.4591L75.6241 49.1274C76.0378 49.4238 76.536 49.5773 77.0438 49.5648C77.5517 49.5524 78.0418 49.3747 78.4407 49.0585L91.4394 38.7515C92.026 38.9697 92.6648 39.0033 93.2709 38.8477C93.877 38.6922 94.4216 38.3548 94.8322 37.8806C95.2429 37.4063 95.5002 36.8177 95.5699 36.1929C95.6395 35.5681 95.5183 34.9367 95.2223 34.3829C94.9263 33.829 94.4695 33.3789 93.9128 33.0923C93.356 32.8057 92.7256 32.6963 92.1055 32.7786C91.4853 32.8609 90.9048 33.131 90.4411 33.553C89.9774 33.975 89.6526 34.5289 89.5097 35.141Z" fill="#FFB7B7"/>
<path d="M76.4124 43.2814L72.3382 48.5886C72.2223 48.7396 72.0754 48.8637 71.9074 48.9525C71.7395 49.0413 71.5544 49.0926 71.365 49.1031C71.1755 49.1135 70.986 49.0828 70.8094 49.013C70.6328 48.9432 70.4733 48.8359 70.3416 48.6985L65.7294 43.8847C64.963 43.2846 64.4649 42.4034 64.3443 41.4344C64.2238 40.4655 64.4907 39.4881 65.0864 38.7168C65.6821 37.9455 66.558 37.4432 67.5218 37.3203C68.4856 37.1974 69.4585 37.4639 70.227 38.0613L76.0117 41.3124C76.1773 41.4056 76.321 41.5335 76.433 41.6874C76.545 41.8414 76.6226 42.0179 76.6606 42.2047C76.6987 42.3916 76.6962 42.5845 76.6533 42.7703C76.6105 42.9561 76.5283 43.1304 76.4124 43.2814H76.4124Z" fill="#00C5B4"/>
<path d="M70.8053 135.752L74.403 135.752L76.1144 121.805L70.8047 121.805L70.8053 135.752Z" fill="#FFB7B7"/>
<path d="M69.8876 134.571L76.9726 134.57H76.9729C78.1703 134.57 79.3187 135.049 80.1654 135.9C81.0122 136.751 81.4879 137.905 81.488 139.108V139.256L69.8878 139.256L69.8876 134.571Z" fill="#333333"/>
<path d="M46.1557 135.752L49.7534 135.752L51.4648 121.805L46.1552 121.805L46.1557 135.752Z" fill="#FFB7B7"/>
<path d="M45.238 134.571L52.323 134.57H52.3233C53.5207 134.57 54.6691 135.049 55.5158 135.9C56.3626 136.751 56.8383 137.905 56.8384 139.108V139.256L45.2382 139.256L45.238 134.571Z" fill="#333333"/>
<path d="M68.6448 26.9214C69.0194 23.4907 66.5561 20.4043 63.1428 20.0277C59.7295 19.6511 56.6587 22.127 56.284 25.5577C55.9093 28.9884 58.3726 32.0748 61.7859 32.4514C65.1993 32.828 68.2701 30.3522 68.6448 26.9214Z" fill="#FFB7B7"/>
<path d="M66.1023 35.6074L69.7652 37.4313C69.7652 37.4313 73.8578 44.5798 71.5102 51.3634C70.3704 54.657 73.58 65.1558 73.58 65.1558C73.58 65.1558 78.553 112.711 78.5687 127.388C72.3906 128.343 66.5216 129.523 66.2282 126.574C65.9347 123.624 62.7225 88.7511 62.7225 88.7511C62.7225 88.7511 58.3051 127.458 54.7837 128.048C51.2623 128.638 44.2196 127.753 44.2196 127.753C44.2196 127.753 49.8108 71.0546 53.6256 67.5153L54.2125 64.5659L54.1968 38.091L58.592 35.9829L66.1023 35.6074Z" fill="#333333"/>
<path d="M52.9991 75.7986C53.4044 75.5782 53.7567 75.2711 54.0312 74.899C54.3057 74.5269 54.4956 74.0989 54.5877 73.645C54.6798 73.1911 54.6717 72.7225 54.5641 72.2721C54.4565 71.8217 54.2519 71.4005 53.9648 71.0381L58.2247 42.499L52.6593 42.2305L49.3386 70.6515C48.7649 71.1766 48.4028 71.8949 48.3209 72.6705C48.239 73.446 48.443 74.2247 48.8942 74.8592C49.3454 75.4936 50.0125 75.9397 50.769 76.1129C51.5256 76.286 52.3191 76.1742 52.9991 75.7986Z" fill="#FFB7B7"/>
<path d="M58.1038 49.6496L51.4478 49.2272C51.2584 49.2152 51.0738 49.1623 50.9066 49.0721C50.7394 48.9819 50.5935 48.8566 50.4788 48.7046C50.3641 48.5526 50.2834 48.3776 50.2421 48.1915C50.2008 48.0053 50.1999 47.8124 50.2395 47.6259L51.6264 41.0899C51.6929 40.1162 52.1408 39.2088 52.8721 38.5666C53.6033 37.9244 54.558 37.5999 55.5269 37.6643C56.4958 37.7286 57.3998 38.1766 58.0406 38.9099C58.6813 39.6431 59.0066 40.6019 58.9451 41.5759L59.5029 48.2137C59.5188 48.4037 59.4938 48.595 59.4295 48.7745C59.3653 48.9539 59.2633 49.1173 59.1305 49.2536C58.9977 49.3899 58.8373 49.4958 58.6601 49.5641C58.483 49.6324 58.2932 49.6616 58.1039 49.6496L58.1038 49.6496Z" fill="#00C5B4"/>
<path d="M242.061 22.5879H94.8693C93.7948 22.5879 92.7644 23.0169 92.0046 23.7805C91.2448 24.5442 90.818 25.5799 90.818 26.6599V109.09C90.818 110.17 91.2448 111.205 92.0046 111.969C92.7644 112.733 93.7948 113.162 94.8693 113.162H242.061C243.135 113.162 244.166 112.733 244.925 111.969C245.685 111.205 246.112 110.17 246.112 109.09V26.6599C246.112 25.5799 245.685 24.5442 244.925 23.7805C244.166 23.0169 243.135 22.5879 242.061 22.5879Z" fill="#333333"/>
<path d="M240.68 29.7852H96.2496V111.674H240.68V29.7852Z" fill="white"/>
<path d="M168.342 27.552C169.16 27.552 169.823 26.8854 169.823 26.0631C169.823 25.2408 169.16 24.5742 168.342 24.5742C167.523 24.5742 166.86 25.2408 166.86 26.0631C166.86 26.8854 167.523 27.552 168.342 27.552Z" fill="white"/>
<path d="M199.375 111.674H96.2496V29.7852L199.375 111.674Z" fill="#F2F2F2"/>
<path d="M250.167 110.184H236.072V109.163C236.072 109.11 236.05 109.058 236.013 109.02C235.975 108.982 235.924 108.961 235.87 108.961H231.038C231.011 108.961 230.985 108.966 230.961 108.976C230.936 108.986 230.914 109.001 230.895 109.02C230.876 109.039 230.862 109.061 230.852 109.086C230.841 109.11 230.836 109.137 230.836 109.163V110.184H227.816V109.163C227.816 109.137 227.811 109.11 227.8 109.086C227.79 109.061 227.775 109.039 227.757 109.02C227.738 109.001 227.716 108.986 227.691 108.976C227.667 108.966 227.641 108.961 227.614 108.961H222.782C222.755 108.961 222.729 108.966 222.705 108.976C222.68 108.986 222.658 109.001 222.639 109.02C222.621 109.039 222.606 109.061 222.596 109.086C222.586 109.11 222.58 109.137 222.58 109.163V110.184H219.56V109.163C219.56 109.137 219.555 109.11 219.545 109.086C219.534 109.061 219.52 109.039 219.501 109.02C219.482 109.001 219.46 108.986 219.436 108.976C219.411 108.966 219.385 108.961 219.359 108.961H214.526C214.499 108.961 214.473 108.966 214.449 108.976C214.424 108.986 214.402 109.001 214.383 109.02C214.365 109.039 214.35 109.061 214.34 109.086C214.33 109.11 214.324 109.137 214.324 109.163V110.184H211.304V109.163C211.304 109.137 211.299 109.11 211.289 109.086C211.278 109.061 211.264 109.039 211.245 109.02C211.226 109.001 211.204 108.986 211.18 108.976C211.155 108.966 211.129 108.961 211.103 108.961H206.27C206.243 108.961 206.217 108.966 206.193 108.976C206.168 108.986 206.146 109.001 206.127 109.02C206.109 109.039 206.094 109.061 206.084 109.086C206.074 109.11 206.068 109.137 206.068 109.163V110.184H203.048V109.163C203.048 109.137 203.043 109.11 203.033 109.086C203.023 109.061 203.008 109.039 202.989 109.02C202.97 109.001 202.948 108.986 202.924 108.976C202.899 108.966 202.873 108.961 202.847 108.961H198.014C197.987 108.961 197.961 108.966 197.937 108.976C197.912 108.986 197.89 109.001 197.871 109.02C197.853 109.039 197.838 109.061 197.828 109.086C197.818 109.11 197.812 109.137 197.812 109.163V110.184H194.792V109.163C194.792 109.137 194.787 109.11 194.777 109.086C194.767 109.061 194.752 109.039 194.733 109.02C194.714 109.001 194.692 108.986 194.668 108.976C194.643 108.966 194.617 108.961 194.591 108.961H189.758C189.731 108.961 189.705 108.966 189.681 108.976C189.656 108.986 189.634 109.001 189.616 109.02C189.597 109.039 189.582 109.061 189.572 109.086C189.562 109.11 189.557 109.137 189.557 109.163V110.184H186.536V109.163C186.536 109.137 186.531 109.11 186.521 109.086C186.511 109.061 186.496 109.039 186.477 109.02C186.458 109.001 186.436 108.986 186.412 108.976C186.387 108.966 186.361 108.961 186.335 108.961H148.478C148.452 108.961 148.426 108.966 148.401 108.976C148.377 108.986 148.355 109.001 148.336 109.02C148.317 109.039 148.302 109.061 148.292 109.086C148.282 109.11 148.277 109.137 148.277 109.163V110.184H145.256V109.163C145.256 109.137 145.251 109.11 145.241 109.086C145.231 109.061 145.216 109.039 145.197 109.02C145.179 109.001 145.157 108.986 145.132 108.976C145.108 108.966 145.081 108.961 145.055 108.961H140.222C140.196 108.961 140.17 108.966 140.145 108.976C140.121 108.986 140.099 109.001 140.08 109.02C140.061 109.039 140.046 109.061 140.036 109.086C140.026 109.11 140.021 109.137 140.021 109.163V110.184H137V109.163C137 109.137 136.995 109.11 136.985 109.086C136.975 109.061 136.96 109.039 136.941 109.02C136.923 109.001 136.901 108.987 136.876 108.976C136.852 108.966 136.826 108.961 136.799 108.961H131.966C131.94 108.961 131.914 108.966 131.889 108.976C131.865 108.986 131.843 109.001 131.824 109.02C131.805 109.039 131.79 109.061 131.78 109.086C131.77 109.11 131.765 109.137 131.765 109.163V110.184H128.744V109.163C128.744 109.137 128.739 109.11 128.729 109.086C128.719 109.061 128.704 109.039 128.686 109.02C128.667 109.001 128.645 108.986 128.62 108.976C128.596 108.966 128.57 108.961 128.543 108.961H123.71C123.684 108.961 123.658 108.966 123.633 108.976C123.609 108.986 123.587 109.001 123.568 109.02C123.549 109.039 123.534 109.061 123.524 109.086C123.514 109.11 123.509 109.137 123.509 109.163V110.184H120.489V109.163C120.489 109.137 120.483 109.11 120.473 109.086C120.463 109.061 120.448 109.039 120.43 109.02C120.411 109.001 120.389 108.986 120.364 108.976C120.34 108.966 120.314 108.961 120.287 108.961H115.454C115.428 108.961 115.402 108.966 115.377 108.976C115.353 108.986 115.331 109.001 115.312 109.02C115.293 109.039 115.279 109.061 115.268 109.086C115.258 109.11 115.253 109.137 115.253 109.163V110.184H112.233V109.163C112.233 109.137 112.227 109.11 112.217 109.086C112.207 109.061 112.192 109.039 112.174 109.02C112.155 109.001 112.133 108.986 112.108 108.976C112.084 108.966 112.058 108.961 112.031 108.961H107.199C107.145 108.961 107.094 108.982 107.056 109.02C107.018 109.058 106.997 109.11 106.997 109.163V110.184H103.977V109.163C103.977 109.137 103.971 109.11 103.961 109.086C103.951 109.061 103.936 109.039 103.918 109.02C103.899 109.001 103.877 108.987 103.852 108.976C103.828 108.966 103.802 108.961 103.775 108.961H98.9426C98.8892 108.961 98.8379 108.982 98.8002 109.02C98.7624 109.058 98.7412 109.11 98.7412 109.163V110.184H89.4784C88.8438 110.184 88.2154 110.31 87.629 110.554C87.0427 110.798 86.5099 111.156 86.0612 111.607C85.6124 112.058 85.2564 112.593 85.0136 113.183C84.7707 113.772 84.6457 114.404 84.6457 115.041V117.238C84.6457 118.526 85.1549 119.762 86.0612 120.672C86.9675 121.583 88.1967 122.095 89.4784 122.095H250.167C251.449 122.095 252.678 121.583 253.584 120.672C254.491 119.762 255 118.526 255 117.238V115.041C255 114.404 254.875 113.772 254.632 113.183C254.389 112.593 254.033 112.058 253.584 111.607C253.136 111.156 252.603 110.798 252.017 110.554C251.43 110.31 250.802 110.184 250.167 110.184Z" fill="#333333"/>
<path d="M171.243 100.935C171.195 101.05 171.141 101.163 171.081 101.272C170.765 101.857 170.32 102.36 169.78 102.743C169.14 103.196 168.388 103.463 167.607 103.516C166.826 103.569 166.046 103.405 165.351 103.043C164.656 102.681 164.074 102.133 163.668 101.461C163.261 100.789 163.046 100.017 163.046 99.2304V98.5371H163.632C165.906 100.015 168.537 100.844 171.243 100.935Z" fill="#333333"/>
<path d="M179.596 98.7402V99.2305C179.596 100.185 179.28 101.112 178.698 101.866C178.115 102.62 177.299 103.157 176.379 103.393C175.459 103.629 174.486 103.55 173.616 103.168C172.745 102.787 172.026 102.125 171.572 101.286C171.509 101.174 171.453 101.059 171.402 100.941C171.527 100.944 171.65 100.946 171.776 100.946C174.535 100.949 177.241 100.186 179.596 98.7402Z" fill="#333333"/>
<path d="M185.354 46.8931C185.225 46.8742 185.095 46.8621 184.965 46.8535C186.443 50.2774 186.546 54.1435 185.251 57.6416C185.381 57.6262 185.509 57.6055 185.638 57.5814C186.891 57.3373 188.018 56.6541 188.817 55.6533C189.616 54.6525 190.036 53.3991 190.002 52.1162C189.968 50.8334 189.482 49.6043 188.631 48.6478C187.78 47.6914 186.618 47.0695 185.354 46.8931Z" fill="#333333"/>
<path d="M158.586 46.8535C158.456 46.8621 158.326 46.8742 158.197 46.8931C156.933 47.0696 155.771 47.6914 154.92 48.6479C154.069 49.6043 153.583 50.8334 153.549 52.1162C153.515 53.3991 153.935 54.6524 154.734 55.6532C155.533 56.654 156.66 57.3373 157.913 57.5814C158.042 57.6055 158.17 57.6262 158.3 57.6416C157.005 54.1435 157.108 50.2774 158.586 46.8535Z" fill="#333333"/>
<path d="M185.354 46.8929C183.944 43.5077 181.332 40.77 178.026 39.2119C174.72 37.6538 170.956 37.3864 167.465 38.4618C163.974 39.5371 161.005 41.8784 159.135 45.0307C157.265 48.1831 156.628 51.9214 157.347 55.5195C158.067 59.1175 160.091 62.3184 163.027 64.5003C165.963 66.6822 169.601 67.6893 173.235 67.3259C176.868 66.9625 180.237 65.2546 182.688 62.534C185.139 59.8134 186.496 56.2744 186.495 52.6044C186.495 50.6434 186.107 48.702 185.354 46.8929ZM185.251 57.6415C183.999 61.0242 181.532 63.8133 178.337 65.46C175.142 67.1066 171.449 67.4915 167.985 66.5388C164.522 65.5862 161.538 63.365 159.623 60.3125C157.707 57.26 156.997 53.5972 157.633 50.0452C158.269 46.4931 160.205 43.3089 163.06 41.1194C165.914 38.9299 169.481 37.8937 173.057 38.2146C176.634 38.5356 179.962 40.1905 182.385 42.8536C184.809 45.5168 186.153 48.9952 186.153 52.6044C186.152 54.324 185.847 56.0297 185.251 57.6415Z" fill="#333333"/>
<path d="M179.307 49.25H164.244C163.45 49.25 162.688 49.5672 162.126 50.1318C161.565 50.6964 161.249 51.4621 161.249 52.2606C161.249 53.059 161.565 53.8248 162.126 54.3893C162.688 54.9539 163.45 55.2711 164.244 55.2711H179.307C180.101 55.2711 180.863 54.9539 181.425 54.3893C181.986 53.8248 182.302 53.059 182.302 52.2606C182.302 51.4621 181.986 50.6964 181.425 50.1318C180.863 49.5672 180.101 49.25 179.307 49.25Z" fill="#333333"/>
<path d="M185.251 78.3138C185.196 78.2123 185.14 78.1125 185.082 78.0145C185.08 78.011 185.078 78.0093 185.076 78.0059C183.73 75.6888 181.807 73.7634 179.496 72.4188C177.185 71.0742 174.567 70.3566 171.897 70.3364C169.227 70.3161 166.598 70.994 164.267 72.3034C161.937 73.6129 159.985 75.5089 158.604 77.8053C157.222 80.1018 156.459 82.7198 156.388 85.4024C156.317 88.085 156.942 90.74 158.2 93.1068C159.458 95.4736 161.307 97.4708 163.565 98.9026C165.824 100.334 168.413 101.151 171.081 101.273C171.243 101.282 171.408 101.287 171.572 101.287C171.64 101.29 171.707 101.29 171.776 101.29C174.527 101.294 177.229 100.552 179.596 99.1417C182.167 97.6124 184.244 95.3693 185.576 92.6819C185.578 92.6785 185.58 92.6768 185.581 92.6733C185.633 92.5701 185.682 92.4652 185.732 92.3585C186.761 90.1457 187.255 87.7193 187.171 85.2781C187.087 82.8368 186.429 80.4502 185.251 78.3138H185.251ZM185.398 92.2639C185.349 92.3706 185.297 92.4755 185.244 92.5787C183.971 95.1227 182.014 97.2574 179.596 98.7409C177.241 100.186 174.535 100.95 171.776 100.946C171.651 100.946 171.527 100.945 171.402 100.941C171.349 100.941 171.296 100.939 171.243 100.936C168.63 100.844 166.085 100.07 163.86 98.69C161.635 97.3098 159.805 95.3711 158.551 93.0646C157.298 90.7581 156.663 88.1632 156.71 85.5354C156.757 82.9076 157.484 80.3373 158.819 78.0775C160.154 75.8176 162.052 73.9461 164.325 72.6471C166.598 71.348 169.169 70.6662 171.784 70.6687C174.399 70.6712 176.968 71.358 179.239 72.6613C181.509 73.9647 183.403 75.8399 184.734 78.1022C184.736 78.1057 184.738 78.1074 184.739 78.1108C184.799 78.2089 184.857 78.3087 184.912 78.4084C186.087 80.5115 186.744 82.8666 186.828 85.2769C186.913 87.6872 186.423 90.0829 185.398 92.2639Z" fill="#333333"/>
<path d="M183.615 78.7715C183.315 78.5567 182.956 78.4407 182.588 78.4395H175.856C175.387 78.4395 174.937 78.6267 174.606 78.96C174.274 79.2932 174.088 79.7452 174.088 80.2165C174.088 80.6879 174.274 81.1399 174.606 81.4731C174.937 81.8064 175.387 81.9936 175.856 81.9936H182.588C182.708 81.994 182.828 81.9819 182.945 81.9575C183.063 81.9321 183.177 81.8958 183.288 81.8491C183.576 81.7245 183.825 81.5252 184.011 81.2717C184.197 81.0182 184.313 80.7195 184.346 80.4063C184.379 80.0931 184.329 79.7767 184.2 79.4894C184.072 79.2021 183.87 78.9544 183.615 78.7715L183.615 78.7715Z" fill="#333333"/>
<path d="M176.304 81.1189C176.8 81.1189 177.202 80.7149 177.202 80.2167C177.202 79.7184 176.8 79.3145 176.304 79.3145C175.808 79.3145 175.406 79.7184 175.406 80.2167C175.406 80.7149 175.808 81.1189 176.304 81.1189Z" fill="#F1F1F1"/>
<path d="M179.221 81.1189C179.717 81.1189 180.119 80.7149 180.119 80.2167C180.119 79.7184 179.717 79.3145 179.221 79.3145C178.726 79.3145 178.324 79.7184 178.324 80.2167C178.324 80.7149 178.726 81.1189 179.221 81.1189Z" fill="#F1F1F1"/>
<path d="M182.139 81.1189C182.635 81.1189 183.036 80.7149 183.036 80.2167C183.036 79.7184 182.635 79.3145 182.139 79.3145C181.643 79.3145 181.241 79.7184 181.241 80.2167C181.241 80.7149 181.643 81.1189 182.139 81.1189Z" fill="#00C5B4"/>
<path d="M215.947 50.4788C213.613 51.8859 209.454 53.6491 205.204 51.8371L202.456 50.6658L207.962 44.4628C203.568 39.5941 201.138 33.2546 201.145 26.6817C201.151 20.1088 203.595 13.7743 207.998 8.91464C212.401 4.05497 218.448 1.01891 224.959 0.399077C231.469 -0.220758 237.976 1.62012 243.208 5.56239C248.441 9.50465 252.024 15.2654 253.259 21.7201C254.493 28.1748 253.29 34.8602 249.885 40.4715C246.479 46.0827 241.115 50.217 234.84 52.0673C228.565 53.9177 221.829 53.3513 215.947 50.4788Z" fill="white"/>
<path d="M215.961 50.8132C213.718 52.1368 209.445 53.9661 205.089 52.1086L201.965 50.7766L207.568 44.4636C204.081 40.5221 201.834 35.6318 201.107 30.4087C200.38 25.1856 201.208 19.8632 203.485 15.1119C205.762 10.3605 209.387 6.39257 213.904 3.70786C218.42 1.02316 223.626 -0.258293 228.866 0.024888C234.105 0.308069 239.144 2.14322 243.348 5.29923C247.552 8.45524 250.733 12.791 252.49 17.7604C254.247 22.7298 254.502 28.1107 253.222 33.2254C251.943 38.34 249.186 42.9598 245.299 46.5028C241.396 50.0826 236.516 52.4062 231.287 53.1744C226.059 53.9426 220.721 53.1202 215.961 50.8132H215.961ZM246.697 9.15281C244.403 6.60981 241.634 4.54584 238.547 3.07877C235.459 1.61171 232.115 0.770295 228.704 0.602584C225.293 0.434873 221.883 0.944154 218.668 2.10134C215.453 3.25852 212.496 5.04094 209.967 7.34679C207.437 9.65264 205.384 12.4368 203.925 15.5401C202.467 18.6435 201.63 22.0053 201.464 25.4336C201.298 28.8618 201.806 32.2894 202.958 35.5205C204.11 38.7515 205.884 41.7229 208.179 44.2647L208.356 44.4613L202.948 50.5551L205.318 51.5657C209.525 53.3595 213.689 51.4961 215.796 50.2259L215.932 50.1437L216.075 50.2135C221.507 52.8664 227.689 53.5358 233.559 52.1068C239.428 50.6779 244.62 47.2397 248.242 42.3825C251.865 37.5253 253.692 31.5522 253.41 25.4886C253.128 19.425 250.754 13.6492 246.697 9.15283L246.697 9.15281Z" fill="#00C5B4"/>
<path opacity="0.1" d="M249.635 26.5444C249.635 20.4666 247.371 14.6093 243.288 10.1258C239.206 5.64232 233.601 2.85767 227.577 2.32024C228.282 2.25818 228.995 2.22461 229.716 2.22461C236.131 2.2285 242.282 4.79247 246.816 9.35289C251.351 13.9133 253.898 20.0969 253.898 26.5444C253.898 32.9919 251.351 39.1755 246.816 43.7359C242.282 48.2963 236.131 50.8603 229.716 50.8642C228.996 50.8642 228.285 50.8302 227.581 50.7682C233.603 50.23 239.207 47.4451 243.289 42.9617C247.371 38.4784 249.635 32.6216 249.635 26.5444Z" fill="#333333"/>
<path d="M230.852 21.6953H213.563V23.3091H230.852V21.6953Z" fill="#00C5B4"/>
<path d="M243.697 27.2793H213.563V28.8931H243.697V27.2793Z" fill="#00C5B4"/>
<path d="M243.668 32.8613H213.563V34.4751H243.668V32.8613Z" fill="#00C5B4"/>
<path d="M112.097 139.565H0.293447C0.21562 139.565 0.140981 139.533 0.0859485 139.478C0.0309165 139.423 0 139.348 0 139.27C0 139.191 0.0309165 139.116 0.0859485 139.061C0.140981 139.006 0.21562 138.975 0.293447 138.975H112.097C112.175 138.975 112.249 139.006 112.304 139.061C112.359 139.116 112.39 139.191 112.39 139.27C112.39 139.348 112.359 139.423 112.304 139.478C112.249 139.533 112.175 139.565 112.097 139.565Z" fill="#CBCBCB"/>
<path d="M68.9808 22.1773C68.7385 21.0727 67.9516 20.1574 67.045 19.4871C65.5505 18.3822 63.7178 17.839 61.866 17.9522C60.0141 18.0654 58.2604 18.8278 56.9102 20.1066C56.1557 20.7763 55.6118 21.6526 55.3449 22.6281C55.2176 23.1157 55.2108 23.6271 55.3251 24.118C55.4394 24.6088 55.6714 25.0641 56.0007 25.4442L56.125 25.5224C56.0123 25.0423 56.3834 24.5625 56.8268 24.3506C57.2878 24.1805 57.7691 24.0721 58.2583 24.028C58.9984 23.8874 59.6999 23.5888 60.3154 23.1523C60.9308 22.7158 61.4458 22.1516 61.8257 21.4979C62.1071 22.3025 62.5567 23.0372 63.1443 23.6526C63.7318 24.268 64.4436 24.7498 65.2319 25.0657C66.0536 25.3887 68.3106 25.8328 69.093 25.4227C70.0909 24.8997 69.2231 23.282 68.9808 22.1773Z" fill="#333333"/>
</g>
<defs>
<clipPath id="clip0">
<rect width="255" height="140" fill="white"/>
</clipPath>
</defs>
</svg>
