<svg width="13" height="12" viewBox="0 0 13 12" fill="none" xmlns="http://www.w3.org/2000/svg">
<path d="M0.541687 11.3743H2.70835V4.87435H0.541687V11.3743ZM12.4584 5.41602C12.4584 4.82018 11.9709 4.33268 11.375 4.33268H7.9571L8.47169 1.85727L8.48794 1.68393C8.48794 1.46185 8.39585 1.25602 8.2496 1.10977L7.67544 0.541016L4.11127 4.1106C3.91085 4.3056 3.79169 4.57643 3.79169 4.87435V10.291C3.79169 10.8868 4.27919 11.3743 4.87502 11.3743H9.75002C10.1996 11.3743 10.5842 11.1035 10.7467 10.7135L12.3825 6.89476C12.4313 6.77018 12.4584 6.64018 12.4584 6.49935V5.41602Z" fill="#333333"/>
</svg>
