<svg width="96" height="86" viewBox="0 0 96 86" fill="none" xmlns="http://www.w3.org/2000/svg">
<path d="M80.2083 23.2077V36.5381C80.2083 36.5381 70.3413 36.5827 70.2917 36.5381V23.2077H55.4167C55.4167 23.2077 55.4663 14.3356 55.4167 14.291H70.2917V0.916016H80.2083V14.291H95.0833V23.2077H80.2083ZM65.3333 41.041V27.666H50.4583V14.291H10.7917C5.3375 14.291 0.875 18.3035 0.875 23.2077V76.7077C0.875 81.6118 5.3375 85.6243 10.7917 85.6243H70.2917C75.7458 85.6243 80.2083 81.6118 80.2083 76.7077V41.041H65.3333ZM10.7917 76.7077L25.6667 58.8743L35.5833 72.2493L50.4583 54.416L70.2917 76.7077H10.7917Z" fill="#00C5B4"/>
</svg>
