<svg width="688" height="601" viewBox="0 0 688 601" fill="none" xmlns="http://www.w3.org/2000/svg">
<path d="M94.5181 555.074L74.1533 264.33C73.6373 256.926 75.4063 249.55 79.1413 243.53L180.75 79.7574C183.466 75.3801 187.11 71.8989 191.328 69.6541C195.545 67.4089 200.19 66.4778 204.809 66.9511L552.653 102.671C558.157 103.236 563.377 105.772 567.596 109.93C571.818 114.088 574.828 119.664 576.217 125.894L624.012 340.136C625.181 345.395 625.151 350.92 623.926 356.162L577.159 555.79L94.5181 555.074Z" fill="#F4F4F4"/>
<path d="M509.12 497.788H512.13V379.501C512.13 379 511.464 378.604 510.638 378.604H480.624C479.798 378.604 479.132 379.005 479.132 379.501V496.606H482.116V382.351H509.12V497.788Z" fill="#B2B6BB"/>
<g opacity="0.1">
<path opacity="0.1" d="M509.12 497.788H512.13V379.501C512.13 379 511.464 378.604 510.638 378.604H480.624C479.798 378.604 479.132 379.005 479.132 379.501V496.606H482.116V382.351H509.12V497.788Z" fill="black"/>
</g>
<path d="M470.953 555.575H524.6V548.178H470.953V555.575Z" fill="#B2B6BB"/>
<path opacity="0.1" d="M470.953 555.575H524.6V548.178H470.953V555.575Z" fill="black"/>
<path d="M506.97 497.788H509.98V379.501C509.98 379 509.314 378.604 508.488 378.604H478.474C477.648 378.604 476.982 379.005 476.982 379.501V496.606H479.966V382.351H506.97V497.788Z" fill="#B2B6BB"/>
<path d="M483.866 452.848H452.854V495.268H483.866V452.848Z" fill="#DADDDF"/>
<path d="M459.055 465.905H477.661V459.685H459.055V465.905Z" fill="#F4F4F4"/>
<path d="M532.327 452.848H501.315V495.268H532.327V452.848Z" fill="#DADDDF"/>
<path d="M508.243 489.169H526.849V461.378H508.243V489.169Z" fill="#F4F4F4"/>
<path d="M494.573 555.574H500.211V495.825H494.573V555.574Z" fill="#B2B6BB"/>
<g opacity="0.1">
<path opacity="0.1" d="M494.573 555.574H500.211V495.825H494.573V555.574Z" fill="black"/>
</g>
<path d="M491.133 555.574H496.771V495.825H491.133V555.574Z" fill="#B2B6BB"/>
<path d="M468.029 555.575H521.676V548.178H468.029V555.575Z" fill="#B2B6BB"/>
<path d="M532.327 394.631H501.315V437.046H532.327V394.631Z" fill="#DADDDF"/>
<path d="M507.959 408.419H526.565V402.199H507.959V408.419Z" fill="#F4F4F4"/>
<path d="M449.543 443.784H550.267V436.387H449.543V443.784Z" fill="#B2B6BB"/>
<path opacity="0.1" d="M449.543 443.784H550.267V436.387H449.543V443.784Z" fill="black"/>
<path d="M449.543 502.381H550.267V494.983H449.543V502.381Z" fill="#B2B6BB"/>
<path opacity="0.1" d="M449.543 502.381H550.267V494.983H449.543V502.381Z" fill="black"/>
<path d="M486.571 394.631H455.559V437.051H486.571V394.631Z" fill="#DADDDF"/>
<path d="M461.76 407.659H480.366V401.438H461.76V407.659Z" fill="#F4F4F4"/>
<path d="M461.76 418.947H480.366V412.727H461.76V418.947Z" fill="#F4F4F4"/>
<path d="M446.104 502.441H546.431L546.586 495.043H446.104V502.441Z" fill="#B2B6BB"/>
<path d="M446.104 443.784H546.827V436.387H446.104V443.784Z" fill="#B2B6BB"/>
<path d="M155.161 555.143H310.89V177.284H155.161V555.143Z" fill="#B2B6BB"/>
<path d="M155.162 555.143H307.824V177.284H155.162V555.143Z" fill="#DADDDF"/>
<path d="M299.784 555.144V185.859H163.203V555.144H299.784Z" fill="#B2B6BB"/>
<path opacity="0.1" d="M260.58 231.386H205.11V255.426H260.58V231.386Z" fill="black"/>
<path d="M196.453 354.951C189.367 352.672 182.263 360.009 175.194 357.73C173.693 357.27 172.463 354.906 172.463 353.163C172.463 351.41 173.693 350.914 175.194 351.375C182.28 353.649 189.384 346.316 196.453 348.595C197.954 349.056 199.184 351.42 199.184 353.163C199.184 354.911 197.95 355.412 196.453 354.951Z" fill="white"/>
<path opacity="0.1" d="M164.431 555.144V185.859H162.522V555.144H164.431Z" fill="black"/>
<path d="M257.939 231.386H202.469V255.426H257.939V231.386Z" fill="#F4F4F4"/>
<path d="M124.102 449.247C123.715 449.249 123.333 449.353 122.985 449.551C122.636 449.749 122.33 450.035 122.09 450.389C118.822 455.282 118.16 465.604 119.51 468.284C121.101 471.439 119.459 472.571 119.841 475.421C120.151 477.74 122.95 479.498 123.986 480.073C124.106 480.143 124.238 480.18 124.371 480.18C124.505 480.18 124.637 480.143 124.756 480.073C125.831 479.467 128.798 477.604 129.056 475.26C129.366 472.396 127.697 471.324 129.202 468.114C130.492 465.389 129.555 455.092 126.162 450.319C125.912 449.972 125.598 449.696 125.244 449.511C124.89 449.325 124.504 449.235 124.115 449.247" fill="#00C5B4"/>
<g opacity="0.4">
<g opacity="0.4">
<path opacity="0.4" d="M124.102 449.247C123.715 449.249 123.333 449.353 122.985 449.551C122.636 449.749 122.33 450.035 122.09 450.389C118.822 455.282 118.16 465.604 119.51 468.284C121.101 471.439 119.459 472.571 119.841 475.421C120.151 477.74 122.95 479.498 123.986 480.073C124.106 480.143 124.238 480.18 124.371 480.18C124.505 480.18 124.637 480.143 124.756 480.073C125.831 479.467 128.798 477.604 129.056 475.26C129.366 472.396 127.697 471.324 129.202 468.114C130.492 465.389 129.555 455.092 126.162 450.319C125.912 449.972 125.598 449.696 125.244 449.511C124.89 449.325 124.504 449.235 124.115 449.247" fill="white"/>
</g>
</g>
<path d="M147.189 477.386C146.899 477.089 146.555 476.871 146.182 476.75C145.81 476.628 145.419 476.606 145.039 476.684C139.806 477.821 133.429 485.043 132.921 488.088C132.315 491.674 130.445 491.258 129.107 493.687C128.019 495.666 129.107 499.137 129.563 500.374C129.616 500.517 129.695 500.644 129.796 500.746C129.896 500.849 130.015 500.924 130.144 500.964C131.292 501.345 134.573 502.236 136.095 500.679C137.952 498.771 137.316 496.672 140.27 495.435C142.777 494.383 147.941 485.96 148.118 479.765C148.128 479.313 148.05 478.865 147.891 478.452C147.731 478.041 147.495 477.676 147.197 477.386" fill="#00C5B4"/>
<path d="M100.297 484.031C100.049 484.27 99.8494 484.571 99.7139 484.911C99.5785 485.252 99.5105 485.624 99.5148 485.999C99.6223 491.157 103.858 498.209 105.935 499.111C108.381 500.167 107.84 501.905 109.375 503.508C110.622 504.81 113.215 504.229 114.143 503.964C114.251 503.934 114.352 503.874 114.438 503.793C114.525 503.713 114.595 503.608 114.642 503.493C115.072 502.446 116.126 499.426 115.231 497.763C114.139 495.73 112.578 496.056 112.097 493.066C111.692 490.531 106.442 484.466 102.099 483.465C101.782 483.396 101.455 483.41 101.143 483.508C100.831 483.606 100.542 483.785 100.297 484.031Z" fill="#00C5B4"/>
<path d="M139.672 495.549C139.443 495.36 139.181 495.233 138.904 495.176C138.627 495.12 138.344 495.136 138.073 495.224C134.37 496.481 130.225 502.235 130.04 504.449C129.821 507.083 128.445 506.953 127.632 508.801C126.97 510.303 127.968 512.727 128.368 513.579C128.414 513.679 128.479 513.764 128.559 513.829C128.637 513.894 128.728 513.939 128.823 513.96C129.683 514.135 132.091 514.505 133.093 513.258C134.319 511.756 133.73 510.253 135.781 509.137C137.522 508.17 140.73 501.669 140.481 497.187C140.459 496.861 140.375 496.546 140.235 496.262C140.095 495.979 139.903 495.735 139.672 495.549Z" fill="#00C5B4"/>
<path d="M111.981 464.674C111.673 464.784 111.39 464.974 111.153 465.229C110.917 465.484 110.732 465.797 110.614 466.147C109.023 470.965 110.614 479.369 112.256 481.121C114.174 483.185 113.116 484.547 113.998 486.711C114.725 488.469 117.313 489.085 118.259 489.25C118.369 489.269 118.481 489.26 118.587 489.223C118.693 489.186 118.792 489.121 118.874 489.035C119.605 488.253 121.579 485.934 121.295 484.001C120.947 481.632 119.399 481.242 119.932 478.267C120.388 475.763 117.52 467.804 113.826 464.955C113.556 464.75 113.25 464.619 112.931 464.57C112.612 464.521 112.287 464.557 111.981 464.674Z" fill="#00C5B4"/>
<path d="M137.699 465.805C137.414 465.631 137.099 465.534 136.777 465.519C136.455 465.504 136.134 465.573 135.837 465.72C131.791 467.818 127.827 475.085 127.913 477.665C128.016 480.705 126.429 480.785 125.763 483.049C125.208 484.892 126.67 487.461 127.233 488.357C127.299 488.462 127.384 488.548 127.483 488.608C127.581 488.669 127.689 488.703 127.801 488.708C128.794 488.758 131.593 488.743 132.569 487.14C133.761 485.182 132.901 483.635 135.085 481.967C136.938 480.554 139.729 472.581 138.852 467.523C138.785 467.155 138.647 466.81 138.45 466.513C138.253 466.215 138 465.973 137.712 465.805" fill="#00C5B4"/>
<g opacity="0.2">
<g opacity="0.2">
<path opacity="0.2" d="M111.981 464.674C111.673 464.784 111.39 464.974 111.153 465.229C110.917 465.484 110.732 465.797 110.614 466.147C109.023 470.965 110.614 479.369 112.256 481.121C114.174 483.185 113.116 484.547 113.998 486.711C114.725 488.469 117.313 489.085 118.259 489.25C118.369 489.269 118.481 489.26 118.587 489.223C118.693 489.186 118.792 489.121 118.874 489.035C119.605 488.253 121.579 485.934 121.295 484.001C120.947 481.632 119.399 481.242 119.932 478.267C120.388 475.763 117.52 467.804 113.826 464.955C113.556 464.75 113.25 464.619 112.931 464.57C112.612 464.521 112.287 464.557 111.981 464.674Z" fill="white"/>
</g>
</g>
<g opacity="0.2">
<g opacity="0.2">
<path opacity="0.2" d="M137.699 465.805C137.414 465.631 137.099 465.534 136.777 465.519C136.455 465.504 136.134 465.573 135.837 465.72C131.791 467.818 127.827 475.085 127.913 477.665C128.016 480.705 126.429 480.785 125.763 483.049C125.208 484.892 126.67 487.461 127.233 488.357C127.299 488.462 127.384 488.548 127.483 488.608C127.581 488.669 127.689 488.703 127.801 488.708C128.794 488.758 131.593 488.743 132.569 487.14C133.761 485.182 132.901 483.635 135.085 481.967C136.938 480.554 139.729 472.581 138.852 467.523C138.785 467.155 138.647 466.81 138.45 466.513C138.253 466.215 138 465.973 137.712 465.805" fill="white"/>
</g>
</g>
<path d="M123.379 466.937C123.055 466.921 122.732 466.992 122.434 467.142C122.136 467.293 121.871 467.521 121.659 467.808C118.813 471.755 117.983 480.329 119.028 482.588C120.262 485.267 118.869 486.148 119.11 488.532C119.308 490.471 121.582 492.038 122.429 492.539C122.529 492.595 122.639 492.624 122.75 492.624C122.86 492.624 122.97 492.595 123.07 492.539C123.981 492.078 126.51 490.636 126.768 488.698C127.103 486.329 125.745 485.372 127.082 482.763C128.217 480.544 127.727 471.955 125.035 467.858C124.837 467.563 124.584 467.323 124.295 467.156C124.006 466.99 123.689 466.901 123.366 466.896" fill="#00C5B4"/>
<path d="M111.521 505.446C111.312 505.617 111.139 505.842 111.014 506.102C110.889 506.363 110.816 506.653 110.799 506.949C110.597 510.985 113.517 516.82 115.099 517.682C116.952 518.683 116.432 520.005 117.541 521.378C118.444 522.49 120.508 522.229 121.248 522.094C121.337 522.079 121.422 522.044 121.497 521.984C121.572 521.929 121.634 521.849 121.678 521.758C122.065 520.972 123.067 518.693 122.461 517.326C121.717 515.653 120.478 515.793 120.268 513.42C120.091 511.416 116.329 506.268 112.988 505.161C112.743 505.086 112.487 505.076 112.238 505.126C111.989 505.181 111.753 505.296 111.547 505.466" fill="#00C5B4"/>
<g opacity="0.2">
<g opacity="0.2">
<path opacity="0.2" d="M139.672 495.549C139.443 495.36 139.181 495.233 138.904 495.176C138.627 495.12 138.344 495.136 138.073 495.224C134.37 496.481 130.225 502.235 130.04 504.449C129.821 507.083 128.445 506.953 127.632 508.801C126.97 510.303 127.968 512.727 128.368 513.579C128.414 513.679 128.479 513.764 128.559 513.829C128.637 513.894 128.728 513.939 128.823 513.96C129.683 514.135 132.091 514.505 133.093 513.258C134.319 511.756 133.73 510.253 135.781 509.137C137.522 508.17 140.73 501.669 140.481 497.187C140.459 496.861 140.375 496.546 140.235 496.262C140.095 495.979 139.903 495.735 139.672 495.549Z" fill="black"/>
</g>
</g>
<g opacity="0.2">
<g opacity="0.2">
<path opacity="0.2" d="M123.379 466.937C123.055 466.921 122.732 466.992 122.434 467.142C122.136 467.293 121.871 467.521 121.659 467.808C118.813 471.755 117.983 480.329 119.028 482.588C120.262 485.267 118.869 486.148 119.11 488.532C119.308 490.471 121.582 492.038 122.429 492.539C122.529 492.595 122.639 492.624 122.75 492.624C122.86 492.624 122.97 492.595 123.07 492.539C123.981 492.078 126.51 490.636 126.768 488.698C127.103 486.329 125.745 485.372 127.082 482.763C128.217 480.544 127.727 471.955 125.035 467.858C124.837 467.563 124.584 467.323 124.295 467.156C124.006 466.99 123.689 466.901 123.366 466.896" fill="black"/>
</g>
</g>
<g opacity="0.2">
<g opacity="0.2">
<path opacity="0.2" d="M111.521 505.446C111.312 505.617 111.139 505.842 111.014 506.102C110.889 506.363 110.816 506.653 110.799 506.949C110.597 510.985 113.517 516.82 115.099 517.682C116.952 518.683 116.432 520.005 117.541 521.378C118.444 522.49 120.508 522.229 121.248 522.094C121.337 522.079 121.422 522.044 121.497 521.984C121.572 521.929 121.634 521.849 121.678 521.758C122.065 520.972 123.067 518.693 122.461 517.326C121.717 515.653 120.478 515.793 120.268 513.42C120.091 511.416 116.329 506.268 112.988 505.161C112.743 505.086 112.487 505.076 112.238 505.126C111.989 505.181 111.753 505.296 111.547 505.466" fill="black"/>
</g>
</g>
<path d="M123.968 527.678L123.71 527.588C123.771 527.342 130.096 503.022 139.706 496.17L139.848 496.44C130.328 503.232 124.033 527.437 123.968 527.678Z" fill="#00C5B4"/>
<path d="M123.565 527.673C122.705 521.443 111.916 506.553 111.809 506.403L112.015 506.197C112.445 506.813 122.95 521.302 123.831 527.623L123.565 527.673Z" fill="#00C5B4"/>
<path d="M123.901 527.647L123.63 527.607L124.92 514.816C125.614 507.599 128.268 500.824 132.496 495.485L146.506 477.865L146.708 478.081L132.699 495.7C128.502 500.988 125.866 507.699 125.174 514.856L123.901 527.647Z" fill="#00C5B4"/>
<path d="M123.523 527.688C123.454 527.398 116.269 498.07 100.771 484.712L100.935 484.457C116.505 497.879 123.725 527.308 123.785 527.603L123.523 527.688Z" fill="#00C5B4"/>
<path d="M123.303 468.405L123.032 468.409L123.635 527.618L123.906 527.613L123.303 468.405Z" fill="#00C5B4"/>
<path d="M123.496 508.445C123.225 489.675 137.118 466.631 137.256 466.376L137.475 466.561C137.337 466.792 123.491 489.75 123.762 508.415L123.496 508.445Z" fill="#00C5B4"/>
<path d="M123.496 509.347C123.161 502.15 111.886 465.875 111.783 465.51L112.041 465.399C112.153 465.765 123.428 502.09 123.767 509.327L123.496 509.347Z" fill="#00C5B4"/>
<path d="M124.028 450.035L123.758 450.047L124.303 466.948L124.573 466.936L124.028 450.035Z" fill="#00C5B4"/>
<path d="M112.124 510.524L112.019 510.815L116.107 512.823L116.212 512.533L112.124 510.524Z" fill="#00C5B4"/>
<path d="M101.399 489.691L101.297 489.983L108.428 493.37L108.531 493.078L101.399 489.691Z" fill="#00C5B4"/>
<path d="M110.943 470.434L110.73 470.628L115.498 477.716L115.712 477.522L110.943 470.434Z" fill="#00C5B4"/>
<path d="M125.796 474.941L123.341 485.099L123.602 485.185L126.057 475.027L125.796 474.941Z" fill="#00C5B4"/>
<path d="M132.378 469.356L131.382 477.872L131.65 477.915L132.646 469.4L132.378 469.356Z" fill="#00C5B4"/>
<path d="M138.229 488.593L137.966 488.513C138.646 485.438 139.661 480.775 139.686 480.55H139.962C139.962 480.71 138.749 486.219 138.242 488.563" fill="#00C5B4"/>
<path d="M138.103 502.086L132.027 506.283L132.165 506.553L138.241 502.356L138.103 502.086Z" fill="#00C5B4"/>
<g opacity="0.3">
<g opacity="0.3">
<path opacity="0.3" d="M123.97 527.678L123.712 527.588C123.773 527.342 130.098 503.022 139.708 496.17L139.85 496.44C130.33 503.232 124.035 527.437 123.97 527.678Z" fill="black"/>
<path opacity="0.3" d="M123.566 527.673C122.706 521.442 111.918 506.553 111.81 506.403L112.016 506.197C112.446 506.813 122.951 521.302 123.833 527.623L123.566 527.673Z" fill="black"/>
<path opacity="0.3" d="M123.901 527.649L123.63 527.608L124.92 514.817C125.614 507.6 128.268 500.825 132.496 495.486L146.506 477.866L146.708 478.082L132.699 495.701C128.502 500.989 125.866 507.7 125.174 514.857L123.901 527.649Z" fill="black"/>
<path opacity="0.3" d="M123.523 527.688C123.454 527.398 116.269 498.07 100.771 484.712L100.935 484.457C116.505 497.879 123.725 527.308 123.785 527.603L123.523 527.688Z" fill="black"/>
<path opacity="0.3" d="M123.303 468.405L123.032 468.409L123.635 527.618L123.906 527.613L123.303 468.405Z" fill="black"/>
<path opacity="0.3" d="M123.497 508.447C123.226 489.676 137.119 466.632 137.257 466.377L137.475 466.562C137.338 466.793 123.492 489.751 123.763 508.416L123.497 508.447Z" fill="black"/>
<path opacity="0.3" d="M123.497 509.347C123.162 502.15 111.887 465.875 111.784 465.51L112.042 465.399C112.153 465.765 123.428 502.09 123.768 509.327L123.497 509.347Z" fill="black"/>
<path opacity="0.3" d="M124.028 450.035L123.758 450.047L124.303 466.948L124.573 466.936L124.028 450.035Z" fill="black"/>
<path opacity="0.3" d="M112.124 510.524L112.019 510.815L116.107 512.823L116.212 512.533L112.124 510.524Z" fill="black"/>
<path opacity="0.3" d="M101.401 489.691L101.298 489.983L108.43 493.37L108.532 493.078L101.401 489.691Z" fill="black"/>
<path opacity="0.3" d="M110.945 470.434L110.732 470.628L115.5 477.716L115.714 477.522L110.945 470.434Z" fill="black"/>
<path opacity="0.3" d="M125.796 474.941L123.341 485.099L123.602 485.185L126.057 475.027L125.796 474.941Z" fill="black"/>
<path opacity="0.3" d="M132.378 469.356L131.382 477.872L131.65 477.915L132.646 469.4L132.378 469.356Z" fill="black"/>
<path opacity="0.3" d="M138.229 488.593L137.966 488.513C138.646 485.438 139.661 480.775 139.686 480.55H139.962C139.962 480.71 138.749 486.219 138.242 488.563" fill="black"/>
<path opacity="0.3" d="M138.103 502.086L132.027 506.283L132.165 506.553L138.241 502.356L138.103 502.086Z" fill="black"/>
</g>
</g>
<path d="M128.786 554.999H118.896C118.205 554.999 117.52 554.838 116.882 554.533C116.243 554.222 115.663 553.771 115.174 553.206C114.685 552.635 114.298 551.958 114.033 551.217C113.769 550.471 113.633 549.675 113.633 548.868V528.019H134.071V548.868C134.071 549.675 133.934 550.471 133.67 551.217C133.405 551.958 133.017 552.635 132.527 553.206C132.039 553.776 131.458 554.227 130.819 554.533C130.18 554.843 129.495 554.999 128.803 554.999" fill="#868A91"/>
<path d="M123.969 554.999H128.785C129.476 554.999 130.161 554.843 130.8 554.533C131.439 554.227 132.02 553.777 132.509 553.206C132.998 552.635 133.386 551.959 133.651 551.217C133.916 550.471 134.052 549.675 134.052 548.868V530.578L113.666 530.879L113.614 531.88H128.6V549.279C128.6 549.279 129.692 554.989 123.969 554.989" fill="#606266"/>
<path d="M134.543 530.883H112.85C112.691 530.883 112.539 530.808 112.427 530.678C112.315 530.548 112.252 530.367 112.252 530.182V528.725C112.252 528.539 112.315 528.364 112.427 528.229C112.539 528.099 112.691 528.023 112.85 528.023H134.543C134.702 528.023 134.854 528.099 134.966 528.229C135.078 528.364 135.141 528.539 135.141 528.725V530.182C135.141 530.367 135.078 530.548 134.966 530.678C134.854 530.808 134.702 530.883 134.543 530.883Z" fill="#868A91"/>
<path d="M135.141 530.177V528.72C135.138 528.625 135.119 528.529 135.085 528.444C135.051 528.359 135.003 528.279 134.943 528.214C134.883 528.149 134.813 528.099 134.736 528.064C134.66 528.029 134.578 528.014 134.496 528.019H130.196V530.883H134.496C134.578 530.888 134.66 530.873 134.736 530.838C134.813 530.803 134.883 530.753 134.943 530.688C135.003 530.623 135.051 530.543 135.085 530.458C135.119 530.372 135.138 530.277 135.141 530.182" fill="#606266"/>
<g opacity="0.1">
<g opacity="0.1">
<g opacity="0.1">
<g opacity="0.1">
<path opacity="0.1" d="M440.896 218.013H417.5V243.52H440.896V218.013Z" fill="black"/>
</g>
</g>
</g>
</g>
<path d="M565.317 179.312H383.577V319.686H565.317V179.312Z" fill="#B2B6BB"/>
<path d="M568.03 179.312H565.316V319.686H568.03V179.312Z" fill="#DADDDF"/>
<path opacity="0.3" d="M568.03 179.312H565.316V319.686H568.03V179.312Z" fill="black"/>
<path d="M560.776 184.878H388.772V314.694H560.776V184.878Z" fill="#DADDDF"/>
<path opacity="0.3" d="M392.096 184.878H388.772V314.694H392.096V184.878Z" fill="black"/>
<path d="M399.44 261.255H484.249V192.791H399.44V261.255Z" fill="white"/>
<path d="M452.355 232.623H479.059V198H452.355V232.623Z" fill="#00C5B4"/>
<path opacity="0.6" d="M452.355 232.623H479.059V198H452.355V232.623Z" fill="white"/>
<path d="M403.942 200.875H449.595V198H403.942V200.875Z" fill="#00C5B4"/>
<path d="M403.942 206.879H449.595V204.004H403.942V206.879Z" fill="#00C5B4"/>
<path d="M411.596 212.885H449.595V210.01H411.596V212.885Z" fill="#00C5B4"/>
<path d="M403.942 218.885H449.595V216.01H403.942V218.885Z" fill="#00C5B4"/>
<path d="M403.942 230.88H449.595V228.005H403.942V230.88Z" fill="#00C5B4"/>
<path d="M449.212 240.556H479.059V237.831H449.212V240.556Z" fill="#00C5B4"/>
<path d="M449.212 246.375H479.059V243.65H449.212V246.375Z" fill="#00C5B4"/>
<path d="M449.212 252.264H479.059V249.54H449.212V252.264Z" fill="#00C5B4"/>
<path d="M403.942 224.893H427.127V222.019H403.942V224.893Z" fill="#00C5B4"/>
<path d="M430.099 224.893H449.595V222.019H430.099V224.893Z" fill="#00C5B4"/>
<path d="M442.956 237.83H403.946V257.342H442.956V237.83Z" fill="#00C5B4"/>
<path opacity="0.6" d="M442.956 237.83H403.946V257.342H442.956V237.83Z" fill="white"/>
<path opacity="0.6" d="M403.942 200.875H449.595V198H403.942V200.875Z" fill="white"/>
<path opacity="0.6" d="M403.942 206.879H449.595V204.004H403.942V206.879Z" fill="white"/>
<path opacity="0.6" d="M411.596 212.885H449.595V210.01H411.596V212.885Z" fill="white"/>
<path opacity="0.6" d="M403.942 218.885H449.595V216.01H403.942V218.885Z" fill="white"/>
<path opacity="0.6" d="M403.942 230.88H449.595V228.005H403.942V230.88Z" fill="white"/>
<path opacity="0.6" d="M449.212 240.556H479.059V237.831H449.212V240.556Z" fill="white"/>
<path opacity="0.6" d="M449.212 246.375H479.059V243.65H449.212V246.375Z" fill="white"/>
<path opacity="0.6" d="M449.212 252.264H479.059V249.54H449.212V252.264Z" fill="white"/>
<path opacity="0.6" d="M403.942 224.893H427.127V222.019H403.942V224.893Z" fill="white"/>
<path opacity="0.6" d="M430.099 224.893H449.595V222.019H430.099V224.893Z" fill="white"/>
<path d="M459.954 212.589C460.504 212.273 461.024 211.948 461.566 211.677C462.121 211.386 462.723 211.225 463.334 211.202C463.884 211.165 464.43 211.326 464.894 211.663C465.363 212 465.733 212.496 465.952 213.085C466.421 214.214 466.662 215.455 466.649 216.711C466.675 218.639 466.602 220.567 466.576 222.49C466.576 224.198 466.533 225.906 467.032 227.549C467.126 227.976 467.32 228.367 467.582 228.682C467.849 228.998 468.18 229.229 468.545 229.352C468.764 229.417 468.992 229.451 469.22 229.452C471.873 229.452 474.531 229.452 477.188 229.452C477.309 229.469 477.429 229.454 477.545 229.407C477.657 229.36 477.76 229.283 477.842 229.181C477.928 229.079 477.988 228.956 478.027 228.821C478.061 228.686 478.07 228.544 478.048 228.405C478.035 226.391 477.786 224.389 477.304 222.455C476.977 221.054 476.285 219.806 475.318 218.889C474.888 218.518 474.415 218.225 473.912 218.018C472.867 217.682 471.848 217.262 470.854 216.761C470.278 216.461 469.779 215.996 469.401 215.409C469.259 215.155 469.169 214.869 469.13 214.569C469.091 214.27 469.113 213.966 469.186 213.676C469.212 213.597 469.25 213.526 469.306 213.47C470.519 211.959 471.207 209.979 471.237 207.911C471.28 207.074 471.246 206.234 471.125 205.407C471 204.756 470.751 204.146 470.398 203.621C470.05 203.095 469.603 202.667 469.091 202.367C468.188 201.741 467.182 201.344 466.142 201.203C465.097 201.061 464.043 201.178 463.041 201.546C462.568 201.676 462.13 201.941 461.768 202.316C461.403 202.69 461.123 203.164 460.956 203.694C460.852 204.098 460.805 204.52 460.818 204.941C460.874 206.053 460.551 207.145 459.928 207.986C459.558 208.487 459.231 208.988 458.892 209.489C458.784 209.638 458.698 209.807 458.638 209.99C458.582 210.17 458.565 210.364 458.582 210.554C458.599 210.745 458.659 210.928 458.75 211.089C458.84 211.25 458.961 211.384 459.102 211.482C459.244 211.58 459.403 211.638 459.567 211.652C459.833 211.692 459.937 211.783 459.915 212.088C459.915 212.256 459.928 212.424 459.954 212.589Z" fill="white"/>
<path d="M466.163 229.457C465.591 228.401 465.247 227.197 465.17 225.951C465.088 224.865 465.054 223.776 465.067 222.686C465.067 221.233 465.191 219.786 465.17 218.334C465.136 217.205 465.045 216.08 464.903 214.963C464.843 214.567 464.727 214.185 464.564 213.831C464.452 213.537 464.258 213.294 464.018 213.142C463.772 212.991 463.493 212.939 463.222 212.995C462.573 213.104 461.945 213.356 461.377 213.736C461.063 213.921 460.762 214.142 460.436 214.357C460.629 214.717 460.883 215.028 461.184 215.27C461.485 215.512 461.825 215.68 462.181 215.764C462.207 216.102 462.143 216.441 461.992 216.733C461.842 217.024 461.618 217.253 461.352 217.387C460.767 217.656 460.143 217.784 459.515 217.763C458.819 217.762 458.135 217.942 457.507 218.288C456.88 218.635 456.329 219.14 455.891 219.766C455.297 220.64 454.859 221.641 454.601 222.711C454.183 224.391 453.93 226.119 453.844 227.864C453.844 228.04 453.818 228.22 453.809 228.4C453.788 228.537 453.792 228.678 453.822 228.811C453.857 228.945 453.913 229.068 453.994 229.171C454.076 229.274 454.175 229.354 454.287 229.404C454.394 229.455 454.515 229.475 454.635 229.462C455.426 229.462 456.217 229.462 457.009 229.462H466.172L466.163 229.457Z" fill="white"/>
<path d="M417.615 255.155C418.028 255.081 418.449 255.113 418.849 255.25C420.445 255.706 422.087 255.38 423.648 254.91C425.514 254.168 427.312 255.41 429.199 255.29C430.735 255.345 432.159 254.113 432.081 252.23C432.068 251.202 431.875 250.188 431.514 249.25C430.224 245.549 431.299 242.534 431.841 238.883H424.56C424.712 241.15 424.755 243.426 424.689 245.699C424.624 247.407 421.498 248.454 420.41 249.455C419.771 250.05 419.003 250.428 418.191 250.547C417.582 250.653 416.996 250.901 416.471 251.278C416.388 251.324 416.294 251.335 416.205 251.309C415.985 251.259 415.758 251.261 415.539 251.315C415.319 251.37 415.111 251.474 414.927 251.624C414.743 251.773 414.587 251.964 414.467 252.185C414.348 252.406 414.267 252.653 414.231 252.911C413.956 255.105 416.149 255.736 417.615 255.155ZM427.178 249.015C427.987 249.966 428.567 248.253 429.221 249.015C429.922 250.517 427.166 251.083 426.447 250.016C426.382 249.964 426.326 249.896 426.284 249.818C426.242 249.738 426.215 249.65 426.204 249.558C426.194 249.466 426.2 249.373 426.222 249.284C426.244 249.194 426.283 249.112 426.334 249.041C426.386 248.971 426.45 248.914 426.521 248.873C426.593 248.833 426.672 248.811 426.751 248.809C426.831 248.806 426.91 248.823 426.984 248.859C427.057 248.894 427.124 248.947 427.178 249.015Z" fill="white"/>
<path d="M498.013 298.3H553.754V218.708H498.013V298.3Z" fill="white"/>
<path d="M509.331 258.51H543.365V223.942H509.331V258.51Z" fill="#00C5B4"/>
<path opacity="0.6" d="M509.331 258.51H543.365V223.942H509.331V258.51Z" fill="white"/>
<path d="M516.267 243.609L515.91 243.825C515.708 243.936 515.527 244.106 515.394 244.317C515.26 244.528 515.17 244.775 515.14 245.036C515.106 245.296 515.127 245.562 515.204 245.809C515.282 246.057 515.411 246.279 515.579 246.454C515.669 246.539 515.738 246.648 515.776 246.773C515.819 246.898 515.828 247.033 515.811 247.165C515.794 247.717 515.811 248.269 515.862 248.818C515.875 248.858 515.897 248.894 515.927 248.922C515.953 248.95 515.987 248.97 516.021 248.978C516.692 248.938 517.367 248.883 518.025 248.833C518.098 248.167 518.279 247.886 518.657 247.801C518.834 247.772 519.014 247.811 519.169 247.913C519.328 248.016 519.449 248.175 519.517 248.367L519.805 248.252L520.119 248.117C520.094 248.012 520.081 247.901 520.089 247.792C520.098 247.682 520.124 247.575 520.167 247.478C520.21 247.38 520.27 247.293 520.343 247.222C520.416 247.152 520.498 247.098 520.588 247.065C520.743 247.006 520.911 247.008 521.065 247.069C521.22 247.131 521.358 247.249 521.448 247.406C521.693 247.35 521.758 247.175 521.74 246.905C521.723 246.634 521.74 246.259 521.74 245.953C521.31 245.903 520.911 245.878 520.511 245.808C520.412 245.799 520.317 245.765 520.231 245.71C520.141 245.655 520.068 245.578 520.008 245.486C519.947 245.394 519.904 245.289 519.883 245.176C519.857 245.063 519.857 244.946 519.874 244.833C519.896 244.72 519.934 244.612 519.99 244.517C520.046 244.423 520.119 244.343 520.205 244.284C520.291 244.225 520.386 244.187 520.485 244.173C520.584 244.16 520.683 244.171 520.777 244.205C521.353 244.296 521.934 244.266 522.497 244.115C523.276 243.965 524.054 243.764 524.837 243.704C525.451 243.612 526.075 243.752 526.617 244.104C527.158 244.455 527.593 245 527.847 245.658C528.431 247.03 529.541 247.661 530.938 247.34C532.607 247.046 534.176 246.244 535.492 245.017C537.483 243.078 538.343 240.634 537.995 237.679C537.84 236.152 537.423 234.676 536.773 233.337C535.982 231.741 534.795 230.46 533.368 229.661C531.742 228.759 529.975 228.248 528.173 228.158C526.174 227.974 524.161 228.142 522.205 228.659C520.313 229.096 518.567 230.156 517.178 231.714C516.099 232.972 515.467 234.656 515.407 236.432C515.359 237.51 515.48 238.589 515.759 239.618C515.785 239.678 515.798 239.744 515.802 239.811C515.806 239.879 515.798 239.946 515.776 240.009C515.755 240.072 515.725 240.13 515.686 240.179C515.647 240.228 515.596 240.267 515.544 240.294C515.406 240.397 515.26 240.498 515.114 240.594C515.011 240.643 514.921 240.721 514.852 240.821C514.783 240.92 514.736 241.037 514.71 241.164C514.688 241.29 514.693 241.42 514.727 241.543C514.757 241.667 514.813 241.78 514.891 241.871C515.256 242.397 515.66 242.873 516.056 243.399C516.12 243.475 516.193 243.545 516.267 243.609ZM518.176 238.706C518.365 238.583 518.58 238.525 518.795 238.538C519.014 238.552 519.221 238.636 519.397 238.781C519.694 238.988 519.96 239.244 520.188 239.542C520.463 239.856 520.678 240.234 520.82 240.65C520.962 241.067 521.031 241.514 521.014 241.961C521.005 242.175 520.949 242.382 520.85 242.562C520.756 242.744 520.618 242.893 520.459 242.996C520.3 243.099 520.119 243.153 519.934 243.152C519.75 243.152 519.569 243.097 519.41 242.993C518.937 242.738 518.524 242.35 518.214 241.862C517.901 241.375 517.698 240.805 517.625 240.204C517.612 239.397 517.789 238.946 518.176 238.706Z" fill="white"/>
<path d="M518.481 250.417L516.138 250.672C516.163 251.068 516.189 251.478 516.215 251.889C516.241 252.283 516.34 252.666 516.508 253.009C516.675 253.352 516.907 253.647 517.187 253.873C517.466 254.098 517.785 254.248 518.12 254.313C518.455 254.377 518.795 254.353 519.122 254.243C520.36 253.872 521.582 253.427 522.811 253.026C523.409 252.831 524.02 252.675 524.617 252.475C525.108 252.338 525.542 252.02 525.864 251.568C526.183 251.116 526.372 250.556 526.393 249.971C526.466 249.059 526.6 248.153 526.677 247.241C526.69 247.001 526.647 246.76 526.557 246.545C526.428 246.13 526.17 245.784 525.839 245.569C525.507 245.355 525.12 245.285 524.751 245.373C524.321 245.418 523.865 245.523 523.422 245.589C523.25 245.589 523.216 245.709 523.22 245.884C523.22 246.445 523.22 247.011 523.22 247.572C523.233 247.755 523.198 247.938 523.121 248.098C523.044 248.258 522.932 248.389 522.79 248.473C522.545 248.629 522.308 248.794 522.067 248.949C522.141 249.56 522.067 249.851 521.711 250.041C521.564 250.137 521.392 250.167 521.229 250.128C521.066 250.088 520.919 249.981 520.816 249.826C520.803 249.793 520.782 249.765 520.756 249.742C520.73 249.719 520.7 249.703 520.67 249.693C520.64 249.684 520.61 249.682 520.58 249.687C520.545 249.693 520.515 249.706 520.489 249.725C520.322 249.806 520.145 249.866 519.939 249.951C519.995 250.111 520.008 250.286 519.978 250.455C519.948 250.623 519.879 250.779 519.776 250.902C519.664 251.014 519.53 251.093 519.389 251.133C518.967 251.223 518.722 251.013 518.481 250.417Z" fill="white"/>
<path d="M503.345 267.33H548.426V264.399H503.345V267.33Z" fill="#00C5B4"/>
<path d="M503.345 273.396H548.426V270.466H503.345V273.396Z" fill="#00C5B4"/>
<path d="M503.345 279.454H548.426V276.524H503.345V279.454Z" fill="#00C5B4"/>
<path d="M503.345 285.515H548.426V282.585H503.345V285.515Z" fill="#00C5B4"/>
<path d="M503.345 291.579H548.426V288.649H503.345V291.579Z" fill="#00C5B4"/>
<path opacity="0.6" d="M503.345 267.33H548.426V264.399H503.345V267.33Z" fill="white"/>
<path opacity="0.6" d="M503.345 273.396H548.426V270.466H503.345V273.396Z" fill="white"/>
<path opacity="0.6" d="M503.345 279.454H548.426V276.524H503.345V279.454Z" fill="white"/>
<path opacity="0.6" d="M503.345 285.515H548.426V282.585H503.345V285.515Z" fill="white"/>
<path opacity="0.6" d="M503.345 291.579H548.426V288.649H503.345V291.579Z" fill="white"/>
<path d="M448.18 269.229H414.369V308.609H448.18V269.229Z" fill="#F4F4F4"/>
<path d="M433.719 276.67H428.834V301.176H433.719V276.67Z" fill="#00C5B4"/>
<path d="M441.795 291.766V286.076H420.755V291.766H441.795Z" fill="#00C5B4"/>
<g opacity="0.2">
<path opacity="0.2" d="M433.719 276.67H428.834V301.176H433.719V276.67Z" fill="white"/>
<path opacity="0.2" d="M441.795 291.765V286.075H420.755V291.765H441.795Z" fill="white"/>
</g>
<path d="M281.65 548.477L305.15 549.174L295.754 541.401C294.993 540.775 294.368 539.953 293.932 538.997C293.495 538.04 293.257 536.973 293.239 535.891L292.809 527.212L280.051 527.262L281.65 548.477Z" fill="#FC9D9D"/>
<path opacity="0.15" d="M284.23 538.466V538.305C284.185 537.855 284.295 537.399 284.537 537.038C284.779 536.683 285.132 536.447 285.52 536.392L293.157 535.11L293.067 533.407H280.39L281.534 547.891L291.777 546.564L288.392 545.017C287.255 544.466 286.267 543.564 285.533 542.412C284.8 541.255 284.35 539.893 284.23 538.466Z" fill="black"/>
<path d="M239.333 547.501H249.894L251.859 526.682L239.389 526.732L239.333 547.501Z" fill="#FC9D9D"/>
<path opacity="0.15" d="M241.986 543.985L242.257 537.594C242.285 537.194 242.426 536.813 242.66 536.513C242.893 536.212 243.205 536.017 243.547 535.947L251.137 534.614L251.322 532.856L239.432 532.912L239.389 547.661L241.986 543.985Z" fill="black"/>
<path d="M313.587 553.005V552.419C313.587 551.488 313.27 550.596 312.705 549.94C312.141 549.284 311.375 548.913 310.577 548.913H306.372C305.483 548.923 304.628 548.523 303.994 547.796L293.261 535.892L289.924 541.005C289.663 541.406 289.327 541.726 288.943 541.957C288.559 542.182 288.136 542.307 287.705 542.317C287.275 542.327 286.848 542.222 286.456 542.012C286.064 541.806 285.718 541.496 285.444 541.11C285.173 540.735 284.838 540.434 284.46 540.224C284.082 540.008 283.67 539.893 283.251 539.883H281.01V552.775L313.587 553.005Z" fill="#3F4249"/>
<path d="M313.586 553.005V554.923H280.906V552.795L313.586 553.005Z" fill="black"/>
<path d="M291.109 539.107L298.376 545.979C298.765 546.344 299.255 546.525 299.753 546.5C300.25 546.469 300.722 546.224 301.077 545.818L301.623 545.177L293.259 535.892C293.041 535.822 292.81 535.832 292.597 535.922C292.384 536.012 292.201 536.177 292.073 536.393L291.213 537.83C291.101 537.995 291.029 538.186 291.005 538.396C290.98 538.601 291.005 538.812 291.075 539.002L291.109 539.107Z" fill="black"/>
<path d="M248.54 538.075H249.4C249.796 538.07 250.179 538.236 250.475 538.541C250.771 538.847 250.958 539.267 251 539.728L251.185 543.56C251.237 544.747 251.502 545.909 251.963 546.97L252.281 547.661C252.86 548.999 253.155 550.476 253.141 551.974V552.67H236.406C236.411 550.767 236.905 548.914 237.825 547.341C238.515 546.169 238.947 544.817 239.08 543.404L239.446 539.573C239.523 539.147 239.725 538.762 240.016 538.491C240.308 538.216 240.671 538.065 241.045 538.07H241.643" fill="#3F4249"/>
<path d="M236.5 552.614H253.188V554.477H236.5V552.614Z" fill="black"/>
<path d="M246.329 536.317H243.861C243.566 536.317 243.275 536.387 243.005 536.527C242.737 536.667 242.497 536.873 242.301 537.133C242.106 537.388 241.961 537.694 241.874 538.019C241.788 538.35 241.763 538.696 241.801 539.036L242.352 544.255C242.442 545.031 242.768 545.742 243.272 546.258C243.776 546.779 244.423 547.069 245.095 547.074C245.778 547.079 246.438 546.789 246.946 546.258C247.454 545.727 247.772 544.991 247.839 544.2L248.342 538.981C248.383 538.646 248.362 538.305 248.28 537.984C248.198 537.659 248.056 537.358 247.864 537.108C247.673 536.853 247.436 536.652 247.172 536.517C246.906 536.377 246.619 536.312 246.329 536.317Z" fill="black"/>
<path d="M249.53 539.778H240.659" stroke="white" stroke-width="1.4" stroke-linecap="round" stroke-linejoin="round"/>
<path d="M249.254 542.232H240.933" stroke="white" stroke-width="1.4" stroke-linecap="round" stroke-linejoin="round"/>
<path d="M249.026 544.626H241.162" stroke="white" stroke-width="1.4" stroke-linecap="round" stroke-linejoin="round"/>
<path d="M299.414 541.557L296.167 545.122" stroke="white" stroke-width="1.4" stroke-linecap="round" stroke-linejoin="round"/>
<path d="M297.677 539.692L294.34 543.369" stroke="white" stroke-width="1.4" stroke-linecap="round" stroke-linejoin="round"/>
<path d="M295.891 537.936L292.602 541.557" stroke="white" stroke-width="1.4" stroke-linecap="round" stroke-linejoin="round"/>
<path d="M288.96 364.016L293.69 533.142H279.951L267.262 394.467C267.224 394.038 267.052 393.64 266.778 393.35C266.504 393.06 266.148 392.897 265.778 392.894C265.399 392.878 265.028 393.032 264.744 393.325C264.459 393.617 264.282 394.026 264.248 394.467L252.324 533.142H238.598V363.069L288.96 364.016Z" fill="#00C5B4"/>
<path d="M238.284 529.687H253.132L252.866 533.142H238.246L238.284 529.687Z" fill="#00C5B4"/>
<path opacity="0.2" d="M238.285 529.687H244.494L244.361 533.142H238.242L238.285 529.687Z" fill="black"/>
<path opacity="0.2" d="M279.861 532.386L267.262 394.491C267.224 394.062 267.052 393.665 266.778 393.375C266.505 393.084 266.149 392.922 265.779 392.918H267.499C269.251 392.935 270.938 393.695 272.246 395.054C273.554 396.413 274.393 398.279 274.607 400.305L287.937 531.284L279.861 532.386Z" fill="black"/>
<path d="M279.276 529.687H293.948L294.129 533.142H279.595L279.276 529.687Z" fill="#00C5B4"/>
<path opacity="0.2" d="M279.276 529.687H287.739L288.143 533.142H279.595L279.276 529.687Z" fill="black"/>
<path opacity="0.2" d="M249.937 364.331L244.493 529.606L238.598 529.556V364.281L249.937 364.331Z" fill="black"/>
<path d="M275.316 298.081L240.851 309.245L237.609 340.742L237.454 404.383H265.013L266.307 392.038L267.408 404.383H291.2L290.172 334.427L275.316 298.081Z" fill="white"/>
<path d="M290.079 327.801L290.174 334.427L291.924 338.699L290.079 327.801Z" fill="white"/>
<path d="M293.768 324.655L248.725 314.699L248.411 304.422L249.082 325.492H252.638V339.695L239.454 341.634C238.366 341.797 237.261 341.704 236.205 341.362C235.148 341.02 234.161 340.435 233.301 339.642C232.441 338.849 231.727 337.862 231.2 336.742C230.672 335.622 230.343 334.39 230.231 333.12L226.989 294.756C226.752 292.012 227.341 289.257 228.654 286.962C229.968 284.667 231.925 282.976 234.191 282.175C250.884 276.255 252.01 276.36 252.01 276.36L270.07 276.255L287.7 279.921C289.431 280.228 291.052 281.101 292.373 282.439C293.695 283.777 294.663 285.525 295.165 287.479L305.73 329.549C307.575 336.68 301.993 343.542 295.784 341.709L293.996 341.068L293.768 324.655Z" fill="white"/>
<path d="M256.426 306.684C255.767 303.29 255.254 299.861 254.891 296.407L255.562 296.302C255.922 299.731 256.431 303.138 257.084 306.509L256.426 306.684Z" fill="#3F4249"/>
<path d="M254.087 306.696C254.13 307.286 254.322 307.849 254.638 308.312C254.955 308.777 255.382 309.121 255.867 309.302C256.351 309.484 256.871 309.495 257.36 309.334C257.85 309.172 258.288 308.846 258.619 308.395C258.949 307.945 259.158 307.391 259.219 306.802C259.28 306.214 259.19 305.617 258.961 305.088C258.732 304.559 258.373 304.121 257.931 303.828C257.488 303.536 256.981 303.403 256.473 303.445C256.133 303.473 255.8 303.58 255.495 303.76C255.19 303.939 254.919 304.187 254.697 304.49C254.475 304.792 254.307 305.143 254.202 305.521C254.097 305.9 254.058 306.299 254.087 306.696Z" fill="#00C5B4"/>
<path d="M255.118 306.6C255.141 306.96 255.256 307.303 255.447 307.588C255.638 307.872 255.897 308.084 256.192 308.196C256.486 308.309 256.802 308.317 257.101 308.219C257.4 308.122 257.666 307.924 257.868 307.649C258.069 307.375 258.197 307.038 258.233 306.679C258.27 306.321 258.214 305.958 258.074 305.636C257.933 305.314 257.713 305.049 257.443 304.873C257.173 304.696 256.863 304.618 256.555 304.646C256.142 304.686 255.76 304.913 255.492 305.279C255.222 305.645 255.088 306.119 255.118 306.6Z" fill="white"/>
<path opacity="0.1" d="M264.398 306.59C264.398 306.59 268.027 345.53 266.307 392.928" stroke="black" stroke-width="0.89" stroke-miterlimit="10"/>
<path d="M252.169 276.33L249.869 276.921L264.398 305.699L271.627 276.605L267.073 275.438" fill="#21252B"/>
<path d="M246.881 313.176C247.418 313.281 249.22 313.281 249.848 313.857L250.841 314.693L252.909 315.169L252.368 325.597L245.664 326.488L244.946 313.021L246.881 313.176Z" fill="#FC9D9D"/>
<path opacity="0.1" d="M281.796 321.93L281.573 299.893C281.574 299.797 281.604 299.704 281.659 299.632C281.714 299.559 281.789 299.513 281.871 299.5C281.953 299.487 282.037 299.509 282.106 299.562C282.175 299.615 282.225 299.695 282.248 299.788L288.005 323.377L281.796 321.93Z" fill="black"/>
<path d="M269.649 251.748C269.649 251.748 253.855 240.229 253.309 254.317L253.085 257.988L252.01 276.459C252.019 276.794 252.1 277.12 252.245 277.409C252.39 277.697 252.595 277.939 252.84 278.112L261.505 284.973C261.64 285.063 261.795 285.1 261.949 285.082C262.104 285.063 262.249 284.988 262.365 284.868L269.111 278.107C269.344 277.891 269.524 277.609 269.635 277.288C269.746 276.966 269.783 276.617 269.743 276.274L268.707 265.321C268.914 264.237 269.018 263.131 269.021 262.02C269.18 256.626 269.649 251.748 269.649 251.748Z" fill="#FC9D9D"/>
<path d="M276.353 246.3C276.354 245.065 276.04 243.858 275.452 242.831C274.864 241.804 274.027 241.004 273.048 240.531C272.068 240.058 270.991 239.934 269.951 240.174C268.911 240.415 267.956 241.01 267.207 241.882C266.457 242.755 265.947 243.868 265.741 245.079C265.534 246.29 265.64 247.545 266.046 248.685C266.452 249.826 267.14 250.8 268.022 251.486C268.903 252.171 269.94 252.537 271 252.536C271.703 252.538 272.4 252.378 273.051 252.066C273.702 251.754 274.293 251.295 274.79 250.715C275.288 250.136 275.682 249.447 275.951 248.689C276.219 247.932 276.356 247.12 276.353 246.3Z" fill="#21252B"/>
<path d="M271.404 241.742C271.404 241.742 276.994 269.097 264.954 270.935C254.514 272.558 253.344 253.636 253.344 253.636L253.774 241.371L271.404 241.742Z" fill="#FC9D9D"/>
<path d="M270.685 243.405L260.017 244.297C259.698 244.32 259.387 244.417 259.102 244.584C258.817 244.751 258.563 244.984 258.357 245.268C258.152 245.552 257.998 245.882 257.904 246.238C257.811 246.593 257.781 246.967 257.815 247.337C257.844 247.706 257.811 248.077 257.715 248.431C257.62 248.784 257.465 249.113 257.26 249.395C257.054 249.678 256.803 249.911 256.519 250.08C256.236 250.248 255.927 250.349 255.609 250.377C255.519 250.378 255.43 250.402 255.347 250.446C255.265 250.49 255.192 250.554 255.132 250.633C255.072 250.712 255.028 250.805 255.001 250.907C254.975 251.007 254.966 251.113 254.977 251.218L255.115 253.943C255.124 254.091 255.084 254.238 255.005 254.353C254.925 254.469 254.811 254.546 254.685 254.569C254.461 254.569 254.147 254.363 254.147 254.098L253.717 251.529L253.266 250.692L250.69 252.535C250.69 252.535 246.597 245.253 248.575 238.647C249.701 234.876 252.875 233.514 254.47 233.248C254.712 233.223 254.946 233.128 255.151 232.973C255.354 232.817 255.522 232.606 255.639 232.357C256.272 231.155 257.755 229.006 261.131 229.161C262.074 229.169 263.001 229.452 263.827 229.983C264.652 230.514 265.351 231.276 265.861 232.201C266.063 232.592 266.382 232.881 266.755 233.017C267.129 233.153 267.533 233.124 267.89 232.938C268.601 232.564 269.38 232.402 270.157 232.465C270.935 232.529 271.687 232.817 272.345 233.303C275.768 235.767 274.375 242.734 270.685 243.405Z" fill="#21252B"/>
<path opacity="0.15" d="M253 258.826C253 258.826 254.036 258.881 254.573 258.355L252.854 261.396L253 258.826Z" fill="black"/>
<path d="M253.583 251.489C253.485 251.142 253.321 250.825 253.104 250.561C252.888 250.297 252.623 250.092 252.33 249.962C252.037 249.831 251.723 249.779 251.41 249.807C251.097 249.836 250.794 249.945 250.522 250.127C247.912 251.489 248.41 258.461 252.865 258.826C255.205 259.037 254.753 257.464 254.349 255.366L253.583 251.489Z" fill="#FC9D9D"/>
<path opacity="0.15" d="M250.342 252.014C250.708 251.708 251.16 251.575 251.606 251.643C251.821 251.705 252.022 251.816 252.199 251.969C252.377 252.122 252.526 252.314 252.638 252.535C252.909 253.136 253.063 253.8 253.09 254.478L253.18 255.104C253.18 255.315 253.09 255.47 252.952 255.47C252.815 255.47 252.638 255.365 252.638 255.209L252.548 254.578C252.531 254.024 252.392 253.484 252.144 253.011C251.92 252.64 251.74 252.38 251.516 252.38C251.366 252.34 251.209 252.342 251.059 252.387C250.909 252.433 250.771 252.519 250.656 252.64C250.475 252.695 250.338 252.695 250.252 252.535C250.209 252.224 250.26 252.064 250.342 252.014Z" fill="black"/>
<path opacity="0.15" d="M269.51 273.134L269.106 268.732C268.074 269.939 265.193 271.667 261.951 270.831C260.325 270.299 258.861 269.245 257.724 267.791C257.704 267.766 257.679 267.745 257.652 267.732C257.624 267.718 257.595 267.711 257.565 267.711C257.535 267.711 257.506 267.718 257.479 267.732C257.451 267.745 257.427 267.766 257.406 267.791C257.365 267.84 257.342 267.905 257.342 267.973C257.342 268.042 257.365 268.108 257.406 268.156C258.857 270.047 260.839 271.274 262.996 271.617C264.909 273.107 267.252 273.653 269.51 273.134Z" fill="black"/>
<g opacity="0.15">
<path opacity="0.15" d="M265.822 265.441C265.325 265.454 264.829 265.506 264.339 265.596C264.255 265.596 264.175 265.558 264.117 265.49C264.058 265.421 264.025 265.328 264.025 265.231C264.025 265.134 264.058 265.041 264.117 264.972C264.175 264.904 264.255 264.865 264.339 264.865C264.805 264.847 265.271 264.793 265.732 264.705C265.775 264.7 265.818 264.705 265.858 264.722C265.898 264.738 265.935 264.765 265.966 264.8C265.996 264.835 266.02 264.877 266.034 264.924C266.049 264.971 266.054 265.021 266.05 265.07C266.141 265.116 265.96 265.326 265.822 265.441Z" fill="black"/>
</g>
<g opacity="0.15">
<path opacity="0.15" d="M266.315 263.754C263.662 264.225 262.493 262.602 262.088 261.751C262.068 261.713 262.054 261.67 262.047 261.626C262.041 261.582 262.042 261.537 262.05 261.494C262.067 261.405 262.113 261.328 262.179 261.28C262.245 261.231 262.324 261.215 262.4 261.235C262.475 261.255 262.542 261.309 262.583 261.385C262.987 262.221 264.303 263.954 267.442 262.747C267.477 262.726 267.516 262.713 267.556 262.709C267.595 262.705 267.635 262.711 267.673 262.725C267.71 262.74 267.745 262.763 267.775 262.793C267.805 262.824 267.829 262.861 267.846 262.902C267.865 262.944 267.876 262.989 267.879 263.036C267.883 263.082 267.878 263.129 267.866 263.173C267.853 263.217 267.833 263.258 267.807 263.294C267.781 263.329 267.749 263.358 267.713 263.378C267.256 263.546 266.789 263.671 266.315 263.754Z" fill="black"/>
</g>
<path d="M264.382 254.529C264.382 254.31 264.326 254.097 264.222 253.916C264.118 253.734 263.97 253.593 263.797 253.51C263.624 253.427 263.433 253.405 263.249 253.448C263.066 253.491 262.897 253.597 262.765 253.751C262.633 253.906 262.543 254.102 262.507 254.317C262.471 254.531 262.491 254.753 262.563 254.954C262.635 255.155 262.757 255.327 262.913 255.447C263.07 255.567 263.253 255.632 263.44 255.631C263.565 255.633 263.688 255.606 263.804 255.552C263.92 255.497 264.025 255.416 264.113 255.314C264.201 255.21 264.27 255.088 264.316 254.953C264.362 254.818 264.385 254.674 264.382 254.529Z" fill="black"/>
<path d="M264.067 254.162C264.077 254.124 264.079 254.082 264.072 254.043C264.066 254.003 264.052 253.966 264.031 253.934C264.01 253.902 263.983 253.876 263.952 253.858C263.921 253.84 263.887 253.83 263.852 253.83C263.818 253.83 263.784 253.84 263.753 253.858C263.722 253.876 263.695 253.902 263.674 253.934C263.653 253.966 263.639 254.003 263.633 254.043C263.626 254.082 263.628 254.124 263.637 254.162C263.628 254.201 263.626 254.242 263.633 254.281C263.639 254.321 263.653 254.358 263.674 254.39C263.695 254.423 263.722 254.449 263.753 254.467C263.784 254.485 263.818 254.494 263.852 254.494C263.887 254.494 263.921 254.485 263.952 254.467C263.983 254.449 264.01 254.423 264.031 254.39C264.052 254.358 264.066 254.321 264.072 254.281C264.079 254.242 264.077 254.201 264.067 254.162Z" fill="white"/>
<path d="M271.808 254.529C271.808 254.311 271.752 254.098 271.648 253.916C271.544 253.735 271.397 253.594 271.224 253.511C271.051 253.427 270.86 253.405 270.677 253.448C270.494 253.49 270.325 253.595 270.193 253.749C270.061 253.904 269.97 254.1 269.934 254.314C269.897 254.527 269.916 254.749 269.987 254.95C270.059 255.152 270.181 255.324 270.336 255.445C270.491 255.566 270.675 255.631 270.862 255.631C270.987 255.634 271.111 255.608 271.227 255.553C271.343 255.499 271.449 255.418 271.537 255.316C271.626 255.212 271.695 255.09 271.741 254.954C271.788 254.819 271.811 254.674 271.808 254.529Z" fill="black"/>
<path d="M271.493 254.163C271.477 254.111 271.448 254.066 271.409 254.034C271.371 254.002 271.325 253.985 271.278 253.985C271.231 253.985 271.185 254.002 271.146 254.034C271.108 254.066 271.078 254.111 271.063 254.163C271.078 254.215 271.108 254.259 271.146 254.291C271.185 254.323 271.231 254.34 271.278 254.34C271.325 254.34 271.371 254.323 271.409 254.291C271.448 254.259 271.477 254.215 271.493 254.163Z" fill="white"/>
<g opacity="0.15">
<path opacity="0.15" d="M267.082 260.974L265.822 261.079C265.642 261.079 265.508 260.974 265.508 260.819C265.508 260.663 265.599 260.453 265.732 260.453L266.992 260.348C267.068 260.341 267.144 260.317 267.212 260.277C267.281 260.237 267.342 260.181 267.393 260.113C267.443 260.045 267.481 259.966 267.506 259.881C267.53 259.796 267.539 259.706 267.534 259.617C267.528 259.527 267.507 259.44 267.473 259.36C267.438 259.28 267.39 259.208 267.332 259.149C267.274 259.091 267.206 259.046 267.133 259.018C267.06 258.99 266.983 258.979 266.906 258.986C266.725 258.986 266.588 258.881 266.588 258.72C266.588 258.56 266.678 258.355 266.816 258.355C267.118 258.331 267.417 258.443 267.651 258.667C267.885 258.892 268.037 259.212 268.075 259.562C268.098 259.732 268.089 259.906 268.051 260.071C268.011 260.238 267.943 260.393 267.849 260.526C267.756 260.659 267.639 260.768 267.507 260.845C267.375 260.922 267.23 260.966 267.082 260.974Z" fill="black"/>
</g>
<path d="M273.115 251.648H259.884C259.515 251.649 259.161 251.82 258.9 252.124C258.639 252.428 258.492 252.841 258.491 253.27V254.527C258.491 255.695 258.889 256.815 259.598 257.641C260.307 258.466 261.268 258.93 262.27 258.93C263.273 258.93 264.234 258.466 264.943 257.641C265.652 256.815 266.05 255.695 266.05 254.527V253.27C266.057 253.087 266.032 252.904 265.978 252.732C265.923 252.56 265.839 252.402 265.732 252.269H267.22C267.023 252.553 266.912 252.905 266.906 253.27V254.527C266.906 255.695 267.304 256.815 268.013 257.641C268.722 258.466 269.683 258.93 270.685 258.93C271.688 258.93 272.649 258.466 273.358 257.641C274.067 256.815 274.465 255.695 274.465 254.527V253.27C274.484 253.056 274.463 252.84 274.403 252.636C274.342 252.432 274.244 252.246 274.116 252.091C273.987 251.937 273.83 251.817 273.658 251.74C273.485 251.663 273.299 251.632 273.115 251.648ZM265.556 253.215V254.477C265.525 255.454 265.17 256.379 264.566 257.058C263.962 257.737 263.155 258.116 262.316 258.116C261.476 258.116 260.669 257.737 260.065 257.058C259.461 256.379 259.106 255.454 259.076 254.477V253.215C259.081 252.952 259.173 252.7 259.333 252.514C259.493 252.328 259.709 252.22 259.936 252.214H264.665C264.885 252.251 265.089 252.367 265.249 252.547C265.409 252.727 265.516 252.961 265.556 253.215ZM274.057 254.527C274.073 255.035 274 255.54 273.845 256.014C273.689 256.488 273.453 256.921 273.15 257.286C272.848 257.652 272.485 257.942 272.084 258.14C271.683 258.339 271.252 258.441 270.817 258.441C270.381 258.441 269.949 258.339 269.549 258.14C269.147 257.942 268.785 257.652 268.483 257.286C268.18 256.921 267.944 256.488 267.788 256.014C267.632 255.54 267.561 255.035 267.577 254.527V253.27C267.583 253.007 267.675 252.757 267.835 252.571C267.995 252.384 268.21 252.276 268.437 252.269H273.21C273.436 252.275 273.651 252.383 273.812 252.569C273.971 252.755 274.064 253.007 274.07 253.27L274.057 254.527Z" fill="black"/>
<path d="M276.714 318.995L283.869 312.179C284.62 311.472 285.557 311.085 286.522 311.082H292.912C293.028 311.069 293.145 311.082 293.256 311.123C293.367 311.163 293.47 311.229 293.558 311.318C293.647 311.405 293.719 311.513 293.77 311.635C293.822 311.756 293.852 311.889 293.858 312.024V312.129C293.855 312.388 293.771 312.636 293.622 312.829C293.474 313.021 293.27 313.145 293.05 313.176L286.66 313.596L294.353 314.803C294.496 314.833 294.631 314.903 294.747 315.006C294.862 315.109 294.955 315.244 295.016 315.397C295.078 315.551 295.107 315.72 295.1 315.889C295.094 316.059 295.053 316.224 294.98 316.371C294.903 316.526 294.793 316.654 294.658 316.743C294.525 316.831 294.373 316.875 294.219 316.872H294.172L292.327 316.717C292.434 316.723 292.54 316.753 292.637 316.807C292.733 316.861 292.82 316.936 292.891 317.03C292.962 317.123 293.017 317.232 293.052 317.351C293.086 317.469 293.101 317.594 293.093 317.718C293.068 317.964 292.967 318.19 292.809 318.353C292.65 318.517 292.445 318.607 292.233 318.605L287.24 318.765L290.298 319.867C290.442 319.94 290.562 320.067 290.64 320.226C290.717 320.387 290.748 320.571 290.728 320.753C290.706 320.93 290.63 321.091 290.514 321.207C290.397 321.323 290.249 321.386 290.096 321.384L286.273 320.964C286.273 320.964 285.327 327.044 278.937 326.938L277.35 327.905L274.968 319.466L276.714 318.995Z" fill="#FC9D9D"/>
<path d="M245.035 315.744L245.62 326.542L275.991 319.1L278.872 328.796L241.032 348.028C239.975 348.569 238.823 348.811 237.67 348.734C236.517 348.656 235.396 348.262 234.399 347.583C233.402 346.904 232.558 345.959 231.935 344.826C231.312 343.694 230.928 342.405 230.815 341.066L229.19 321.534L245.035 315.744Z" fill="white"/>
<path opacity="0.1" d="M242.468 327.486H242.559L249.129 325.598L244.898 301.698C244.886 301.627 244.852 301.562 244.803 301.519C244.753 301.475 244.691 301.455 244.629 301.462C244.567 301.469 244.509 301.503 244.468 301.556C244.426 301.61 244.403 301.68 244.403 301.753L245.53 323.714L242.335 326.719C241.974 327.045 242.197 327.486 242.468 327.486Z" fill="black"/>
<path opacity="0.1" d="M292.55 323.608V324.445L252.865 315.114L252.951 314.538L292.55 323.608Z" fill="black"/>
<path opacity="0.1" d="M291.876 340.167L291.923 340.747L270.853 333.2L271.618 332.624L291.876 340.167Z" fill="black"/>
<path opacity="0.15" d="M286.973 315.69L292.4 316.372V316.872L286.909 316.191L286.973 315.69Z" fill="black"/>
<path d="M252.865 315.114L293.715 324.705L294.799 341.478L251.468 325.126L252.328 325.597L252.865 315.114Z" fill="white"/>
<path opacity="0.1" d="M247.418 277.678L247.203 287.9L250.643 287.454L248.351 291.015L264.782 306.591L248.54 277.292L247.418 277.678Z" fill="black"/>
<path opacity="0.1" d="M249.039 325.598L265.418 335.714L271.627 332.619L252.324 325.608L252.367 324.821L249.039 325.598Z" fill="black"/>
<path opacity="0.1" d="M226.989 294.83L229.242 321.534L230.859 341.032C230.963 342.263 231.296 343.453 231.835 344.519C232.373 345.585 233.105 346.501 233.979 347.204C234.853 347.908 235.848 348.38 236.894 348.59C237.941 348.8 239.014 348.741 240.039 348.419C238.602 347.971 237.316 347.024 236.351 345.705C235.387 344.386 234.79 342.756 234.639 341.032L232.059 317.287L229.81 290.613C229.636 288.456 229.961 286.284 230.751 284.322C229.414 285.561 228.367 287.175 227.709 289.012C227.051 290.85 226.804 292.851 226.989 294.83Z" fill="black"/>
<path opacity="0.1" d="M237.454 404.333H246.88L246.996 353.218C247.044 352.1 247.327 351.012 247.821 350.051C248.315 349.09 249.005 348.286 249.83 347.709L271.626 332.619L245.96 345.461L240.021 348.395C239.213 348.581 238.393 348.686 237.57 348.711L237.454 404.333Z" fill="black"/>
<path d="M273.596 298.466C273.416 309.484 274.302 311.898 275.291 312.88C276.021 313.553 276.874 314.022 277.785 314.252L277.909 313.491L277.845 313.871L277.909 313.491C277.112 313.289 276.364 312.879 275.721 312.294C275.007 311.583 274.078 309.379 274.259 298.481L273.596 298.466Z" fill="#B2B6BB"/>
<path d="M276.905 313.263L276.784 313.78C276.714 314.076 276.864 314.382 277.118 314.463L278.412 314.875C278.667 314.956 278.929 314.782 278.998 314.485L279.12 313.968C279.189 313.672 279.04 313.367 278.785 313.286L277.491 312.873C277.237 312.792 276.974 312.967 276.905 313.263Z" fill="#00C5B4"/>
<path d="M279.448 297.083C282.837 304.381 284.152 308.532 283.589 310.135C283.247 310.999 282.745 311.764 282.118 312.374L282.527 312.98C283.246 312.291 283.82 311.419 284.204 310.431C284.875 308.517 283.666 304.546 280.029 296.718L279.448 297.083Z" fill="#B2B6BB"/>
<path d="M281.206 313.468L281.518 313.862C281.697 314.088 281.999 314.103 282.192 313.895L283.18 312.837C283.374 312.629 283.387 312.277 283.208 312.052L282.897 311.657C282.718 311.431 282.416 311.417 282.222 311.624L281.235 312.682C281.041 312.89 281.028 313.242 281.206 313.468Z" fill="#00C5B4"/>
<path d="M280.183 296.328C279.529 294.686 278.79 293.092 277.969 291.555C277.534 290.895 276.955 290.385 276.292 290.077C276.163 290.077 275.943 288.77 275.784 287.678C275.647 286.712 275.501 285.59 275.243 285.339C275.101 285.232 274.928 285.191 274.762 285.228C274.595 285.264 274.447 285.374 274.348 285.535C274.185 285.88 274.404 286.987 274.572 287.944C274.765 289.025 274.976 290.358 274.847 290.393C274.367 290.985 274.015 291.703 273.824 292.486C273.547 294.306 273.389 296.148 273.351 297.995C273.351 299.162 273.716 299.212 274.008 299.242C274.438 299.288 274.61 298.912 274.658 297.6C274.731 295.521 274.658 292.091 275.819 291.76C277.001 291.57 278.188 294.905 278.962 296.733C279.448 297.875 279.689 297.93 280.067 297.735C280.334 297.57 280.592 297.349 280.183 296.328Z" fill="#00C5B4"/>
<path d="M274.077 281.538L273.461 281.761L274.417 285.333L275.033 285.11L274.077 281.538Z" fill="#3F4249"/>
<path d="M248.107 277.463L247.969 287.008H251.405L249.113 290.569L264.399 305.7L249.878 276.776L248.107 277.463Z" fill="white"/>
<path opacity="0.1" d="M273.935 276.73L276.077 285.66L273.006 286.15L275.677 288.695L264.398 306.589L272.89 276.68L273.935 276.73Z" fill="black"/>
<path d="M273.299 276.716L275.243 285.075L272.259 285.956L274.929 288.5L264.558 305.709L271.631 276.565L273.299 276.716Z" fill="white"/>
<path opacity="0.1" d="M287.704 373.677L280.252 376.462L272.805 373.677V354.655H287.704V373.677Z" fill="black"/>
<path d="M286.938 372.901L280.252 375.57L273.565 372.901V354.655H286.938V372.901Z" fill="white"/>
<path d="M381.913 543.599L360.692 549.499L367.912 540.284C369.129 538.736 370.367 536.748 370.062 534.679L369.658 527.002L381.298 524.172L381.913 543.599Z" fill="#FC9D9D"/>
<path opacity="0.15" d="M379.306 535.126L379.28 534.98C379.265 534.77 379.214 534.56 379.13 534.369C379.046 534.184 378.93 534.014 378.79 533.878C378.649 533.738 378.487 533.638 378.312 533.573C378.137 533.508 377.953 533.488 377.771 533.508L370.07 534.219L369.863 532.626L381.25 529.807L381.899 543.054L372.379 544.161L375.187 541.972C377.109 540.454 379.62 537.785 379.306 535.126Z" fill="black"/>
<path d="M382.588 538.847L384.355 548.528C384.426 548.899 384.433 549.279 384.375 549.655C384.318 550.026 384.196 550.381 384.019 550.702C383.842 551.017 383.611 551.293 383.342 551.503C383.072 551.718 382.769 551.864 382.45 551.939L370.612 554.874H353.412C353.278 554.909 353.139 554.914 353.004 554.884C352.868 554.854 352.739 554.798 352.624 554.708C352.508 554.623 352.409 554.508 352.332 554.378C352.255 554.243 352.201 554.092 352.174 553.937C351.968 552.81 352.072 551.633 352.47 550.576C352.868 549.525 353.54 548.638 354.393 548.052L362.597 546.445L367.856 538.782C368.196 538.311 368.666 537.996 369.184 537.885C369.703 537.775 370.238 537.88 370.698 538.181L374.959 540.9C375.271 541.086 375.616 541.181 375.966 541.181C376.315 541.181 376.66 541.086 376.972 540.9L381.212 538.106C381.34 538.016 381.485 537.966 381.634 537.956C381.783 537.951 381.931 537.981 382.067 538.056C382.202 538.126 382.321 538.236 382.411 538.376C382.502 538.516 382.562 538.677 382.588 538.847Z" fill="#3F4249"/>
<path opacity="0.5" d="M382.45 551.918L370.514 554.873H353.412C353.278 554.908 353.139 554.913 353.004 554.883C352.869 554.853 352.74 554.798 352.624 554.708C352.509 554.623 352.409 554.507 352.332 554.377C352.255 554.242 352.201 554.092 352.174 553.937C352.097 553.536 352.065 553.125 352.079 552.714L369.383 552.664L384.394 548.948C384.44 549.634 384.267 550.316 383.908 550.866C383.55 551.412 383.031 551.788 382.45 551.918Z" fill="black"/>
<path d="M368.725 542.629C368.757 542.619 368.787 542.604 368.812 542.579C368.837 542.554 368.858 542.524 368.871 542.488C368.9 542.418 368.907 542.338 368.894 542.263C368.879 542.183 368.844 542.113 368.793 542.063L366.682 540.34C366.626 540.315 366.564 540.31 366.506 540.335C366.448 540.355 366.398 540.395 366.364 540.455C366.33 540.515 366.314 540.585 366.319 540.655C366.323 540.725 366.348 540.791 366.39 540.841L368.501 542.564C368.567 542.614 368.646 542.639 368.725 542.629Z" fill="white"/>
<path d="M367.599 544.201C367.63 544.191 367.659 544.176 367.685 544.151C367.71 544.131 367.731 544.101 367.745 544.066C367.774 543.996 367.782 543.915 367.768 543.835C367.754 543.76 367.719 543.685 367.667 543.635L365.556 541.917C365.494 541.882 365.425 541.872 365.358 541.892C365.292 541.907 365.231 541.947 365.186 542.007C365.158 542.077 365.15 542.158 365.164 542.238C365.179 542.313 365.216 542.383 365.268 542.433L367.379 544.156C367.445 544.201 367.523 544.221 367.599 544.201Z" fill="white"/>
<path d="M366.428 545.758C366.46 545.748 366.49 545.733 366.515 545.713C366.541 545.688 366.561 545.658 366.574 545.623C366.604 545.553 366.612 545.468 366.598 545.393C366.584 545.313 366.548 545.243 366.497 545.193L364.386 543.475C364.324 543.44 364.255 543.43 364.188 543.45C364.121 543.465 364.061 543.505 364.016 543.565C363.987 543.635 363.979 543.72 363.994 543.795C364.009 543.875 364.045 543.946 364.098 543.996L366.209 545.713C366.275 545.758 366.353 545.779 366.428 545.758Z" fill="white"/>
<path d="M365.84 379.862L358.513 453.9L368.411 532.325H383.066L377.919 453.9L389.404 404.082L387.821 378.249L365.84 379.862Z" fill="#00C5B4"/>
<path d="M409.034 546.459L387.22 547.095L395.928 539.828C397.394 538.606 397.919 536.708 398 534.609L397.57 526.661L409.46 526.711L409.034 546.459Z" fill="#FC9D9D"/>
<path opacity="0.15" d="M406.604 537.194V537.048C406.627 536.838 406.614 536.623 406.565 536.417C406.516 536.212 406.433 536.017 406.32 535.851C406.206 535.681 406.066 535.541 405.905 535.441C405.745 535.336 405.569 535.27 405.387 535.245L397.75 534.073L397.832 532.466H409.472L409.136 545.923L399.633 544.701L402.772 543.239C403.827 542.738 404.743 541.911 405.419 540.845C406.095 539.778 406.505 538.516 406.604 537.194Z" fill="black"/>
<path opacity="0.2" d="M383.852 545.768C383.852 545.768 376.327 548.182 376.933 553.28L384.85 550.916L383.852 545.768Z" fill="black"/>
<path d="M410.539 541.972V551.873C410.542 552.254 410.48 552.624 410.357 552.975C410.234 553.326 410.052 553.646 409.822 553.912C409.593 554.182 409.319 554.392 409.019 554.538C408.718 554.678 408.395 554.753 408.07 554.748H379.136C378.998 554.748 378.862 554.718 378.735 554.658C378.607 554.598 378.492 554.508 378.394 554.392C378.297 554.282 378.22 554.147 378.168 553.997C378.116 553.852 378.09 553.691 378.091 553.531C378.092 552.379 378.403 551.252 378.982 550.316C379.561 549.379 380.377 548.678 381.316 548.312L387.848 545.808L396.138 538.351C396.554 537.975 397.069 537.78 397.595 537.795C398.121 537.815 398.626 538.04 399.023 538.446L402.708 542.102C402.978 542.362 403.298 542.543 403.641 542.633C403.984 542.718 404.339 542.708 404.678 542.603L409.326 540.895C409.469 540.84 409.621 540.82 409.77 540.85C409.919 540.88 410.06 540.95 410.18 541.055C410.3 541.16 410.395 541.301 410.458 541.461C410.521 541.621 410.548 541.796 410.539 541.972Z" fill="#3F4249"/>
<path opacity="0.5" d="M408.07 554.748H379.136C378.998 554.748 378.862 554.718 378.735 554.658C378.607 554.597 378.492 554.507 378.394 554.392C378.297 554.282 378.22 554.147 378.168 553.996C378.116 553.851 378.09 553.691 378.091 553.531C378.09 553.12 378.131 552.709 378.216 552.309H410.496C410.419 552.99 410.13 553.616 409.683 554.067C409.236 554.517 408.662 554.758 408.07 554.748Z" fill="black"/>
<path d="M396.305 542.312C396.338 542.312 396.369 542.302 396.398 542.287C396.427 542.267 396.453 542.247 396.473 542.217C396.513 542.152 396.535 542.077 396.535 541.997C396.535 541.917 396.513 541.841 396.473 541.776L394.714 539.583C394.659 539.538 394.593 539.513 394.525 539.513C394.457 539.513 394.391 539.538 394.336 539.583C394.294 539.648 394.271 539.723 394.271 539.803C394.271 539.883 394.294 539.958 394.336 540.024L396.095 542.217C396.152 542.277 396.228 542.312 396.305 542.312Z" fill="white"/>
<path d="M394.92 543.585C394.953 543.585 394.985 543.575 395.014 543.555C395.043 543.54 395.069 543.515 395.088 543.485C395.13 543.42 395.152 543.344 395.152 543.264C395.152 543.184 395.13 543.109 395.088 543.044L393.329 540.85C393.275 540.805 393.21 540.78 393.142 540.78C393.075 540.78 393.009 540.805 392.955 540.85C392.913 540.916 392.891 540.991 392.891 541.071C392.891 541.151 392.913 541.226 392.955 541.291L394.714 543.485C394.769 543.545 394.843 543.585 394.92 543.585Z" fill="white"/>
<path d="M393.502 544.826C393.534 544.826 393.565 544.816 393.594 544.801C393.622 544.781 393.647 544.756 393.665 544.726C393.707 544.661 393.73 544.586 393.73 544.506C393.73 544.425 393.707 544.35 393.665 544.285L391.911 542.092C391.856 542.047 391.79 542.021 391.722 542.021C391.654 542.021 391.588 542.047 391.533 542.092C391.491 542.157 391.468 542.232 391.468 542.312C391.468 542.392 391.491 542.467 391.533 542.532L393.291 544.726C393.349 544.791 393.423 544.826 393.502 544.826Z" fill="white"/>
<path opacity="0.2" d="M385.77 403.276L372.771 454.361L378.155 532.321H383.461L377.992 454.992L389.021 405.885L388.544 403.351C388.475 402.987 388.304 402.66 388.057 402.424C387.81 402.187 387.502 402.053 387.182 402.044C386.863 402.036 386.549 402.153 386.294 402.376C386.037 402.599 385.853 402.916 385.77 403.276Z" fill="black"/>
<path d="M410.724 376.757V532.326H396.534L383.789 378.4L410.724 376.757Z" fill="#00C5B4"/>
<path opacity="0.2" d="M365.315 385.496L410.723 380.743L410.844 377.813L365.677 381.615L365.315 385.496Z" fill="black"/>
<path d="M392.676 286.912L376.83 286.477L361.832 291.986C360.426 292.395 359.163 293.302 358.217 294.581C357.271 295.859 356.688 297.447 356.547 299.128L353.86 328.907L365.147 330.52L364.253 381.71L411.781 378.48L413.466 327.735L420.2 326.353L414.55 296.558C414.23 294.879 413.481 293.351 412.401 292.177C411.321 291.004 409.961 290.238 408.5 289.982L392.676 286.912Z" fill="#00C5B4"/>
<path d="M377.49 280.692C376.857 281.182 376.092 281.383 375.34 281.258C371.844 280.988 369.191 280.732 368.584 276.696C367.69 270.34 367.724 256.056 371.427 247.497C374.553 248.96 375.082 249.721 375.082 249.721C375.082 249.721 379.382 247.662 379.468 247.597C379.45 247.542 383.166 275.419 377.49 280.692Z" fill="#21252B"/>
<path d="M387.998 275.379L387.702 241.001C389.168 240.566 391.726 242.584 392.5 243.425C398.688 250.242 401.285 265.437 401.324 275.769C401.367 279.776 399.221 280.542 395.932 281.669C392.642 282.796 388.764 283.607 387.16 281.814C386.377 280.863 387.998 275.379 387.998 275.379Z" fill="#21252B"/>
<path d="M392.245 286.882L390.525 266.378L377.582 272.889L376.929 286.782L382.721 297.375C382.817 297.55 382.947 297.697 383.1 297.802C383.253 297.908 383.426 297.971 383.604 297.985C383.782 297.998 383.961 297.963 384.124 297.881C384.289 297.799 384.433 297.674 384.548 297.515L392.245 286.882Z" fill="#FC9D9D"/>
<path opacity="0.15" d="M377.32 277.707L377.526 274.341L382.372 275.503L382.329 275.563C383.622 275.356 384.869 274.871 386.01 274.136C386.088 274.085 386.18 274.072 386.266 274.099C386.352 274.127 386.424 274.193 386.468 274.283C386.512 274.374 386.524 274.481 386.5 274.581C386.476 274.681 386.419 274.766 386.341 274.817C385.049 275.662 383.622 276.192 382.149 276.374C381.964 276.374 381.775 276.409 381.581 276.414C379.818 277.962 377.32 277.707 377.32 277.707Z" fill="black"/>
<path d="M380.394 340.523L379.299 339.787L372.559 353.385L373.653 354.121L380.394 340.523Z" fill="#21252B"/>
<path d="M381.531 275.509H382.189C387.056 275.423 391.055 270.26 390.935 264.49L390.694 249.851C390.68 248.932 390.356 248.057 389.793 247.414C389.23 246.77 388.473 246.41 387.684 246.41L376.156 246.57C375.651 246.581 375.153 246.709 374.69 246.947C374.228 247.184 373.811 247.526 373.463 247.953C373.115 248.38 372.844 248.883 372.665 249.433C372.485 249.984 372.402 250.57 372.419 251.158L372.647 264.796C372.78 270.5 376.461 275.764 381.531 275.509Z" fill="#FC9D9D"/>
<path d="M382.097 268.206L381.826 268.827C381.648 269.192 381.397 269.502 381.093 269.728C380.789 269.953 380.442 270.089 380.083 270.123C379.723 270.156 379.362 270.087 379.031 269.92C378.7 269.754 378.409 269.495 378.184 269.168L377.754 268.526C377.668 268.386 377.715 268.196 377.861 268.201L381.916 267.93C382.054 267.88 382.153 268.071 382.097 268.206Z" fill="white"/>
<path d="M382.626 262.712C382.434 262.753 382.237 262.727 382.058 262.637C381.879 262.547 381.727 262.397 381.621 262.206C381.516 262.016 381.46 261.793 381.463 261.566C381.467 261.34 381.528 261.119 381.638 260.932C381.749 260.745 381.905 260.601 382.087 260.518C382.268 260.434 382.466 260.416 382.656 260.464C382.847 260.511 383.021 260.624 383.156 260.787C383.292 260.95 383.383 261.157 383.417 261.38C383.463 261.679 383.405 261.986 383.257 262.236C383.108 262.485 382.882 262.656 382.626 262.712Z" fill="#21252B"/>
<path d="M382.055 261.906C382.031 261.911 382.007 261.911 381.983 261.905C381.959 261.899 381.936 261.888 381.916 261.872C381.896 261.856 381.879 261.835 381.865 261.811C381.852 261.788 381.843 261.761 381.838 261.733C381.834 261.705 381.834 261.676 381.839 261.648C381.844 261.62 381.854 261.594 381.868 261.571C381.881 261.547 381.899 261.527 381.919 261.512C381.94 261.496 381.963 261.485 381.987 261.48C382.011 261.474 382.036 261.474 382.06 261.48C382.085 261.486 382.107 261.497 382.128 261.513C382.149 261.53 382.166 261.551 382.179 261.575C382.192 261.599 382.202 261.627 382.206 261.655C382.213 261.711 382.202 261.769 382.174 261.816C382.146 261.862 382.103 261.895 382.055 261.906Z" fill="white"/>
<path d="M375.101 262.938C374.91 262.977 374.714 262.951 374.536 262.861C374.358 262.77 374.208 262.621 374.103 262.431C373.998 262.241 373.944 262.019 373.947 261.793C373.951 261.567 374.012 261.348 374.122 261.162C374.233 260.977 374.388 260.834 374.569 260.751C374.749 260.668 374.946 260.65 375.136 260.698C375.325 260.746 375.498 260.858 375.633 261.021C375.768 261.183 375.858 261.388 375.892 261.611C375.916 261.758 375.914 261.91 375.887 262.057C375.86 262.204 375.808 262.343 375.734 262.466C375.661 262.59 375.567 262.695 375.458 262.775C375.35 262.857 375.228 262.912 375.101 262.938Z" fill="#21252B"/>
<path d="M374.474 262.071C374.45 262.076 374.425 262.075 374.401 262.069C374.378 262.063 374.355 262.052 374.335 262.035C374.315 262.019 374.298 261.998 374.285 261.974C374.272 261.951 374.263 261.924 374.259 261.896C374.253 261.854 374.257 261.81 374.272 261.772C374.287 261.733 374.311 261.7 374.342 261.677C374.373 261.654 374.409 261.643 374.445 261.644C374.482 261.645 374.517 261.658 374.547 261.683C374.577 261.707 374.6 261.741 374.613 261.781C374.627 261.82 374.63 261.863 374.622 261.905C374.614 261.947 374.596 261.985 374.57 262.014C374.543 262.044 374.51 262.063 374.474 262.071Z" fill="white"/>
<g opacity="0.15">
<path opacity="0.15" d="M379.205 266.327L380.495 266.192C380.641 266.192 380.787 266.012 380.74 265.857C380.693 265.701 380.585 265.516 380.452 265.571L379.162 265.706C379.086 265.715 379.01 265.707 378.938 265.681C378.865 265.656 378.798 265.614 378.739 265.559C378.68 265.503 378.631 265.434 378.596 265.356C378.56 265.279 378.537 265.194 378.53 265.105C378.522 265.018 378.529 264.929 378.551 264.844C378.573 264.76 378.609 264.681 378.657 264.613C378.705 264.545 378.764 264.488 378.83 264.446C378.897 264.404 378.97 264.378 379.046 264.369C379.196 264.369 379.338 264.189 379.291 264.034C379.244 263.878 379.136 263.693 379.007 263.748C378.704 263.789 378.426 263.965 378.233 264.24C378.039 264.515 377.946 264.867 377.971 265.221C377.989 265.388 378.036 265.549 378.108 265.695C378.18 265.841 378.276 265.969 378.391 266.072C378.505 266.175 378.637 266.25 378.776 266.294C378.916 266.338 379.061 266.349 379.205 266.327Z" fill="black"/>
</g>
<path d="M382.377 347.803L376.435 344.112L371.873 344.147L385.504 356.568L382.377 347.803Z" fill="#FC9D9D"/>
<path d="M370.102 253.332L369.59 253.387C372.274 237.831 386.292 236.399 392.552 243.476C396.328 247.763 398.387 255.195 398.387 255.195C397.497 258.14 394.608 260.704 393.786 262.758C393.438 263.674 392.226 259.703 391.576 259.252C391.477 259.212 390.802 260.158 390.338 260.814C390.278 260.912 390.195 260.987 390.099 261.031C390.003 261.075 389.899 261.086 389.798 261.062C389.697 261.039 389.604 260.981 389.53 260.897C389.457 260.813 389.406 260.706 389.383 260.589C389.012 258.716 388.918 256.784 389.104 254.875L389.297 253.157C386.081 252.31 376.328 249.06 374.17 248.479C373.637 248.319 373.25 249.29 373.155 249.901L372.093 259.021L370.661 254.529L370.102 253.332Z" fill="#21252B"/>
<path d="M389.67 266.444C389.67 266.444 393.85 267.626 395.393 262.938C396.937 258.25 391.902 256.372 390.457 261.125L389.167 266.359L389.67 266.444Z" fill="#FC9D9D"/>
<path opacity="0.15" d="M394.46 260.058C394.307 259.858 394.117 259.698 393.906 259.59C393.695 259.481 393.466 259.428 393.235 259.432C393.003 259.455 392.779 259.538 392.578 259.673C392.378 259.809 392.205 259.995 392.074 260.218C391.705 260.752 391.451 261.38 391.334 262.051L391.231 262.552C391.171 262.943 391.704 263.158 391.807 262.707L391.906 262.151C392.005 261.608 392.203 261.096 392.486 260.649C392.578 260.511 392.692 260.396 392.822 260.31C392.952 260.224 393.095 260.169 393.243 260.148C393.56 260.176 393.857 260.338 394.077 260.604C394.13 260.656 394.197 260.685 394.267 260.685C394.336 260.685 394.403 260.656 394.456 260.604C394.51 260.528 394.541 260.431 394.542 260.332C394.543 260.233 394.514 260.136 394.46 260.058Z" fill="black"/>
<path d="M351.881 350.573L362.769 358.201L353.769 348.314L351.881 350.573Z" fill="#DADDDF"/>
<path d="M370.746 261.385C370.738 261.981 370.832 262.573 371.021 263.128C371.21 263.682 371.491 264.188 371.847 264.616C372.204 265.045 372.63 265.386 373.1 265.623C373.57 265.859 374.076 265.986 374.588 265.995C375.1 266.003 375.609 265.894 376.085 265.675C376.561 265.455 376.995 265.127 377.363 264.712C377.731 264.296 378.024 263.801 378.227 263.253C378.43 262.705 378.539 262.116 378.546 261.52C378.559 260.688 378.379 259.868 378.026 259.146C378.655 258.889 379.336 258.861 379.978 259.066C379.818 259.53 379.738 260.027 379.742 260.528C379.73 261.426 379.947 262.309 380.366 263.063C380.784 263.818 381.386 264.411 382.094 264.767C382.802 265.124 383.585 265.227 384.343 265.066C385.102 264.904 385.803 264.484 386.356 263.859C386.91 263.234 387.292 262.431 387.454 261.552C387.617 260.674 387.551 259.76 387.267 258.924C386.983 258.089 386.493 257.371 385.858 256.86C385.224 256.35 384.473 256.07 383.702 256.056C382.984 256.06 382.28 256.29 381.665 256.72C381.05 257.151 380.546 257.768 380.206 258.505C379.409 258.223 378.553 258.274 377.785 258.65C377.43 258.11 376.975 257.67 376.454 257.364C375.933 257.058 375.359 256.893 374.775 256.882C373.735 256.881 372.734 257.349 371.982 258.188C371.232 259.028 370.788 260.173 370.746 261.385ZM380.275 260.553C380.283 259.77 380.492 259.008 380.873 258.362C381.254 257.717 381.79 257.218 382.415 256.928C383.039 256.638 383.724 256.571 384.381 256.734C385.039 256.898 385.64 257.285 386.109 257.847C386.577 258.409 386.892 259.12 387.013 259.89C387.134 260.66 387.056 261.455 386.79 262.174C386.523 262.893 386.079 263.504 385.514 263.928C384.949 264.352 384.288 264.572 383.616 264.56C382.719 264.539 381.864 264.106 381.238 263.356C380.613 262.606 380.267 261.599 380.275 260.553ZM371.314 261.339C371.322 260.556 371.53 259.794 371.911 259.148C372.292 258.503 372.829 258.004 373.454 257.714C374.078 257.424 374.763 257.357 375.42 257.521C376.078 257.684 376.679 258.071 377.147 258.633C377.616 259.195 377.93 259.906 378.052 260.676C378.173 261.447 378.095 262.241 377.829 262.961C377.562 263.679 377.117 264.29 376.552 264.714C375.988 265.139 375.327 265.359 374.655 265.346C374.208 265.343 373.767 265.236 373.357 265.032C372.946 264.828 372.574 264.531 372.263 264.158C371.952 263.785 371.708 263.344 371.545 262.86C371.382 262.376 371.303 261.859 371.314 261.339Z" fill="white"/>
<path d="M391.081 265.903C390.91 265.926 390.738 265.888 390.586 265.796C390.434 265.703 390.309 265.56 390.227 265.384C390.146 265.208 390.111 265.008 390.128 264.809C390.145 264.61 390.213 264.421 390.323 264.268C390.432 264.114 390.579 264.002 390.744 263.946C390.909 263.89 391.084 263.893 391.247 263.955C391.411 264.016 391.554 264.132 391.661 264.29C391.766 264.446 391.83 264.637 391.842 264.837C391.858 265.094 391.788 265.349 391.646 265.548C391.504 265.747 391.301 265.874 391.081 265.903Z" fill="#00C5B4"/>
<path opacity="0.15" d="M390.642 265.676C390.882 265.721 391.127 265.654 391.324 265.489C391.521 265.324 391.655 265.074 391.695 264.795C391.727 264.595 391.711 264.389 391.648 264.199C391.744 264.307 391.818 264.44 391.863 264.587C391.908 264.734 391.922 264.891 391.906 265.046C391.894 265.176 391.858 265.302 391.802 265.415C391.745 265.529 391.669 265.627 391.578 265.704C391.487 265.781 391.382 265.835 391.272 265.862C391.162 265.889 391.048 265.889 390.938 265.862C390.77 265.835 390.616 265.735 390.508 265.582C390.5 265.692 390.547 265.686 390.642 265.676Z" fill="black"/>
<path opacity="0.15" d="M390.526 266.564L389.051 266.344L390.509 270.395L390.526 266.564Z" fill="black"/>
<path d="M373.146 250.101C380.886 247.397 380.503 258.23 388.523 255.776C396.039 253.467 388.411 245.133 388.411 245.133L381.566 244.688L372.579 246.786L373.146 250.101Z" fill="#21252B"/>
<path d="M390.525 266.563C390.525 266.563 389.863 275.774 386.264 282.35C386.264 282.35 391.88 283.261 396.025 281.659C399.848 280.196 390.525 266.563 390.525 266.563Z" fill="#21252B"/>
<path opacity="0.2" d="M413.371 341.067L403.365 309.439L402.075 309.885C401.826 309.971 401.613 310.16 401.475 310.417C401.337 310.673 401.284 310.979 401.327 311.278L405.971 343.942L405.717 378.88L411.767 378.379L413.371 341.067Z" fill="black"/>
<path d="M418.782 321.42L422.441 342.655C422.681 344.08 422.428 345.558 421.737 346.767C421.046 347.976 419.973 348.819 418.752 349.111L384.352 355.646L382.176 348.034L409.107 337.887L406.729 324.97L418.782 321.42Z" fill="#DADDDF"/>
<path d="M365.818 351.771L365.147 330.505L355.928 329.198L355.842 351.035" fill="#DADDDF"/>
<path opacity="0.15" d="M361.368 329.91L361.385 349.648L365.754 349.768L364.95 330.276L361.368 329.91Z" fill="black"/>
<path d="M401.981 309.746L405.941 330.045L420.596 326.354L416.468 306.666L401.981 309.746Z" fill="#00C5B4"/>
<path d="M347.461 338.849L346.236 336.735H361.798L363.066 338.849H347.461Z" fill="#00C5B4"/>
<path d="M391.92 361.641H366.533L341.979 338.117H367.401L391.92 361.641Z" fill="#3F4249"/>
<path opacity="0.3" d="M391.92 361.641H366.533L341.979 338.117H367.401L391.92 361.641Z" fill="black"/>
<path d="M391.881 361.642H391.09V362.333H391.881V361.642Z" fill="#3F4249"/>
<path opacity="0.3" d="M391.881 361.642H391.09V362.333H391.881V361.642Z" fill="black"/>
<path d="M341.583 338.808V338.117H342.654L342.77 339.039L341.583 338.808Z" fill="#3F4249"/>
<path opacity="0.3" d="M341.583 338.808V338.117H342.654L342.77 339.039L341.583 338.808Z" fill="black"/>
<path d="M391.919 362.333H367.289L341.544 338.809H367.362L391.919 362.333Z" fill="#3F4249"/>
<path opacity="0.2" d="M364.949 330.274V313.02C364.949 312.924 364.933 312.829 364.902 312.74C364.87 312.652 364.824 312.571 364.766 312.503C364.707 312.435 364.638 312.382 364.562 312.345C364.486 312.308 364.404 312.289 364.322 312.289C364.167 312.289 364.018 312.355 363.903 312.473C363.787 312.593 363.713 312.757 363.694 312.935L361.806 330.089L364.949 330.274Z" fill="black"/>
<path d="M343.699 341.449C343.699 341.449 344.194 348.461 351.095 350.644L353.77 348.315L347.836 341.304L343.699 341.449Z" fill="#FC9D9D"/>
<path opacity="0.15" d="M343.699 341.449C343.699 341.449 344.194 348.461 351.095 350.644L353.77 348.315L347.836 341.304L343.699 341.449Z" fill="black"/>
<path d="M348.235 341.268L344.047 341.433C343.81 341.441 343.582 341.544 343.402 341.723C343.283 341.841 343.188 341.987 343.123 342.152C343.059 342.316 343.027 342.496 343.029 342.677C343.031 342.858 343.068 343.037 343.138 343.199C343.206 343.362 343.305 343.504 343.428 343.617C343.667 343.838 343.945 343.997 344.242 344.083C344.538 344.169 344.847 344.182 345.148 344.117L349.667 343.116C349.772 343.088 349.868 343.026 349.944 342.937C350.02 342.849 350.073 342.737 350.097 342.615C350.118 342.495 350.111 342.371 350.075 342.256C350.039 342.141 349.977 342.04 349.895 341.964C349.429 341.512 348.841 341.266 348.235 341.268Z" fill="#FC9D9D"/>
<path d="M349.892 343.166L345.359 344.573C345.126 344.62 344.912 344.758 344.753 344.964C344.65 345.099 344.573 345.259 344.53 345.433C344.486 345.606 344.476 345.789 344.5 345.968C344.524 346.146 344.582 346.317 344.67 346.466C344.758 346.616 344.873 346.741 345.007 346.832C345.273 347.011 345.568 347.123 345.874 347.158C346.179 347.194 346.488 347.152 346.778 347.037L351.534 344.703C351.64 344.663 351.732 344.586 351.799 344.483C351.867 344.381 351.907 344.256 351.913 344.127C351.919 344.006 351.896 343.885 351.848 343.778C351.799 343.67 351.726 343.58 351.637 343.516C351.109 343.163 350.491 343.039 349.892 343.166Z" fill="#FC9D9D"/>
<path d="M351.74 344.809L347.372 346.813C347.144 346.893 346.946 347.058 346.808 347.284C346.718 347.431 346.658 347.6 346.631 347.778C346.604 347.957 346.612 348.139 346.653 348.314C346.694 348.488 346.768 348.65 346.869 348.787C346.97 348.924 347.096 349.033 347.238 349.107C347.518 349.255 347.821 349.331 348.128 349.331C348.435 349.331 348.739 349.255 349.018 349.107L353.516 346.162C353.616 346.106 353.7 346.018 353.757 345.907C353.815 345.797 353.843 345.67 353.839 345.541C353.834 345.418 353.8 345.301 353.741 345.2C353.682 345.099 353.599 345.019 353.503 344.97C352.951 344.674 352.326 344.617 351.74 344.809Z" fill="#FC9D9D"/>
<path d="M352.897 346.542L350.072 349.186C349.919 349.306 349.805 349.483 349.749 349.687C349.712 349.82 349.701 349.961 349.716 350.1C349.731 350.238 349.772 350.371 349.837 350.489C349.901 350.607 349.988 350.706 350.089 350.781C350.191 350.855 350.305 350.903 350.424 350.919C350.657 350.948 350.893 350.918 351.116 350.832C351.339 350.746 351.542 350.605 351.714 350.418L354.458 347.053C354.521 346.985 354.565 346.898 354.585 346.8C354.605 346.703 354.6 346.601 354.57 346.507C354.542 346.419 354.495 346.341 354.432 346.282C354.369 346.224 354.293 346.187 354.213 346.176C353.751 346.117 353.286 346.246 352.897 346.542Z" fill="#FC9D9D"/>
<path opacity="0.15" d="M384.355 355.646L418.755 349.111C419.976 348.819 421.049 347.976 421.74 346.767C422.431 345.558 422.685 344.08 422.445 342.655L421.662 338.117C421.662 338.117 422.38 345.034 416.442 346.882L383.99 354.354L384.355 355.646Z" fill="black"/>
<path opacity="0.2" d="M404.338 381.711L407.817 532.326H410.792V380.559L404.338 381.711Z" fill="black"/>
<path opacity="0.2" d="M374.654 287.143L382.295 301.306C382.417 301.531 382.583 301.718 382.779 301.853C382.976 301.987 383.197 302.066 383.424 302.081C383.652 302.096 383.879 302.048 384.087 301.94C384.296 301.833 384.479 301.668 384.622 301.461L394.456 287.143" stroke="black" stroke-width="0.92" stroke-miterlimit="10"/>
<path d="M355.068 254.028C357.058 251.455 358.169 248.121 358.19 244.657C358.19 236.223 351.547 229.382 343.355 229.382C335.164 229.382 328.52 236.223 328.52 244.657C328.52 253.091 335.164 259.933 343.355 259.933C346.189 259.947 348.976 259.095 351.439 257.464L356.9 260.434L355.068 254.028Z" fill="white" stroke="#DADDDF" stroke-miterlimit="10"/>
<path d="M350.751 241.758C350.355 239.71 348.683 237.947 346.881 238.152C346.351 238.237 345.842 238.447 345.384 238.768C344.926 239.089 344.528 239.515 344.215 240.02C343.985 240.356 343.776 240.71 343.592 241.082C343.408 240.71 343.199 240.355 342.968 240.02C342.656 239.515 342.259 239.089 341.802 238.766C341.344 238.444 340.836 238.234 340.306 238.147C338.509 237.937 336.832 239.7 336.436 241.748C336.041 243.796 336.699 245.975 337.782 247.653C339.214 249.996 341.33 251.65 343.733 252.306C345.75 251.765 348.309 249.341 349.392 247.663C350.476 245.985 351.151 243.811 350.751 241.758Z" fill="#00C5B4"/>
<path d="M350.42 245.563H350.36H350.188H349.517H347.049L347.092 245.528C346.873 246.454 346.619 247.531 346.335 248.738L346.292 248.928L346.236 248.738L344.792 243.905C344.633 243.369 344.473 242.843 344.323 242.327H344.426C343.854 243.464 343.312 244.546 342.814 245.528V245.558H342.784L338.445 245.533H337.215H336.893H336.781C336.818 245.529 336.855 245.529 336.893 245.533H337.215H338.445L342.784 245.508L342.736 245.543L344.34 242.332L344.405 242.207L344.443 242.342C344.598 242.843 344.753 243.384 344.916 243.92L346.348 248.758H346.245C346.533 247.566 346.8 246.484 347.023 245.558V245.518H347.053L349.522 245.543H350.192H350.364L350.42 245.563Z" fill="#FAFAFA"/>
<path d="M593.71 556.466H80.7192C80.5481 556.466 80.3838 556.386 80.263 556.246C80.1422 556.106 80.0742 555.915 80.0742 555.715C80.0742 555.515 80.1422 555.324 80.263 555.184C80.3838 555.044 80.5481 554.964 80.7192 554.964H593.71C593.882 554.964 594.045 555.044 594.165 555.184C594.286 555.324 594.355 555.515 594.355 555.715C594.355 555.915 594.286 556.106 594.165 556.246C594.045 556.386 593.882 556.466 593.71 556.466Z" fill="#B2B6BB"/>
</svg>
