<svg width="27" height="21" viewBox="0 0 27 21" fill="none" xmlns="http://www.w3.org/2000/svg">
<path d="M13.254 0.479492C6.06165 0.479492 0.203125 4.99163 0.203125 10.531C0.203125 16.0704 6.06165 20.5826 13.254 20.5826C20.4463 20.5826 26.3048 16.0704 26.3048 10.531C26.3048 4.99163 20.4463 0.479492 13.254 0.479492ZM13.254 2.4898C19.0357 2.4898 23.6947 6.07808 23.6947 10.531C23.6947 14.984 19.0357 18.5723 13.254 18.5723C7.47229 18.5723 2.81329 14.984 2.81329 10.531C2.81329 6.07808 7.47229 2.4898 13.254 2.4898ZM11.9489 4.50011V10.9472L17.5516 15.2623L19.3971 13.841L14.5591 10.1148V4.50011H11.9489Z" fill="#333333"/>
</svg>
