<svg width="32" height="29" viewBox="0 0 32 29" fill="none" xmlns="http://www.w3.org/2000/svg">
<path fill-rule="evenodd" clip-rule="evenodd" d="M15.536 16.3693C15.536 16.3693 4.93523 10.2089 4.93523 6.19117C4.93523 -0.147833 12.8858 -1.84419 15.536 2.26278C18.1862 -1.84419 26.1368 -0.147833 26.1368 6.19117C26.1368 10.2089 15.536 16.3693 15.536 16.3693ZM0.0274674 11.2802L1.59795 19.4049C1.69611 19.8513 1.89242 20.4763 2.48135 20.9227C3.65921 21.7262 8.17435 24.5832 8.17435 26.1903V28.2438H14.5544L14.4563 20.5655C14.4563 20.0299 14.3581 19.6727 12.984 19.137L6.70202 16.5479C5.13154 15.9229 4.05183 18.0657 5.62232 18.6906L10.9227 20.8334C11.2172 20.9227 11.119 21.3691 10.7264 21.2798L4.83707 18.8692C4.14999 18.6013 4.24814 18.4228 4.05183 17.8871L2.38319 11.1017C1.89242 9.4946 -0.266998 9.85173 0.0274674 11.2802ZM31.0445 11.2802L29.3759 19.4049C29.3759 19.8513 29.1796 20.4763 28.4925 20.9227C27.3146 21.7262 22.8976 24.5832 22.8976 26.1903V28.2438H16.5175V20.5655C16.5175 20.0299 16.6157 19.6727 17.9899 19.137L24.37 16.5479C25.9405 15.9229 26.922 18.0657 25.3515 18.6906L20.0511 20.8334C19.7567 20.9227 19.8548 21.3691 20.2474 21.2798L26.1368 18.8692C26.8239 18.6013 26.8239 18.4228 26.922 17.8871L28.6888 11.1017C29.0814 9.4946 31.2408 9.85173 31.0445 11.2802ZM14.0637 3.86985H16.9102V6.90543H20.2474V9.4946H16.9102V12.4409H14.0637V9.4946H10.8245V6.90543H14.0637V3.86985Z" fill="url(#paint0_linear)"/>
<defs>
<linearGradient id="paint0_linear" x1="23.8857" y1="0.0285654" x2="2.28101" y2="29.5694" gradientUnits="userSpaceOnUse">
<stop stop-color="#22AB30"/>
<stop offset="1" stop-color="#18ACCC"/>
</linearGradient>
</defs>
</svg>
