<svg width="26" height="21" viewBox="0 0 26 21" fill="none" xmlns="http://www.w3.org/2000/svg">
<path d="M9.98361 0.293701L9.34381 2.83015C8.26821 3.14257 7.28048 3.58049 6.41502 4.12782L3.25172 3.28757L0.203125 7.35138L2.73682 9.04758C2.63942 9.50817 2.58898 9.93499 2.58898 10.3453C2.58898 10.7561 2.64093 11.1822 2.73682 11.6429V11.6449L0.203125 13.3411L3.25172 17.4029L6.41247 16.5647C7.27801 17.1123 8.26797 17.5478 9.34381 17.8604L9.98361 20.3968H16.0757L16.7155 17.8604C17.7918 17.5477 18.7784 17.1105 19.6443 16.5627L22.8076 17.4029L25.8536 13.3411L23.3225 11.6429C23.4199 11.1823 23.4703 10.7555 23.4703 10.3453C23.4703 9.93561 23.4196 9.50934 23.3225 9.04955V9.04758L25.8562 7.34942L22.8076 3.28757L19.6468 4.12586C18.7813 3.57823 17.7913 3.14275 16.7155 2.83015L16.0757 0.293701H9.98361ZM12.135 2.30401H13.9244L14.4316 4.31432L15.7928 4.71089C16.6132 4.94905 17.3504 5.27601 17.99 5.68071L19.1167 6.39138L21.6249 5.72782L22.5196 6.91948L20.5161 8.2623L20.7455 9.36758V9.36955C20.8253 9.74642 20.8602 10.0626 20.8602 10.3453C20.8602 10.6279 20.8253 10.944 20.7455 11.321L20.5135 12.4262L22.517 13.7691L21.6223 14.9627L19.1167 14.2972L17.9875 15.0098C17.3478 15.4145 16.6132 15.7415 15.7928 15.9796H15.7902L14.4291 16.3762L13.9218 18.3865H12.135L11.6277 16.3762L10.2666 15.9796C9.44609 15.7415 8.70895 15.4145 8.06932 15.0098L6.94266 14.2991L4.43445 14.9627L3.53976 13.771L5.54581 12.4262L5.31386 11.3249V11.3229C5.2352 10.9444 5.19915 10.6274 5.19915 10.3453C5.19915 10.0626 5.23405 9.74646 5.31386 9.36955L5.54581 8.26427L3.53976 6.92144L4.43445 5.72782L6.94266 6.39334L8.06932 5.68071C8.70895 5.27601 9.44609 4.94905 10.2666 4.71089L11.6277 4.31432L12.135 2.30401ZM13.0297 6.32463C10.163 6.32463 7.80932 8.13741 7.80932 10.3453C7.80932 12.5531 10.163 14.3659 13.0297 14.3659C15.8963 14.3659 18.25 12.5531 18.25 10.3453C18.25 8.13741 15.8963 6.32463 13.0297 6.32463ZM13.0297 8.33494C14.4802 8.33494 15.6398 9.22805 15.6398 10.3453C15.6398 11.4625 14.4802 12.3556 13.0297 12.3556C11.5791 12.3556 10.4195 11.4625 10.4195 10.3453C10.4195 9.22805 11.5791 8.33494 13.0297 8.33494Z" fill="#333333"/>
</svg>
