<svg width="11" height="11" viewBox="0 0 11 11" fill="none" xmlns="http://www.w3.org/2000/svg">
<path d="M0.624674 0.625C0.325674 0.625 0.0830078 0.867667 0.0830078 1.16667V6.58333C0.0830078 6.88233 0.325674 7.125 0.624674 7.125H10.3747C10.6737 7.125 10.9163 6.88233 10.9163 6.58333V1.16667C10.9163 0.867667 10.6737 0.625 10.3747 0.625H0.624674ZM1.6604 1.70833H9.33895C9.37936 1.82225 9.44469 1.92571 9.53016 2.01118C9.61563 2.09665 9.71909 2.16198 9.83301 2.20239V5.54761C9.71909 5.58802 9.61563 5.65335 9.53016 5.73882C9.44469 5.82429 9.37936 5.92775 9.33895 6.04167H1.6604C1.61998 5.92775 1.55466 5.82429 1.46919 5.73882C1.38372 5.65335 1.28026 5.58802 1.16634 5.54761V2.20239C1.28026 2.16198 1.38372 2.09665 1.46919 2.01118C1.55466 1.92571 1.61998 1.82225 1.6604 1.70833ZM5.49967 2.25C5.0687 2.25 4.65537 2.4212 4.35063 2.72595C4.04588 3.0307 3.87467 3.44402 3.87467 3.875C3.87467 4.30598 4.04588 4.7193 4.35063 5.02405C4.65537 5.32879 5.0687 5.5 5.49967 5.5C5.93065 5.5 6.34398 5.32879 6.64872 5.02405C6.95347 4.7193 7.12467 4.30598 7.12467 3.875C7.12467 3.44402 6.95347 3.0307 6.64872 2.72595C6.34398 2.4212 5.93065 2.25 5.49967 2.25ZM2.79134 3.33333C2.49234 3.33333 2.24967 3.57546 2.24967 3.875C2.24967 4.17454 2.49234 4.41667 2.79134 4.41667C3.09034 4.41667 3.33301 4.17454 3.33301 3.875C3.33301 3.57546 3.09034 3.33333 2.79134 3.33333ZM8.20801 3.33333C7.90901 3.33333 7.66634 3.57546 7.66634 3.875C7.66634 4.17454 7.90901 4.41667 8.20801 4.41667C8.50701 4.41667 8.74967 4.17454 8.74967 3.875C8.74967 3.57546 8.50701 3.33333 8.20801 3.33333ZM1.16105 8.20833L9.41512 10.3581C9.70491 10.4334 9.99999 10.2591 10.0753 9.96981L10.5344 8.20833H9.41512L9.28711 8.69604C9.0439 8.71717 8.8243 8.84684 8.68726 9.04834L5.46053 8.20833H1.16105Z" fill="#333333"/>
</svg>
