<svg width="11" height="11" viewBox="0 0 11 11" fill="none" xmlns="http://www.w3.org/2000/svg">
<path d="M7.50946 0.302734C6.69187 0.302734 5.87432 0.613334 5.25308 1.23457L1.23459 5.25306C-0.00788394 6.49553 -0.00788394 8.52335 1.23459 9.76582C1.27505 9.80614 1.32309 9.83807 1.37593 9.85977C1.37678 9.86005 1.37762 9.86033 1.37847 9.86061C2.62854 10.979 4.54719 10.966 5.74735 9.76582L9.76584 5.74733C11.0083 4.50486 11.0083 2.47704 9.76584 1.23457C9.1446 0.613313 8.32705 0.302734 7.50946 0.302734ZM7.50946 1.16432C8.10346 1.16432 8.69748 1.39173 9.15308 1.84733C10.0643 2.75852 10.0643 4.22338 9.15308 5.13457L8.22717 6.06048L7.45021 6.83743C7.28078 7.00687 7.0073 7.00728 6.8383 6.83828C6.26413 6.26368 5.08127 5.0804 5.08127 5.0804H5.08042C4.9179 4.91791 4.69748 4.82663 4.46766 4.82663C4.23784 4.82663 4.01743 4.91791 3.8549 5.0804L2.47196 6.46504C2.30253 6.63447 2.0282 6.63447 1.8592 6.46504C1.69127 6.29711 1.69086 6.02669 1.85581 5.85736L5.86584 1.84733C6.32144 1.39173 6.91546 1.16432 7.50946 1.16432Z" fill="#333333"/>
</svg>
