<svg width="24" height="23" viewBox="0 0 24 23" fill="none" xmlns="http://www.w3.org/2000/svg">
<path d="M23.04 0H0.96C0.429 0 0 0.40574 0 0.907949V21.7908C0 22.293 0.429 22.6987 0.96 22.6987H23.04C23.571 22.6987 24 22.293 24 21.7908V0.907949C24 0.40574 23.571 0 23.04 0ZM20.268 6.62519H18.351C16.848 6.62519 16.557 7.30048 16.557 8.29355V10.4811H20.145L19.677 13.9058H16.557V22.6987H12.816V13.9086H9.687V10.4811H12.816V7.9559C12.816 5.02493 14.709 3.42751 17.475 3.42751C18.801 3.42751 19.938 3.52114 20.271 3.5637V6.62519H20.268Z" fill="#00C5B4"/>
</svg>
