<svg width="24" height="23" viewBox="0 0 24 23" fill="none" xmlns="http://www.w3.org/2000/svg">
<path fill-rule="evenodd" clip-rule="evenodd" d="M7.05273 0.0680962C8.33236 0.0123811 8.74036 0 12 0C15.2596 0 15.6676 0.0134129 16.9462 0.0680962C18.2247 0.122779 19.0975 0.315719 19.8611 0.595326C20.6607 0.881123 21.3862 1.32788 21.9862 1.90566C22.5971 2.4721 23.0684 3.15719 23.3695 3.9145C23.6662 4.63673 23.8691 5.46214 23.928 6.6693C23.9869 7.88162 24 8.2675 24 11.3494C24 14.4323 23.9858 14.8181 23.928 16.0284C23.8702 17.2356 23.6662 18.061 23.3695 18.7832C23.0684 19.5406 22.5963 20.2268 21.9862 20.7941C21.3862 21.3719 20.6607 21.8176 19.8611 22.1024C19.0975 22.383 18.2247 22.5749 16.9484 22.6306C15.6676 22.6863 15.2596 22.6987 12 22.6987C8.74036 22.6987 8.33236 22.6853 7.05273 22.6306C5.77636 22.576 4.90364 22.383 4.14 22.1024C3.33919 21.8176 2.61362 21.3711 2.01382 20.7941C1.40332 20.2273 0.930889 19.5414 0.629455 18.7842C0.333818 18.062 0.130909 17.2366 0.072 16.0294C0.0130909 14.8171 0 14.4312 0 11.3494C0 8.26647 0.0141818 7.88059 0.072 6.67136C0.129818 5.46214 0.333818 4.63673 0.629455 3.9145C0.931334 3.15727 1.40413 2.47139 2.01491 1.90463C2.61386 1.32736 3.3387 0.880549 4.13891 0.595326C4.90255 0.315719 5.77527 0.123811 7.05164 0.0680962H7.05273ZM16.8491 2.11098C15.5836 2.0563 15.204 2.04495 12 2.04495C8.796 2.04495 8.41636 2.0563 7.15091 2.11098C5.98036 2.16154 5.34545 2.34622 4.92218 2.50202C4.36255 2.70837 3.96218 2.9529 3.54218 3.35013C3.14405 3.71645 2.83765 4.16241 2.64545 4.6553C2.48073 5.05563 2.28545 5.65611 2.232 6.76319C2.17418 7.96003 2.16218 8.31908 2.16218 11.3494C2.16218 14.3796 2.17418 14.7387 2.232 15.9355C2.28545 17.0426 2.48073 17.6431 2.64545 18.0434C2.83745 18.5356 3.144 18.9823 3.54218 19.3486C3.92945 19.7252 4.40182 20.0151 4.92218 20.1967C5.34545 20.3525 5.98036 20.5372 7.15091 20.5877C8.41636 20.6424 8.79491 20.6538 12 20.6538C15.2051 20.6538 15.5836 20.6424 16.8491 20.5877C18.0196 20.5372 18.6545 20.3525 19.0778 20.1967C19.6375 19.9904 20.0378 19.7458 20.4578 19.3486C20.856 18.9823 21.1625 18.5356 21.3545 18.0434C21.5193 17.6431 21.7145 17.0426 21.768 15.9355C21.8258 14.7387 21.8378 14.3796 21.8378 11.3494C21.8378 8.31908 21.8258 7.96003 21.768 6.76319C21.7145 5.65611 21.5193 5.05563 21.3545 4.6553C21.1364 4.12601 20.8778 3.74735 20.4578 3.35013C20.0705 2.97361 19.5989 2.68383 19.0778 2.50202C18.6545 2.34622 18.0196 2.16154 16.8491 2.11098ZM10.4673 14.8481C11.3233 15.1851 12.2764 15.2306 13.1639 14.9767C14.0514 14.7229 14.8182 14.1856 15.3334 13.4565C15.8485 12.7274 16.0801 11.8517 15.9884 10.9791C15.8968 10.1064 15.4876 9.29097 14.8309 8.67195C14.4123 8.27624 13.906 7.97325 13.3487 7.78478C12.7914 7.59632 12.1968 7.52706 11.6078 7.58201C11.0188 7.63696 10.45 7.81474 9.94233 8.10255C9.43468 8.39036 9.00081 8.78105 8.67197 9.24648C8.34312 9.71192 8.12748 10.2405 8.04056 10.7942C7.95365 11.348 7.99762 11.913 8.16932 12.4487C8.34101 12.9844 8.63616 13.4775 9.03351 13.8924C9.43087 14.3073 9.92054 14.6336 10.4673 14.8481ZM7.63855 7.22439C8.2113 6.68269 8.89126 6.25299 9.6396 5.95982C10.3879 5.66666 11.19 5.51576 12 5.51576C12.81 5.51576 13.6121 5.66666 14.3604 5.95982C15.1087 6.25299 15.7887 6.68269 16.3615 7.22439C16.9342 7.76609 17.3885 8.40918 17.6985 9.11694C18.0085 9.82471 18.168 10.5833 18.168 11.3494C18.168 12.1154 18.0085 12.874 17.6985 13.5818C17.3885 14.2896 16.9342 14.9326 16.3615 15.4743C15.2047 16.5684 13.6359 17.183 12 17.183C10.3641 17.183 8.79528 16.5684 7.63855 15.4743C6.48182 14.3803 5.83197 12.8965 5.83197 11.3494C5.83197 9.8022 6.48182 8.3184 7.63855 7.22439ZM19.536 6.38453C19.6779 6.25791 19.7916 6.10563 19.8701 5.93672C19.9487 5.76782 19.9907 5.58571 19.9935 5.40119C19.9964 5.21667 19.9601 5.03349 19.8867 4.86249C19.8134 4.69149 19.7045 4.53615 19.5665 4.40566C19.4285 4.27517 19.2643 4.17219 19.0835 4.10281C18.9027 4.03344 18.709 3.99908 18.5139 4.00177C18.3188 4.00446 18.1263 4.04414 17.9477 4.11847C17.7691 4.1928 17.6081 4.30027 17.4742 4.43451C17.2138 4.69557 17.0712 5.04234 17.0768 5.40119C17.0823 5.76005 17.2355 6.10274 17.5038 6.35651C17.7721 6.61029 18.1345 6.75517 18.5139 6.7604C18.8933 6.76563 19.26 6.6308 19.536 6.38453Z" fill="#00C5B4"/>
</svg>
