<svg width="25" height="25" viewBox="0 0 25 25" fill="none" xmlns="http://www.w3.org/2000/svg">
<path fill-rule="evenodd" clip-rule="evenodd" d="M12.3582 14.0703C12.3582 14.0703 3.92575 8.76583 3.92575 5.30637C3.92575 -0.151888 10.2501 -1.61255 12.3582 1.92379C14.4663 -1.61255 20.7906 -0.151888 20.7906 5.30637C20.7906 8.76583 12.3582 14.0703 12.3582 14.0703ZM0.0218491 9.68835L1.2711 16.6841C1.34918 17.0685 1.50533 17.6067 1.9738 17.9911C2.91074 18.6829 6.50233 21.143 6.50233 22.5268V24.295H11.5774L11.4993 17.6835C11.4993 17.2223 11.4212 16.9148 10.3282 16.4535L5.33116 14.2241C4.08191 13.6859 3.22305 15.531 4.4723 16.0691L8.68851 17.9142C8.92275 17.9911 8.84467 18.3754 8.53236 18.2986L3.84767 16.2229C3.30113 15.9923 3.3792 15.8385 3.22305 15.3772L1.89572 9.5346C1.50533 8.15081 -0.212385 8.45832 0.0218491 9.68835ZM24.6945 9.68835L23.3672 16.6841C23.3672 17.0685 23.211 17.6067 22.6645 17.9911C21.7275 18.6829 18.214 21.143 18.214 22.5268V24.295H13.139V17.6835C13.139 17.2223 13.217 16.9148 14.3101 16.4535L19.3852 14.2241C20.6345 13.6859 21.4152 15.531 20.166 16.0691L15.9498 17.9142C15.7155 17.9911 15.7936 18.3754 16.1059 18.2986L20.7906 16.2229C21.3372 15.9923 21.3372 15.8385 21.4152 15.3772L22.8206 9.5346C23.133 8.15081 24.8507 8.45832 24.6945 9.68835ZM11.187 3.30757H13.4513V5.92139H16.1059V8.15082H13.4513V10.6878H11.187V8.15082H8.61043V5.92139H11.187V3.30757Z" fill="url(#paint0_linear)"/>
<defs>
<linearGradient id="paint0_linear" x1="19" y1="8.24065e-07" x2="-8.93864e-07" y2="24" gradientUnits="userSpaceOnUse">
<stop stop-color="#22AB30"/>
<stop offset="1" stop-color="#18ACCC"/>
</linearGradient>
</defs>
</svg>
