<svg width="24" height="24" viewBox="0 0 24 24" fill="none" xmlns="http://www.w3.org/2000/svg">
<path d="M23.04 0H0.96C0.429 0 0 0.414372 0 0.927266V22.2544C0 22.7673 0.429 23.1816 0.96 23.1816H23.04C23.571 23.1816 24 22.7673 24 22.2544V0.927266C24 0.414372 23.571 0 23.04 0ZM20.268 6.76614H18.351C16.848 6.76614 16.557 7.45579 16.557 8.46999V10.7041H20.145L19.677 14.2017H16.557V23.1816H12.816V14.2046H9.687V10.7041H12.816V8.12516C12.816 5.13184 14.709 3.50043 17.475 3.50043C18.801 3.50043 19.938 3.59605 20.271 3.63952V6.76614H20.268Z" fill="#00C5B4"/>
</svg>
