<svg width="260" height="265" viewBox="0 0 260 265" fill="none" xmlns="http://www.w3.org/2000/svg">
<path d="M135.246 62.0417H134.002V22.7443C134.002 16.7121 131.923 10.927 128.224 6.66166C124.524 2.39628 119.507 9.7236e-06 114.275 0L42.0641 0C36.8323 -1.65299e-05 31.8147 2.39623 28.1153 6.6616C24.4158 10.927 22.3374 16.712 22.3374 22.7442V238.333C22.3374 244.365 24.4157 250.15 28.1152 254.416C31.8147 258.681 36.8322 261.077 42.064 261.077H114.275C116.865 261.077 119.431 260.489 121.824 259.346C124.217 258.203 126.392 256.528 128.224 254.416C130.056 252.304 131.509 249.796 132.5 247.037C133.491 244.277 134.002 241.32 134.002 238.333V90.0143H135.246L135.246 62.0417Z" fill="#333333"/>
<path d="M130.066 22.2846V238.794C130.068 241.035 129.683 243.255 128.934 245.326C128.184 247.398 127.085 249.281 125.698 250.867C124.312 252.453 122.665 253.712 120.853 254.572C119.04 255.431 117.097 255.875 115.135 255.877H41.4385C37.4742 255.88 33.6711 254.085 30.8659 250.885C28.0608 247.686 26.4833 243.345 26.4805 238.818V22.2846C26.4791 20.0427 26.8643 17.8225 27.6142 15.7507C28.3641 13.6789 29.464 11.7961 30.851 10.2098C32.238 8.62344 33.8851 7.36464 35.698 6.50526C37.511 5.64589 39.4545 5.20276 41.4174 5.20118H50.3752C49.9351 6.43349 49.7671 7.77051 49.886 9.09444C50.005 10.4184 50.4072 11.6886 51.0573 12.7931C51.7073 13.8977 52.5853 14.8027 53.6138 15.4284C54.6423 16.0541 55.7897 16.3813 56.955 16.3812H98.9588C100.124 16.3813 101.272 16.0541 102.3 15.4284C103.329 14.8027 104.206 13.8977 104.857 12.7931C105.507 11.6886 105.909 10.4184 106.028 9.09444C106.147 7.77051 105.979 6.43349 105.539 5.20118H115.108C119.072 5.19712 122.874 6.99146 125.679 10.1895C128.485 13.3875 130.063 17.7272 130.066 22.2539V22.2846L130.066 22.2846Z" fill="white"/>
<path d="M130.066 54.3165V46.9418H120.293V6.2558C118.633 5.55569 116.878 5.19858 115.108 5.20119H113.836V46.9418H79.936V16.3812H73.4788V46.9418H45.0673V5.20122H41.4385C40.4893 5.19953 39.5422 5.30202 38.6102 5.50727V46.9418H26.4805V54.3165H38.6102V71.3742L26.4806 79.372V87.8897L38.6102 79.892V130.644H26.4805V138.019H38.6102V211.397H26.4805V218.771H38.6102V255.571C39.5422 255.776 40.4893 255.879 41.4385 255.877H45.0673V218.771H73.4788V255.877H79.936V218.771H113.836V255.877H115.108C116.878 255.88 118.633 255.522 120.293 254.822V218.771H130.066V211.397H120.293V179.317H129.979V171.942H120.293V138.019H130.066V130.644H120.293V85.6588H130.066V78.2841H120.293V54.3165L130.066 54.3165ZM64.481 54.3165L64.4809 54.3166L45.0675 67.119L45.0673 67.1191V54.3165H64.481ZM45.0673 75.6331L45.0675 75.633L73.4788 56.8978V130.644H45.0673V75.6331ZM45.0673 211.397V138.019H73.4788V211.397H45.0673ZM113.836 211.397H79.936V179.317H113.836V211.397ZM113.836 171.942H79.936V138.019H113.836V171.942ZM113.836 130.644H79.936V85.6588H113.836V130.644ZM113.836 78.2841H79.936V54.3165H113.836V78.2841Z" fill="#E5E5E5"/>
<path d="M135.246 77.9788C135.246 101.514 98.4726 153.942 98.4726 153.942C98.4726 153.942 61.6997 101.514 61.6997 77.9788C61.6997 66.677 65.574 55.8381 72.4702 47.8465C79.3665 39.8549 88.7198 35.3652 98.4726 35.3652C108.225 35.3652 117.579 39.8549 124.475 47.8465C131.371 55.8381 135.246 66.677 135.246 77.9788Z" fill="#00C5B4"/>
<path d="M120.744 76.4513C120.744 81.2858 119.377 86.0117 116.816 90.0314C114.255 94.0511 110.615 97.1841 106.356 99.0341C102.097 100.884 97.4113 101.368 92.8902 100.425C88.3691 99.4819 84.2163 97.1539 80.9568 93.7355C77.6973 90.317 75.4775 85.9616 74.5782 81.22C73.6789 76.4784 74.1405 71.5636 75.9045 67.0972C77.6685 62.6307 80.6558 58.8132 84.4886 56.1273C88.3214 53.4414 92.8275 52.0078 97.4371 52.0078C100.496 52.0063 103.526 52.6368 106.353 53.8633C109.18 55.0898 111.749 56.8882 113.913 59.1559C116.077 61.4236 117.794 64.1162 118.967 67.0799C120.139 70.0436 120.743 73.2204 120.744 76.4289V76.4513Z" fill="white"/>
<path d="M97.4366 87.3731C102.299 87.3731 106.241 83.1818 106.241 78.0117C106.241 72.8416 102.299 68.6504 97.4366 68.6504C92.5739 68.6504 88.6318 72.8416 88.6318 78.0117C88.6318 83.1818 92.5739 87.3731 97.4366 87.3731Z" fill="#A8A8A8" fill-opacity="0.4"/>
<path d="M109.349 98.171C105.943 100.63 101.991 101.936 97.9545 101.935C93.9183 101.934 89.9659 100.627 86.5605 98.1675C87.2688 95.3568 88.764 92.8844 90.8201 91.1244C92.8762 89.3645 95.3812 88.4127 97.9562 88.4131C100.531 88.4135 103.036 89.366 105.092 91.1266C107.147 92.8872 108.642 95.3601 109.349 98.171Z" fill="#A8A8A8" fill-opacity="0.4"/>
<path d="M97.9548 183.067C103.676 183.067 108.313 178.177 108.313 172.145C108.313 166.113 103.676 161.224 97.9548 161.224C92.2339 161.224 87.5962 166.113 87.5962 172.145C87.5962 178.177 92.2339 183.067 97.9548 183.067Z" fill="#00C5B4"/>
<path d="M259.677 264.031H0.322581C0.237027 264.031 0.154977 263.976 0.0944817 263.878C0.0339861 263.781 0 263.648 0 263.51C0 263.372 0.0339861 263.24 0.0944817 263.143C0.154977 263.045 0.237027 262.99 0.322581 262.99H259.677C259.763 262.99 259.845 263.045 259.906 263.143C259.966 263.24 260 263.372 260 263.51C260 263.648 259.966 263.781 259.906 263.878C259.845 263.976 259.763 264.031 259.677 264.031Z" fill="#333333"/>
<path d="M130.502 140.512C130.711 140.041 130.985 139.639 131.308 139.333C131.63 139.027 131.993 138.825 132.373 138.738C132.753 138.652 133.141 138.683 133.512 138.831C133.883 138.979 134.228 139.24 134.525 139.596C134.619 139.71 134.707 139.833 134.789 139.964L145.514 137.683L146.111 125.903C146.157 124.999 146.447 124.159 146.916 123.567C147.386 122.975 147.998 122.68 148.617 122.747C149.235 122.813 149.811 123.236 150.216 123.923C150.621 124.609 150.823 125.502 150.777 126.406C150.776 126.427 150.775 126.448 150.774 126.469L149.728 142.999L149.723 143.036C149.587 143.672 149.314 144.226 148.945 144.617C148.577 145.008 148.131 145.215 147.675 145.207L135.06 144.889C135.011 144.998 134.958 145.104 134.902 145.205C134.658 145.639 134.354 145.993 134.009 146.243C133.665 146.493 133.289 146.634 132.905 146.657C132.521 146.68 132.138 146.584 131.781 146.376C131.424 146.168 131.101 145.851 130.833 145.448C130.779 145.367 130.727 145.283 130.679 145.196C130.315 144.542 130.102 143.737 130.071 142.896C130.039 142.055 130.19 141.221 130.502 140.512Z" fill="#FFB7B7"/>
<path d="M154.926 255.858L150.715 255.858L148.712 234.938L154.927 234.939L154.926 255.858Z" fill="#FFB7B7"/>
<path d="M156.998 259.782L143.532 259.781V259.658C143.532 258.65 144.085 257.684 145.067 256.971C146.05 256.259 147.383 255.858 148.774 255.858H148.774L156.998 255.859L156.998 259.782Z" fill="#2F2E41"/>
<path d="M186.003 249.035L182.292 250.628L175.644 233.367L181.121 231.016L186.003 249.035Z" fill="#FFB7B7"/>
<path d="M188.074 254.979L175.963 259.781L175.911 259.603C175.484 258.15 175.572 256.559 176.154 255.181C176.737 253.803 177.767 252.75 179.017 252.254L179.017 252.254L186.414 249.321L188.074 254.979Z" fill="#2F2E41"/>
<path d="M159.989 74.0404C159.989 74.0404 155.611 72.2545 152.796 79.3981C149.982 86.5417 145.604 94.3997 145.604 94.3997L148.106 95.1141C148.106 95.1141 148.731 90.1135 150.295 89.3992L149.669 95.8284C149.669 95.8284 168.432 103.329 176.875 95.1141L176.562 92.6138C176.562 92.6138 177.813 92.971 177.813 95.1141L178.751 94.0425C178.751 94.0425 177.813 91.8995 174.999 89.042C173.152 87.1665 172.517 83.5984 172.299 81.3675C172.126 79.4788 171.47 77.7073 170.427 76.3101C168.556 73.8342 165.148 71.2028 159.989 74.0404Z" fill="#2F2E41"/>
<path d="M161.66 98.9599C165.951 98.9599 169.429 94.5696 169.429 89.1538C169.429 83.738 165.951 79.3477 161.66 79.3477C157.369 79.3477 153.891 83.738 153.891 89.1538C153.891 94.5696 157.369 98.9599 161.66 98.9599Z" fill="#FFB7B7"/>
<path d="M150.975 106.131L149.364 105.498C149.364 105.498 146.141 107.08 146.141 109.927C146.141 112.774 145.604 124.161 145.604 124.161L152.855 125.11L150.975 106.131Z" fill="#BABABA"/>
<path d="M176.289 165.37C175.597 164.539 175.206 163.47 175.188 162.356C175.17 161.243 175.525 160.16 176.19 159.303L171.505 117.275C171.459 116.284 171.782 115.313 172.403 114.577C173.024 113.841 173.893 113.399 174.818 113.348C175.743 113.297 176.649 113.641 177.338 114.305C178.026 114.969 178.441 115.898 178.49 116.889C178.491 116.903 178.491 116.917 178.492 116.93L182.683 159.003C182.835 159.167 182.975 159.342 183.102 159.529C183.438 160.027 183.68 160.591 183.812 161.189C183.945 161.787 183.966 162.407 183.875 163.013C183.784 163.62 183.583 164.202 183.282 164.725C182.981 165.248 182.587 165.703 182.122 166.063C182.074 166.1 182.025 166.136 181.976 166.172C181.437 166.553 180.827 166.802 180.188 166.901C179.549 167 178.898 166.946 178.281 166.744C177.51 166.494 176.82 166.018 176.289 165.37Z" fill="#FFB7B7"/>
<path d="M171.5 123.803L178.751 122.917C178.751 122.917 178.214 112.289 178.214 109.631C178.214 106.974 174.992 105.498 174.992 105.498L173.38 106.089L171.5 123.803Z" fill="#BABABA"/>
<path d="M151.662 138.19C151.662 138.19 146.089 150.52 146.089 165.473C146.089 180.427 145.604 249.039 145.604 249.039C145.604 249.039 152.873 253.144 157.235 248.159L161.112 172.217L176.377 246.693C176.377 246.693 183.646 248.453 187.038 245.52L180.496 193.622C180.496 193.622 177.831 144.949 170.561 141.43C163.292 137.912 151.662 138.19 151.662 138.19Z" fill="#333333"/>
<path d="M153.14 89.8083C155.935 86.9958 158.198 83.7565 159.694 79.9031C159.694 79.9031 164.824 87.8272 167.958 88.2234C171.093 88.6196 168.243 78.7145 168.243 78.7145L162.544 76.7334L157.13 77.5258L152.855 81.4879L153.14 89.8083Z" fill="#2F2E41"/>
<path d="M169.89 104.208C169.89 104.208 170.109 104.057 157 104.669L151.513 106.604L150.784 106.861C150.784 106.861 151.474 124.549 153.316 127.792C155.157 131.034 154.697 132.803 154.237 133.098C153.776 133.393 152.625 132.803 153.316 134.277C154.006 135.751 154.927 134.867 154.006 135.751C153.086 136.635 152.625 139.878 152.625 139.878L172.882 143.416C172.882 143.416 173.573 131.919 175.414 126.023C177.256 120.127 177.716 117.768 177.716 117.768L176.335 105.977L169.89 104.208Z" fill="#BABABA"/>
</svg>
