<svg width="260" height="265" viewBox="0 0 260 265" fill="none" xmlns="http://www.w3.org/2000/svg">
<path d="M255.178 142.104C254.775 141.655 254.428 141.041 254.162 140.305C253.895 139.569 253.715 138.729 253.635 137.845C253.555 136.961 253.576 136.054 253.697 135.187C253.819 134.32 254.037 133.516 254.337 132.829L251.017 86.0303L257.933 86.685L259.019 132.333C259.584 133.381 259.929 134.792 259.99 136.299C260.051 137.807 259.824 139.304 259.35 140.509C258.877 141.714 258.19 142.541 257.421 142.835C256.652 143.129 255.854 142.869 255.178 142.104Z" fill="#A0616A"/>
<path d="M258.883 87.3033C258.741 87.6253 258.56 87.873 258.355 88.0234L252.14 92.5977C251.828 92.8275 251.482 92.8179 251.173 92.5707C250.864 92.3234 250.617 91.8575 250.481 91.2688L244.975 67.4083C244.446 65.195 244.357 62.685 244.722 60.3525C244.993 58.6877 245.491 57.1944 246.164 56.0299C246.838 54.8654 247.662 54.0729 248.55 53.7358C249.232 53.4648 249.937 53.4841 250.616 53.7921C251.429 54.1416 252.184 54.8764 252.812 55.9301C253.441 56.9837 253.923 58.323 254.216 59.8267L259.111 84.7817C259.193 85.203 259.215 85.6589 259.175 86.1023C259.135 86.5457 259.034 86.9603 258.883 87.3033Z" fill="#BABABA" fill-opacity="0.91"/>
<path d="M226.494 256.329H222.194L220.634 224.192L226.494 224.344V256.329Z" fill="#A0616A"/>
<path d="M219.122 253.96H227.414V264.03H213.899C213.899 261.359 214.449 258.798 215.428 256.909C216.408 255.021 217.736 253.96 219.121 253.96H219.122Z" fill="#2F2E41"/>
<path d="M246.488 256.329H242.187L240.142 224.343H246.488L246.488 256.329Z" fill="#A0616A"/>
<path d="M239.115 253.96H247.408V264.03H233.893C233.893 261.359 234.443 258.798 235.422 256.909C236.401 255.021 237.73 253.96 239.115 253.96H239.115Z" fill="#2F2E41"/>
<path d="M247.028 244.949L240.275 243.985C239.891 243.93 239.53 243.606 239.261 243.074C238.991 242.542 238.832 241.839 238.813 241.097L237.307 181.079C237.293 180.503 237.17 179.957 236.962 179.543C236.753 179.13 236.474 178.877 236.176 178.832C235.878 178.788 235.581 178.955 235.343 179.301C235.104 179.648 234.939 180.151 234.878 180.715L228.596 239.839C228.518 240.566 228.306 241.214 227.998 241.66C227.69 242.106 227.308 242.32 226.924 242.261L220.818 241.319C220.612 241.288 220.41 241.178 220.226 240.996C220.041 240.814 219.877 240.564 219.743 240.259C219.608 239.955 219.506 239.603 219.442 239.223C219.379 238.842 219.354 238.441 219.371 238.043C219.372 238.023 219.372 238.003 219.374 237.983L225.038 128.759C225.06 128.332 225.129 127.919 225.239 127.547C225.35 127.175 225.5 126.852 225.68 126.6C225.86 126.348 226.066 126.172 226.284 126.084C226.501 125.995 226.726 125.997 226.944 126.088L248.483 135.117C248.84 135.268 249.158 135.652 249.385 136.204C249.611 136.756 249.732 137.442 249.726 138.146L248.723 241.971C248.715 242.767 248.546 243.525 248.252 244.083C247.957 244.642 247.561 244.956 247.148 244.958C247.108 244.957 247.069 244.954 247.028 244.949Z" fill="#2F2E41"/>
<path d="M241.12 37.4364C245.878 37.4364 249.735 29.9984 249.735 20.8232C249.735 11.648 245.878 4.20996 241.12 4.20996C236.362 4.20996 232.504 11.648 232.504 20.8232C232.504 29.9984 236.362 37.4364 241.12 37.4364Z" fill="#A0616A"/>
<path d="M227.752 137.183C226.924 135.75 226.266 133.989 225.825 132.019C225.383 130.05 225.168 127.92 225.194 125.774C225.194 101.896 235.912 48.5473 236.248 46.8859C236.279 46.4849 236.562 46.3117 238.047 44.3789C239.532 42.4461 241.672 42.1474 244.41 43.4957C244.688 43.6331 244.942 43.915 245.143 44.3108C245.344 44.7066 245.484 45.2011 245.55 45.7405L246.059 47.159C246.103 47.5191 246.191 47.8539 246.315 48.1366C246.439 48.4193 246.595 48.6419 246.772 48.7865C248.979 50.58 255.996 58.8503 253.605 89.9744C251.384 118.886 250.483 135.887 250.198 141.858C250.165 142.567 250.004 143.23 249.743 143.732C249.482 144.235 249.138 144.545 248.77 144.608C247.688 144.795 245.83 145.044 243.619 145.044C238.488 145.041 231.453 143.708 227.752 137.183Z" fill="#BABABA" fill-opacity="0.91"/>
<path d="M217.458 128.337C217.253 127.531 217.142 126.648 217.133 125.75C217.125 124.853 217.218 123.962 217.407 123.142C217.596 122.321 217.876 121.591 218.227 121.002C218.578 120.412 218.992 119.979 219.44 119.731L230.206 77.3037L235.76 85.279L223.471 124.35C223.637 125.827 223.517 127.371 223.132 128.688C222.747 130.005 222.125 131.004 221.384 131.496C220.642 131.987 219.833 131.937 219.11 131.355C218.386 130.772 217.799 129.699 217.459 128.337H217.458Z" fill="#A0616A"/>
<path d="M236.367 86.8169C236.157 86.932 235.934 86.9427 235.721 86.8478L229.238 83.9677C228.912 83.8231 228.628 83.4434 228.443 82.9066C228.258 82.3698 228.187 81.7169 228.244 81.0821L230.569 55.353C230.769 52.9471 231.42 50.7662 232.397 49.2221C233.103 48.1303 233.948 47.4257 234.844 47.1826C235.74 46.9394 236.653 47.1667 237.488 47.8405C238.133 48.349 238.713 49.1224 239.187 50.107C239.761 51.2707 240.175 52.692 240.393 54.2423C240.61 55.7926 240.624 57.4231 240.432 58.986L237.286 84.9658C237.232 85.4044 237.119 85.8073 236.957 86.1329C236.796 86.4584 236.592 86.6945 236.367 86.8169H236.367Z" fill="#BABABA" fill-opacity="0.91"/>
<path d="M239.102 35.8331C238.683 35.0082 238.374 34 238.2 32.8944C238.027 31.7889 237.995 30.6188 238.106 29.4841C238.407 26.4556 238.583 24.4719 238.617 23.7505C238.731 21.2835 237.438 19.2859 236.158 18.9655C236.108 18.9527 236.067 18.9449 236.032 18.9394C236.064 19 236.1 19.0642 236.131 19.1211C236.374 19.5615 236.676 20.1096 236.604 20.6754C236.561 21.0158 236.4 21.2575 236.111 21.4131C234.109 22.4931 232.568 21.5016 231.26 18.2907C230.892 17.3783 230.639 16.3135 230.521 15.1804C230.052 10.7467 231.301 6.9671 232.431 4.5776C233.363 2.60725 234.874 0.216536 236.779 0.010597C238.26 -0.148703 240.022 1.49517 240.548 4.45767C240.797 3.74775 241.128 3.15923 241.515 2.73871C241.902 2.31819 242.334 2.07721 242.778 2.03485C243.789 1.99256 244.785 2.52646 245.64 3.56971C249.817 8.18396 251.613 19.1762 249.56 27.5737C248.269 32.8561 245.472 36.7883 242.261 37.8361C242.06 37.902 241.856 37.9352 241.652 37.9355C241.176 37.9339 240.704 37.7471 240.265 37.3863C239.827 37.0255 239.431 36.4981 239.1 35.8355L239.102 35.8331Z" fill="#2F2E41"/>
<path d="M113.399 118.343C113.222 117.512 112.928 116.803 112.551 116.301C112.174 115.8 111.731 115.53 111.277 115.523H68.9377C68.3291 115.524 67.7455 116.005 67.3152 116.86C66.8848 117.714 66.6429 118.874 66.6426 120.083V226.488C66.6429 227.697 66.8848 228.856 67.3152 229.711C67.7455 230.566 68.3291 231.046 68.9377 231.047H111.279C111.887 231.046 112.471 230.565 112.901 229.71C113.331 228.855 113.573 227.697 113.574 226.488V120.083C113.575 119.486 113.516 118.894 113.4 118.343H113.399ZM113.063 226.488C113.062 227.428 112.874 228.33 112.539 228.995C112.205 229.659 111.751 230.034 111.277 230.035H68.9377C68.4643 230.034 68.0102 229.661 67.6754 228.996C67.3406 228.331 67.1524 227.429 67.1523 226.488V120.083C67.1529 119.143 67.3412 118.242 67.6759 117.577C68.0106 116.912 68.4644 116.538 68.9377 116.537H111.279C111.635 116.539 111.984 116.753 112.279 117.15C112.574 117.548 112.803 118.111 112.936 118.768C112.962 118.899 112.985 119.032 113.003 119.168C113.044 119.466 113.064 119.774 113.064 120.083L113.063 226.488Z" fill="#3F3D56"/>
<path d="M105.094 140.959H92.9569C92.6993 140.959 92.4524 140.792 92.2703 140.494C92.0881 140.196 91.9858 139.791 91.9858 139.37C91.9858 138.948 92.0881 138.544 92.2703 138.246C92.4524 137.948 92.6993 137.78 92.9569 137.78H105.094C105.352 137.78 105.599 137.948 105.781 138.246C105.963 138.544 106.065 138.948 106.065 139.37C106.065 139.791 105.963 140.196 105.781 140.494C105.599 140.792 105.352 140.959 105.094 140.959Z" fill="#3F3D56"/>
<path d="M105.094 151.558H92.9569C92.6993 151.558 92.4524 151.279 92.2703 150.782C92.0881 150.286 91.9858 149.612 91.9858 148.909C91.9858 148.206 92.0881 147.533 92.2703 147.036C92.4524 146.539 92.6993 146.26 92.9569 146.26H105.094C105.352 146.26 105.599 146.539 105.781 147.036C105.963 147.533 106.065 148.206 106.065 148.909C106.065 149.612 105.963 150.286 105.781 150.782C105.599 151.279 105.352 151.558 105.094 151.558Z" fill="#3F3D56"/>
<path d="M85.1482 156.858H75.3577C75.038 156.857 74.7315 156.616 74.5054 156.187C74.2793 155.758 74.1522 155.176 74.1519 154.57V132.649C74.1522 132.043 74.2793 131.461 74.5054 131.032C74.7315 130.603 75.038 130.362 75.3577 130.361H85.1482C85.4679 130.362 85.7744 130.603 86.0005 131.032C86.2266 131.461 86.3537 132.043 86.354 132.649V154.57C86.3537 155.176 86.2266 155.758 86.0005 156.187C85.7744 156.616 85.4679 156.857 85.1482 156.858Z" fill="#00C5B4"/>
<path d="M104.103 173.815H75.1759C74.9043 173.815 74.6438 173.536 74.4518 173.039C74.2597 172.542 74.1519 171.869 74.1519 171.166C74.1519 170.463 74.2597 169.789 74.4518 169.293C74.6438 168.796 74.9043 168.517 75.1759 168.517H104.103C104.237 168.517 104.37 168.585 104.494 168.718C104.619 168.851 104.732 169.047 104.827 169.293C104.922 169.539 104.997 169.831 105.049 170.152C105.1 170.474 105.127 170.818 105.127 171.166C105.127 171.514 105.1 171.858 105.049 172.18C104.997 172.501 104.922 172.793 104.827 173.039C104.732 173.285 104.619 173.48 104.494 173.614C104.37 173.747 104.237 173.815 104.103 173.815Z" fill="#BABABA" fill-opacity="0.91"/>
<path d="M104.103 184.414H75.1759C74.9043 184.414 74.6438 184.246 74.4518 183.948C74.2597 183.65 74.1519 183.246 74.1519 182.824C74.1519 182.402 74.2597 181.998 74.4518 181.7C74.6438 181.402 74.9043 181.234 75.1759 181.234H104.103C104.374 181.234 104.635 181.402 104.827 181.7C105.019 181.998 105.127 182.402 105.127 182.824C105.127 183.246 105.019 183.65 104.827 183.948C104.635 184.246 104.374 184.414 104.103 184.414Z" fill="#BABABA" fill-opacity="0.91"/>
<path d="M104.103 193.953H75.1759C74.9043 193.953 74.6438 193.785 74.4518 193.487C74.2597 193.189 74.1519 192.785 74.1519 192.363C74.1519 191.941 74.2597 191.537 74.4518 191.239C74.6438 190.941 74.9043 190.773 75.1759 190.773H104.103C104.374 190.773 104.635 190.941 104.827 191.239C105.019 191.537 105.127 191.941 105.127 192.363C105.127 192.785 105.019 193.189 104.827 193.487C104.635 193.785 104.374 193.953 104.103 193.953Z" fill="#BABABA" fill-opacity="0.91"/>
<path d="M104.103 204.551H75.1759C74.9043 204.551 74.6438 204.384 74.4518 204.086C74.2597 203.788 74.1519 203.383 74.1519 202.962C74.1519 202.54 74.2597 202.136 74.4518 201.838C74.6438 201.54 74.9043 201.372 75.1759 201.372H104.103C104.374 201.372 104.635 201.54 104.827 201.838C105.019 202.136 105.127 202.54 105.127 202.962C105.127 203.383 105.019 203.788 104.827 204.086C104.635 204.384 104.374 204.551 104.103 204.551Z" fill="#BABABA" fill-opacity="0.91"/>
<path d="M104.103 216.209H75.1759C74.9043 216.209 74.6438 215.985 74.4518 215.588C74.2597 215.19 74.1519 214.651 74.1519 214.089C74.1519 213.527 74.2597 212.988 74.4518 212.59C74.6438 212.193 74.9043 211.97 75.1759 211.97H104.103C104.374 211.97 104.635 212.193 104.827 212.59C105.019 212.988 105.127 213.527 105.127 214.089C105.127 214.651 105.019 215.19 104.827 215.588C104.635 215.985 104.374 216.209 104.103 216.209Z" fill="#BABABA" fill-opacity="0.91"/>
<path d="M91.0471 90.0875C96.7494 90.0875 101.372 81.3091 101.372 70.4803C101.372 59.6515 96.7494 50.873 91.0471 50.873C85.3448 50.873 80.7222 59.6515 80.7222 70.4803C80.7222 81.3091 85.3448 90.0875 91.0471 90.0875Z" fill="#00C5B4"/>
<path d="M90.0284 78.429C89.7849 78.4298 89.5479 78.2777 89.3531 77.9955L89.341 77.978L86.7976 74.2201C86.6796 74.0458 86.5806 73.8283 86.5061 73.5801C86.4317 73.3318 86.3833 73.0576 86.3638 72.7732C86.3443 72.4888 86.354 72.1998 86.3923 71.9227C86.4307 71.6455 86.4969 71.3857 86.5873 71.158C86.6776 70.9303 86.7904 70.7393 86.919 70.5958C87.0476 70.4523 87.1896 70.3592 87.3369 70.3218C87.4841 70.2844 87.6338 70.3034 87.7772 70.3777C87.9207 70.4521 88.0552 70.5803 88.1729 70.7551L89.8204 73.1951L93.7134 63.3857C93.8957 62.9264 94.165 62.6258 94.462 62.55C94.7591 62.4743 95.0596 62.6295 95.2974 62.9816L95.2977 62.9821L95.2736 63.0469L95.2984 62.9821C95.536 63.3347 95.6914 63.855 95.7306 64.4287C95.7697 65.0024 95.6895 65.5827 95.5074 66.0422L90.9284 77.5751C90.8225 77.8408 90.6863 78.0558 90.5303 78.2035C90.3744 78.3511 90.203 78.4274 90.0294 78.4264L90.0284 78.429Z" fill="white"/>
<path d="M24.4044 61.4709C28.0331 61.4709 30.9748 55.5395 30.9748 48.2227C30.9748 40.906 28.0331 34.9746 24.4044 34.9746C20.7757 34.9746 17.834 40.906 17.834 48.2227C17.834 55.5395 20.7757 61.4709 24.4044 61.4709Z" fill="#BABABA" fill-opacity="0.91"/>
<path d="M23.2142 51.9315C23.0434 51.9319 22.8772 51.8508 22.7405 51.7005L22.7322 51.6913L20.9478 49.6855C20.7857 49.4953 20.6809 49.2195 20.6557 48.9172C20.6306 48.6148 20.6872 48.3101 20.8134 48.0683C20.9395 47.8265 21.1252 47.6669 21.3306 47.6238C21.5359 47.5807 21.7446 47.6575 21.9119 47.8377L23.0677 49.1389L25.7988 43.9097C25.9267 43.6648 26.1156 43.5045 26.3239 43.4641C26.5323 43.4237 26.7431 43.5065 26.9099 43.6943L26.9101 43.6945L26.8931 43.7282L26.9104 43.695C27.077 43.8831 27.186 44.1604 27.2135 44.4663C27.241 44.7722 27.1847 45.0816 27.057 45.3266L23.8445 51.4777C23.7703 51.6195 23.6747 51.7342 23.5654 51.813C23.456 51.8918 23.3357 51.9325 23.2139 51.932L23.2142 51.9315Z" fill="white"/>
<path d="M43.9728 79.5677C43.8284 78.9203 43.5867 78.3669 43.2776 77.9762C42.9685 77.5854 42.6056 77.3744 42.2337 77.3691H7.5138C7.01475 77.3696 6.53621 77.7443 6.18333 78.411C5.83045 79.0777 5.63209 79.9817 5.63184 80.9245V163.901C5.63209 164.844 5.83045 165.748 6.18333 166.415C6.53621 167.081 7.01475 167.456 7.5138 167.456H42.2337C42.7326 167.455 43.2109 167.08 43.5637 166.414C43.9165 165.747 44.1149 164.844 44.1156 163.901V80.9245C44.1164 80.4588 44.0678 79.9975 43.9728 79.5677ZM43.6977 163.902C43.6969 164.634 43.5425 165.336 43.2683 165.855C42.9941 166.373 42.6224 166.664 42.2346 166.666H7.5138C7.12577 166.666 6.75363 166.374 6.47925 165.856C6.20487 165.338 6.05072 164.635 6.05072 163.902V80.9245C6.05148 80.1919 6.20587 79.4897 6.48009 78.9716C6.7543 78.4536 7.126 78.1619 7.5138 78.1605H42.2337C42.5262 78.1627 42.8118 78.3297 43.0539 78.6401C43.296 78.9505 43.4836 79.3902 43.5927 79.903C43.614 80.005 43.6324 80.1091 43.6477 80.2149C43.681 80.4476 43.698 80.6876 43.698 80.9287L43.6977 163.902Z" fill="#BABABA" fill-opacity="0.91"/>
<path d="M36.7037 96.4466H26.1844C25.9612 96.4466 25.7471 96.335 25.5893 96.1362C25.4314 95.9375 25.3428 95.6679 25.3428 95.3869C25.3428 95.1058 25.4314 94.8363 25.5893 94.6375C25.7471 94.4388 25.9612 94.3271 26.1844 94.3271H36.7034C36.9266 94.3271 37.1406 94.4388 37.2985 94.6375C37.4563 94.8363 37.5449 95.1058 37.5449 95.3869C37.5449 95.6679 37.4563 95.9375 37.2985 96.1362C37.1406 96.335 36.9266 96.4466 36.7034 96.4466H36.7037Z" fill="#BABABA" fill-opacity="0.91"/>
<path d="M36.7037 105.985H26.1844C25.9612 105.985 25.7471 105.817 25.5893 105.519C25.4314 105.221 25.3428 104.817 25.3428 104.395C25.3428 103.974 25.4314 103.569 25.5893 103.271C25.7471 102.973 25.9612 102.806 26.1844 102.806H36.7034C36.9266 102.806 37.1406 102.973 37.2985 103.271C37.4563 103.569 37.5449 103.974 37.5449 104.395C37.5449 104.817 37.4563 105.221 37.2985 105.519C37.1406 105.817 36.9266 105.985 36.7034 105.985H36.7037Z" fill="#BABABA" fill-opacity="0.91"/>
<path d="M20.661 110.224H13.1296C12.8837 110.224 12.648 110.04 12.4741 109.714C12.3002 109.388 12.2024 108.946 12.2021 108.486V91.8255C12.2024 91.3645 12.3002 90.9226 12.4741 90.5966C12.648 90.2707 12.8837 90.0874 13.1296 90.0869H20.661C20.9068 90.0875 21.1426 90.2709 21.3164 90.5968C21.4903 90.9227 21.5881 91.3646 21.5884 91.8255V108.486C21.5882 108.946 21.4904 109.388 21.3165 109.714C21.1426 110.04 20.9069 110.224 20.661 110.224Z" fill="#BABABA" fill-opacity="0.91"/>
<path d="M36.7073 122.942H13.04C12.8178 122.942 12.6047 122.774 12.4475 122.476C12.2904 122.178 12.2021 121.774 12.2021 121.352C12.2021 120.931 12.2904 120.526 12.4475 120.228C12.6047 119.93 12.8178 119.763 13.04 119.763H36.7073C36.9295 119.763 37.1426 119.93 37.2997 120.228C37.4569 120.526 37.5451 120.931 37.5451 121.352C37.5451 121.774 37.4569 122.178 37.2997 122.476C37.1426 122.774 36.9295 122.942 36.7073 122.942Z" fill="#BABABA" fill-opacity="0.91"/>
<path d="M36.7073 130.361H13.04C12.8178 130.361 12.6047 130.193 12.4475 129.895C12.2904 129.597 12.2021 129.193 12.2021 128.771C12.2021 128.35 12.2904 127.945 12.4475 127.647C12.6047 127.349 12.8178 127.182 13.04 127.182H36.7073C36.9295 127.182 37.1426 127.349 37.2997 127.647C37.4569 127.945 37.5451 128.35 37.5451 128.771C37.5451 129.193 37.4569 129.597 37.2997 129.895C37.1426 130.193 36.9295 130.361 36.7073 130.361Z" fill="#BABABA" fill-opacity="0.91"/>
<path d="M36.7073 138.84H13.04C12.8178 138.84 12.6047 138.673 12.4475 138.375C12.2904 138.077 12.2021 137.672 12.2021 137.251C12.2021 136.829 12.2904 136.425 12.4475 136.127C12.6047 135.829 12.8178 135.661 13.04 135.661H36.7073C36.9295 135.661 37.1426 135.829 37.2997 136.127C37.4569 136.425 37.5451 136.829 37.5451 137.251C37.5451 137.672 37.4569 138.077 37.2997 138.375C37.1426 138.673 36.9295 138.84 36.7073 138.84Z" fill="#BABABA" fill-opacity="0.91"/>
<path d="M36.7073 146.259H13.04C12.8178 146.259 12.6047 146.147 12.4475 145.949C12.2904 145.75 12.2021 145.48 12.2021 145.199C12.2021 144.918 12.2904 144.649 12.4475 144.45C12.6047 144.251 12.8178 144.14 13.04 144.14H36.7073C36.9295 144.14 37.1426 144.251 37.2997 144.45C37.4569 144.649 37.5451 144.918 37.5451 145.199C37.5451 145.48 37.4569 145.75 37.2997 145.949C37.1426 146.147 36.9295 146.259 36.7073 146.259Z" fill="#BABABA" fill-opacity="0.91"/>
<path d="M36.7073 155.797H13.04C12.8178 155.797 12.6047 155.63 12.4475 155.332C12.2904 155.034 12.2021 154.629 12.2021 154.208C12.2021 153.786 12.2904 153.382 12.4475 153.084C12.6047 152.786 12.8178 152.618 13.04 152.618H36.7073C36.9295 152.618 37.1426 152.786 37.2997 153.084C37.4569 153.382 37.5451 153.786 37.5451 154.208C37.5451 154.629 37.4569 155.034 37.2997 155.332C37.1426 155.63 36.9295 155.797 36.7073 155.797Z" fill="#BABABA" fill-opacity="0.91"/>
<path d="M0.249215 168.516H48.5609C48.6266 168.516 48.6897 168.46 48.7361 168.361C48.7826 168.261 48.8087 168.126 48.8087 167.986C48.8087 167.845 48.7826 167.711 48.7361 167.611C48.6897 167.512 48.6266 167.456 48.5609 167.456H0.249215C0.216673 167.456 0.184413 167.469 0.154277 167.495C0.124142 167.522 0.0967218 167.56 0.0735805 167.609C0.0504393 167.658 0.0320335 167.716 0.0194095 167.78C0.00678549 167.845 0.000188828 167.913 3.99721e-06 167.983C-0.000180834 168.052 0.00604599 168.121 0.0183285 168.186C0.0306109 168.25 0.0487116 168.309 0.0715915 168.358C0.0944713 168.408 0.121684 168.447 0.151678 168.474C0.181672 168.501 0.213858 168.515 0.246399 168.516H0.249215Z" fill="#BABABA" fill-opacity="0.91"/>
<path d="M156.282 61.4709C160.17 61.4709 163.322 55.5395 163.322 48.2227C163.322 40.906 160.17 34.9746 156.282 34.9746C152.394 34.9746 149.242 40.906 149.242 48.2227C149.242 55.5395 152.394 61.4709 156.282 61.4709Z" fill="#BABABA" fill-opacity="0.91"/>
<path d="M155.195 51.9315C155.048 51.9319 154.906 51.8508 154.789 51.7005L154.781 51.6913L153.252 49.6855C153.113 49.4953 153.023 49.2195 153.002 48.9172C152.98 48.6148 153.029 48.3101 153.137 48.0683C153.245 47.8265 153.404 47.6669 153.58 47.6238C153.756 47.5807 153.935 47.6575 154.078 47.8377L155.069 49.1389L157.41 43.9097C157.52 43.6648 157.681 43.5045 157.86 43.4641C158.039 43.4237 158.219 43.5065 158.362 43.6943L158.362 43.6945L158.348 43.7282L158.363 43.695C158.506 43.8831 158.599 44.1604 158.623 44.4663C158.646 44.7722 158.598 45.0816 158.488 45.3266L155.735 51.4777C155.671 51.6195 155.589 51.7342 155.496 51.813C155.402 51.8918 155.299 51.9325 155.194 51.932L155.195 51.9315Z" fill="white"/>
<path d="M175.384 79.5677C175.243 78.9203 175.008 78.3669 174.706 77.9762C174.405 77.5854 174.05 77.3744 173.688 77.3691H139.815C139.328 77.3696 138.861 77.7443 138.517 78.411C138.172 79.0777 137.979 79.9817 137.979 80.9245V163.901C137.979 164.844 138.172 165.748 138.517 166.415C138.861 167.081 139.328 167.456 139.815 167.456H173.688C174.174 167.455 174.641 167.08 174.985 166.414C175.329 165.747 175.523 164.844 175.524 163.901V80.9245C175.524 80.4588 175.477 79.9975 175.384 79.5677ZM175.116 163.902C175.115 164.634 174.965 165.336 174.697 165.855C174.43 166.373 174.067 166.664 173.689 166.666H139.815C139.627 166.666 139.442 166.594 139.268 166.455C139.095 166.316 138.938 166.113 138.805 165.856C138.673 165.599 138.568 165.295 138.496 164.959C138.424 164.624 138.387 164.265 138.387 163.902V80.9245C138.388 80.1919 138.539 79.4897 138.806 78.9716C139.074 78.4536 139.436 78.1619 139.815 78.1605H173.688C173.973 78.1627 174.252 78.3297 174.488 78.6401C174.724 78.9505 174.907 79.3902 175.014 79.903C175.034 80.005 175.052 80.1091 175.067 80.2149C175.1 80.4476 175.116 80.6876 175.116 80.9287L175.116 163.902Z" fill="#BABABA" fill-opacity="0.91"/>
<path d="M168.112 96.4466H157.593C157.369 96.4466 157.155 96.335 156.997 96.1362C156.84 95.9375 156.751 95.6679 156.751 95.3869C156.751 95.1058 156.84 94.8363 156.997 94.6375C157.155 94.4388 157.369 94.3271 157.593 94.3271H168.112C168.335 94.3271 168.549 94.4388 168.707 94.6375C168.865 94.8363 168.953 95.1058 168.953 95.3869C168.953 95.6679 168.865 95.9375 168.707 96.1362C168.549 96.335 168.335 96.4466 168.112 96.4466H168.112Z" fill="#BABABA" fill-opacity="0.91"/>
<path d="M168.112 105.985H157.593C157.369 105.985 157.155 105.817 156.997 105.519C156.84 105.221 156.751 104.817 156.751 104.395C156.751 103.974 156.84 103.569 156.997 103.271C157.155 102.973 157.369 102.806 157.593 102.806H168.112C168.335 102.806 168.549 102.973 168.707 103.271C168.865 103.569 168.953 103.974 168.953 104.395C168.953 104.817 168.865 105.221 168.707 105.519C168.549 105.817 168.335 105.985 168.112 105.985H168.112Z" fill="#BABABA" fill-opacity="0.91"/>
<path d="M153.854 110.224H145.569C145.299 110.224 145.039 110.04 144.848 109.714C144.657 109.388 144.549 108.946 144.549 108.486V91.8255C144.549 91.3645 144.657 90.9226 144.848 90.5966C145.039 90.2707 145.299 90.0874 145.569 90.0869H153.854C154.124 90.0875 154.383 90.2709 154.575 90.5968C154.766 90.9227 154.873 91.3646 154.874 91.8255V108.486C154.873 108.946 154.766 109.388 154.575 109.714C154.383 110.04 154.124 110.224 153.854 110.224Z" fill="#BABABA" fill-opacity="0.91"/>
<path d="M168.115 122.942H144.448C144.226 122.942 144.013 122.774 143.856 122.476C143.699 122.178 143.61 121.774 143.61 121.352C143.61 120.931 143.699 120.526 143.856 120.228C144.013 119.93 144.226 119.763 144.448 119.763H168.115C168.338 119.763 168.551 119.93 168.708 120.228C168.865 120.526 168.953 120.931 168.953 121.352C168.953 121.774 168.865 122.178 168.708 122.476C168.551 122.774 168.338 122.942 168.115 122.942Z" fill="#BABABA" fill-opacity="0.91"/>
<path d="M168.115 130.361H144.448C144.226 130.361 144.013 130.193 143.856 129.895C143.699 129.597 143.61 129.193 143.61 128.771C143.61 128.35 143.699 127.945 143.856 127.647C144.013 127.349 144.226 127.182 144.448 127.182H168.115C168.338 127.182 168.551 127.349 168.708 127.647C168.865 127.945 168.953 128.35 168.953 128.771C168.953 129.193 168.865 129.597 168.708 129.895C168.551 130.193 168.338 130.361 168.115 130.361Z" fill="#BABABA" fill-opacity="0.91"/>
<path d="M168.115 138.84H144.448C144.226 138.84 144.013 138.673 143.856 138.375C143.699 138.077 143.61 137.672 143.61 137.251C143.61 136.829 143.699 136.425 143.856 136.127C144.013 135.829 144.226 135.661 144.448 135.661H168.115C168.338 135.661 168.551 135.829 168.708 136.127C168.865 136.425 168.953 136.829 168.953 137.251C168.953 137.672 168.865 138.077 168.708 138.375C168.551 138.673 168.338 138.84 168.115 138.84Z" fill="#BABABA" fill-opacity="0.91"/>
<path d="M168.115 146.259H144.448C144.226 146.259 144.013 146.147 143.856 145.949C143.699 145.75 143.61 145.48 143.61 145.199C143.61 144.918 143.699 144.649 143.856 144.45C144.013 144.251 144.226 144.14 144.448 144.14H168.115C168.338 144.14 168.551 144.251 168.708 144.45C168.865 144.649 168.953 144.918 168.953 145.199C168.953 145.48 168.865 145.75 168.708 145.949C168.551 146.147 168.338 146.259 168.115 146.259Z" fill="#BABABA" fill-opacity="0.91"/>
<path d="M168.115 155.797H144.448C144.226 155.797 144.013 155.63 143.856 155.332C143.699 155.034 143.61 154.629 143.61 154.208C143.61 153.786 143.699 153.382 143.856 153.084C144.013 152.786 144.226 152.618 144.448 152.618H168.115C168.338 152.618 168.551 152.786 168.708 153.084C168.865 153.382 168.953 153.786 168.953 154.208C168.953 154.629 168.865 155.034 168.708 155.332C168.551 155.63 168.338 155.797 168.115 155.797Z" fill="#BABABA" fill-opacity="0.91"/>
<path d="M131.657 168.516H179.969C180.035 168.516 180.098 168.46 180.144 168.361C180.191 168.261 180.217 168.126 180.217 167.986C180.217 167.845 180.191 167.711 180.144 167.611C180.098 167.512 180.035 167.456 179.969 167.456H131.657C131.625 167.456 131.593 167.469 131.562 167.495C131.532 167.522 131.505 167.56 131.482 167.609C131.459 167.658 131.44 167.716 131.428 167.78C131.415 167.845 131.408 167.913 131.408 167.983C131.408 168.052 131.414 168.121 131.427 168.186C131.439 168.25 131.457 168.309 131.48 168.358C131.503 168.408 131.53 168.447 131.56 168.474C131.59 168.501 131.622 168.515 131.655 168.516H131.657Z" fill="#BABABA" fill-opacity="0.91"/>
<path d="M59.4483 232.108H120.769C120.852 232.108 120.932 232.052 120.991 231.952C121.05 231.853 121.083 231.718 121.083 231.578C121.083 231.437 121.05 231.302 120.991 231.203C120.932 231.104 120.852 231.048 120.769 231.048H59.4483C59.3649 231.048 59.2849 231.104 59.2259 231.203C59.1669 231.302 59.1338 231.437 59.1338 231.578C59.1338 231.718 59.1669 231.853 59.2259 231.952C59.2849 232.052 59.3649 232.108 59.4483 232.108Z" fill="#3F3D56"/>
</svg>
