<svg width="261" height="265" viewBox="0 0 261 265" fill="none" xmlns="http://www.w3.org/2000/svg">
<path d="M259.977 73.4246C259.967 73.4684 259.951 73.5105 259.93 73.5497C258.2 77.0656 256.509 80.5994 254.856 84.151C254.57 84.7631 254.283 85.3796 254.001 85.9916V82.9537C254.283 82.3461 254.568 81.7386 254.856 81.131C256.133 78.4237 257.431 75.7283 258.751 73.0448C258.765 73.0135 258.783 72.9836 258.802 72.9555C259.195 72.3658 260.169 72.7678 259.977 73.4246Z" fill="white"/>
<path d="M255 16.2457V50.8689H254.242V50.4999H0.757801V50.8689H0V16.2457C0.00325414 12.2597 1.32165 8.43805 3.66585 5.61952C6.01004 2.80099 9.18852 1.21583 12.5037 1.21191H242.496C245.811 1.21583 248.99 2.80099 251.334 5.61952C253.678 8.43805 254.997 12.2597 255 16.2457Z" fill="#00C5B4"/>
<mask id="path-3-inside-1" fill="white">
<path d="M242.496 0H12.5037C9.18852 0.00397348 6.01004 1.61381 3.66585 4.4762C1.32165 7.33859 0.00325414 11.2197 0 15.2677V216.061C0.00325414 220.109 1.32165 223.991 3.66585 226.853C6.01004 229.715 9.18852 231.325 12.5037 231.329H242.496C245.811 231.325 248.99 229.715 251.334 226.853C253.678 223.991 254.997 220.109 255 216.061V15.2677C254.997 11.2197 253.678 7.33859 251.334 4.4762C248.99 1.61381 245.811 0.00397348 242.496 0ZM254.242 216.061C254.238 219.864 252.999 223.509 250.798 226.198C248.596 228.886 245.61 230.399 242.496 230.404H12.5037C9.38972 230.399 6.40441 228.886 4.20248 226.198C2.00056 223.509 0.761774 219.864 0.757801 216.061V15.2677C0.761774 11.4654 2.00056 7.82014 4.20248 5.13147C6.40441 2.4428 9.38972 0.930168 12.5037 0.925317H242.496C245.61 0.930169 248.596 2.4428 250.798 5.13147C252.999 7.82014 254.238 11.4654 254.242 15.2677V216.061Z"/>
</mask>
<path d="M242.496 0H12.5037C9.18852 0.00397348 6.01004 1.61381 3.66585 4.4762C1.32165 7.33859 0.00325414 11.2197 0 15.2677V216.061C0.00325414 220.109 1.32165 223.991 3.66585 226.853C6.01004 229.715 9.18852 231.325 12.5037 231.329H242.496C245.811 231.325 248.99 229.715 251.334 226.853C253.678 223.991 254.997 220.109 255 216.061V15.2677C254.997 11.2197 253.678 7.33859 251.334 4.4762C248.99 1.61381 245.811 0.00397348 242.496 0ZM254.242 216.061C254.238 219.864 252.999 223.509 250.798 226.198C248.596 228.886 245.61 230.399 242.496 230.404H12.5037C9.38972 230.399 6.40441 228.886 4.20248 226.198C2.00056 223.509 0.761774 219.864 0.757801 216.061V15.2677C0.761774 11.4654 2.00056 7.82014 4.20248 5.13147C6.40441 2.4428 9.38972 0.930168 12.5037 0.925317H242.496C245.61 0.930169 248.596 2.4428 250.798 5.13147C252.999 7.82014 254.238 11.4654 254.242 15.2677V216.061Z" fill="#333333"/>
<path d="M12.5037 0V-2L12.5013 -2L12.5037 0ZM0 15.2677L-2 15.2661V15.2677H0ZM0 216.061H-2L-2 216.063L0 216.061ZM12.5037 231.329L12.5013 233.329H12.5037V231.329ZM242.496 231.329V233.329H242.499L242.496 231.329ZM255 216.061L257 216.063V216.061H255ZM255 15.2677H257L257 15.2661L255 15.2677ZM254.242 216.061L256.242 216.063V216.061H254.242ZM242.496 230.404V232.404H242.499L242.496 230.404ZM12.5037 230.404L12.5006 232.404H12.5037V230.404ZM0.757801 216.061H-1.2422L-1.2422 216.063L0.757801 216.061ZM0.757801 15.2677L-1.2422 15.2656V15.2677H0.757801ZM12.5037 0.925317V-1.07469L12.5006 -1.07468L12.5037 0.925317ZM242.496 0.925317L242.499 -1.07468H242.496V0.925317ZM254.242 15.2677H256.242V15.2656L254.242 15.2677ZM242.496 -2H12.5037V2H242.496V-2ZM12.5013 -2C8.51308 -1.99522 4.79229 -0.0558189 2.11852 3.209L5.21317 5.7434C7.22779 3.28343 9.86397 2.00317 12.5061 2L12.5013 -2ZM2.11852 3.209C-0.546166 6.46273 -1.99641 10.803 -2 15.2661L2 15.2693C2.00292 11.6363 3.18946 8.21445 5.21317 5.7434L2.11852 3.209ZM-2 15.2677V216.061H2V15.2677H-2ZM-2 216.063C-1.99641 220.526 -0.546165 224.866 2.11852 228.12L5.21317 225.586C3.18946 223.115 2.00292 219.693 2 216.06L-2 216.063ZM2.11852 228.12C4.79229 231.385 8.51307 233.324 12.5013 233.329L12.5061 229.329C9.86397 229.326 7.2278 228.046 5.21317 225.586L2.11852 228.12ZM12.5037 233.329H242.496V229.329H12.5037V233.329ZM242.499 233.329C246.487 233.324 250.208 231.385 252.881 228.12L249.787 225.586C247.772 228.046 245.136 229.326 242.494 229.329L242.499 233.329ZM252.881 228.12C255.546 224.866 256.996 220.526 257 216.063L253 216.06C252.997 219.693 251.811 223.115 249.787 225.586L252.881 228.12ZM257 216.061V15.2677H253V216.061H257ZM257 15.2661C256.996 10.803 255.546 6.46273 252.881 3.209L249.787 5.7434C251.811 8.21445 252.997 11.6363 253 15.2693L257 15.2661ZM252.881 3.209C250.208 -0.0558171 246.487 -1.99522 242.499 -2L242.494 2C245.136 2.00317 247.772 3.28343 249.787 5.7434L252.881 3.209ZM252.242 216.059C252.239 219.447 251.132 222.633 249.25 224.93L252.345 227.465C254.867 224.385 256.238 220.281 256.242 216.063L252.242 216.059ZM249.25 224.93C247.378 227.217 244.934 228.4 242.493 228.404L242.499 232.404C246.286 232.398 249.813 230.556 252.345 227.465L249.25 224.93ZM242.496 228.404H12.5037V232.404H242.496V228.404ZM12.5068 228.404C10.0656 228.4 7.62229 227.217 5.74981 224.93L2.65516 227.465C5.18653 230.556 8.71386 232.398 12.5006 232.404L12.5068 228.404ZM5.74981 224.93C3.86826 222.633 2.76134 219.447 2.7578 216.059L-1.2422 216.063C-1.23779 220.281 0.132859 224.385 2.65516 227.465L5.74981 224.93ZM2.7578 216.061V15.2677H-1.2422V216.061H2.7578ZM2.7578 15.2698C2.76134 11.8824 3.86826 8.69615 5.74981 6.39867L2.65516 3.86427C0.132861 6.94414 -1.23779 11.0484 -1.2422 15.2656L2.7578 15.2698ZM5.74981 6.39867C7.62229 4.11226 10.0656 2.92912 12.5068 2.92531L12.5006 -1.07468C8.71385 -1.06878 5.18653 0.773337 2.65516 3.86427L5.74981 6.39867ZM12.5037 2.92532H242.496V-1.07468H12.5037V2.92532ZM242.493 2.92531C244.934 2.92912 247.378 4.11226 249.25 6.39867L252.345 3.86427C249.813 0.773339 246.286 -1.06878 242.499 -1.07468L242.493 2.92531ZM249.25 6.39867C251.132 8.69615 252.239 11.8824 252.242 15.2698L256.242 15.2656C256.238 11.0484 254.867 6.94414 252.345 3.86427L249.25 6.39867ZM252.242 15.2677V216.061H256.242V15.2677H252.242Z" fill="#333333" mask="url(#path-3-inside-1)"/>
<path d="M51.9985 35.1232C55.8645 35.1232 58.9985 31.0564 58.9985 26.0396C58.9985 21.0229 55.8645 16.9561 51.9985 16.9561C48.1325 16.9561 44.9985 21.0229 44.9985 26.0396C44.9985 31.0564 48.1325 35.1232 51.9985 35.1232Z" fill="white"/>
<path d="M203.497 35.1232C207.639 35.1232 210.997 31.0564 210.997 26.0396C210.997 21.0229 207.639 16.9561 203.497 16.9561C199.354 16.9561 195.997 21.0229 195.997 26.0396C195.997 31.0564 199.354 35.1232 203.497 35.1232Z" fill="white"/>
<path d="M73.8565 128.382H29.1454C27.2513 128.379 25.4353 127.451 24.0959 125.803C22.7565 124.154 22.0031 121.919 22.001 119.587V93.5747C22.0031 91.2431 22.7565 89.0077 24.0959 87.359C25.4353 85.7103 27.2513 84.7829 29.1454 84.7803H73.8565C75.7507 84.7829 77.5666 85.7103 78.906 87.359C80.2454 89.0077 80.9988 91.2431 81.001 93.5747V119.587C80.9988 121.919 80.2454 124.154 78.906 125.803C77.5666 127.451 75.7507 128.379 73.8565 128.382Z" fill="#00C5B4"/>
<path d="M150.736 128.382H105.267C103.341 128.379 101.494 127.451 100.132 125.803C98.7698 124.154 98.0036 121.919 98.0015 119.587V93.5747C98.0036 91.2431 98.7698 89.0077 100.132 87.359C101.494 85.7103 103.341 84.7829 105.267 84.7803H150.736C152.662 84.7829 154.509 85.7103 155.871 87.359C157.233 89.0077 157.999 91.2431 158.001 93.5747V119.587C157.999 121.919 157.233 124.154 155.871 125.803C154.509 127.451 152.662 128.379 150.736 128.382Z" fill="#00C5B4"/>
<path d="M150.57 194.996H105.433C103.462 194.993 101.574 194.049 100.18 192.371C98.7873 190.693 98.0037 188.418 98.0015 186.044V160.346C98.0037 157.973 98.7873 155.697 100.18 154.019C101.574 152.341 103.462 151.397 105.433 151.395H150.57C152.54 151.397 154.429 152.341 155.822 154.019C157.216 155.697 157.999 157.973 158.001 160.346V186.044C157.999 188.418 157.216 190.693 155.822 192.371C154.429 194.049 152.54 194.993 150.57 194.996Z" fill="#C4C4C4"/>
<path d="M73.5669 194.996H28.4292C26.459 194.993 24.5702 194.049 23.177 192.371C21.7839 190.693 21.0003 188.418 20.998 186.044V160.346C21.0003 157.973 21.7839 155.697 23.177 154.019C24.5702 152.341 26.459 151.397 28.4292 151.395H73.5669C75.537 151.397 77.4259 152.341 78.819 154.019C80.2122 155.697 80.9958 157.973 80.998 160.346V186.044C80.9958 188.418 80.2122 190.693 78.819 192.371C77.4259 194.049 75.537 194.993 73.5669 194.996Z" fill="#C4C4C4"/>
<path d="M226.691 194.996H182.306C180.369 194.993 178.511 194.049 177.141 192.371C175.771 190.693 175.001 188.418 174.999 186.044V160.346C175.001 157.973 175.771 155.697 177.141 154.019C178.511 152.341 180.369 151.397 182.306 151.395H226.691C228.629 151.397 230.486 152.341 231.856 154.019C233.226 155.697 233.996 157.973 233.999 160.346V186.044C233.996 188.418 233.226 190.693 231.856 192.371C230.486 194.049 228.629 194.993 226.691 194.996Z" fill="#C4C4C4"/>
<path d="M226.691 128.382H182.306C180.369 128.379 178.511 127.435 177.141 125.757C175.771 124.079 175.001 121.803 174.999 119.43V93.7317C175.001 91.3585 175.771 89.0832 177.141 87.405C178.511 85.7269 180.369 84.7829 182.306 84.7803H226.691C228.629 84.7829 230.486 85.7269 231.856 87.405C233.226 89.0832 233.996 91.3585 233.999 93.7317V119.43C233.996 121.803 233.226 124.079 231.856 125.757C230.486 127.435 228.629 128.379 226.691 128.382Z" fill="#C4C4C4"/>
<path d="M51 122.326C57.6274 122.326 63 115.547 63 107.186C63 98.825 57.6274 92.0469 51 92.0469C44.3726 92.0469 39 98.825 39 107.186C39 115.547 44.3726 122.326 51 122.326Z" fill="white"/>
<path d="M50.308 111.426C50.0226 111.426 49.7448 111.333 49.5165 111.161L49.5023 111.151L46.5214 108.858C46.3831 108.752 46.2671 108.62 46.1799 108.469C46.0926 108.317 46.0359 108.15 46.013 107.977C45.9901 107.804 46.0014 107.628 46.0463 107.459C46.0911 107.29 46.1687 107.132 46.2746 106.993C46.3804 106.854 46.5124 106.738 46.6631 106.65C46.8138 106.563 46.9802 106.506 47.1527 106.483C47.3252 106.46 47.5005 106.472 47.6686 106.517C47.8367 106.562 47.9943 106.64 48.1323 106.747L50.0632 108.234L54.626 102.257C54.7318 102.119 54.8638 102.002 55.0144 101.915C55.165 101.827 55.3312 101.771 55.5037 101.748C55.6761 101.725 55.8513 101.736 56.0193 101.782C56.1873 101.827 56.3448 101.905 56.4828 102.011L56.4545 102.05L56.4835 102.012C56.7619 102.226 56.9441 102.543 56.9901 102.893C57.036 103.243 56.942 103.596 56.7287 103.876L51.3617 110.906C51.2375 111.068 51.0779 111.2 50.8952 111.29C50.7125 111.38 50.5115 111.426 50.308 111.426Z" fill="#00C5B4"/>
<path d="M128.003 121.114C134.63 121.114 140.003 114.607 140.003 106.581C140.003 98.5539 134.63 92.0469 128.003 92.0469C121.376 92.0469 116.003 98.5539 116.003 106.581C116.003 114.607 121.376 121.114 128.003 121.114Z" fill="white"/>
<path d="M126.913 111.426C126.654 111.426 126.401 111.322 126.193 111.129L126.181 111.117L123.47 108.538C123.217 108.296 123.051 107.94 123.009 107.546C122.967 107.153 123.053 106.755 123.247 106.44C123.441 106.125 123.728 105.919 124.045 105.866C124.361 105.814 124.681 105.921 124.935 106.162L126.69 107.835L130.839 101.111C130.935 100.955 131.055 100.824 131.192 100.726C131.329 100.628 131.48 100.564 131.637 100.538C131.794 100.513 131.953 100.525 132.106 100.576C132.258 100.627 132.402 100.715 132.527 100.834L132.501 100.878L132.528 100.835C132.781 101.077 132.946 101.433 132.988 101.827C133.03 102.22 132.944 102.618 132.751 102.933L127.871 110.842C127.758 111.024 127.613 111.171 127.447 111.273C127.281 111.374 127.098 111.426 126.913 111.426Z" fill="#00C5B4"/>
<path d="M209.997 176.402C210.375 175.87 210.657 175.238 210.825 174.55C210.992 173.862 211.04 173.135 210.966 172.42C210.892 171.705 210.697 171.02 210.395 170.413C210.094 169.806 209.692 169.291 209.22 168.906L202.803 124.748L195 128.478L203.761 170.71C203.311 171.777 203.18 173.019 203.393 174.202C203.606 175.384 204.149 176.425 204.917 177.127C205.686 177.828 206.628 178.142 207.564 178.009C208.5 177.875 209.366 177.304 209.997 176.402Z" fill="#A0616A"/>
<path d="M144.583 109.024C144.603 109.307 144.606 109.592 144.591 109.875L160.699 125.411L165.267 123.061L168.999 131.236L161.235 136.382C160.607 136.798 159.89 136.948 159.189 136.809C158.488 136.67 157.842 136.249 157.348 135.611L141.247 114.809C140.395 115.05 139.505 114.96 138.694 114.551C137.884 114.142 137.192 113.434 136.71 112.52C136.229 111.606 135.981 110.531 135.999 109.436C136.018 108.342 136.302 107.28 136.813 106.392C137.325 105.505 138.04 104.834 138.864 104.468C139.687 104.102 140.58 104.059 141.423 104.345C142.267 104.631 143.021 105.231 143.585 106.067C144.15 106.903 144.497 107.934 144.583 109.024H144.583Z" fill="#A0616A"/>
<path d="M183.997 255.553H179.255L176.998 238.597L183.998 238.597L183.997 255.553Z" fill="#A0616A"/>
<path d="M185 261.608L169 261.607V261.378C169 260.454 169.161 259.539 169.474 258.685C169.787 257.831 170.246 257.056 170.824 256.402C171.402 255.749 172.089 255.23 172.844 254.876C173.6 254.523 174.41 254.341 175.228 254.341H175.228L185 254.341L185 261.608Z" fill="#2F2E41"/>
<path d="M201.002 255.553H196.26L194.003 238.597L201.003 238.597L201.002 255.553Z" fill="#A0616A"/>
<path d="M203.002 261.608L187.002 261.607V261.378C187.002 260.454 187.163 259.539 187.476 258.685C187.789 257.831 188.248 257.056 188.826 256.402C189.404 255.749 190.091 255.23 190.846 254.876C191.602 254.523 192.412 254.341 193.23 254.341H193.23L203.002 254.341L203.002 261.608Z" fill="#2F2E41"/>
<path d="M176.502 251.829C176.096 251.83 175.704 251.64 175.403 251.296C175.103 250.952 174.915 250.48 174.877 249.972L171 184.446L171.183 184.428L197.87 181.672L197.877 181.91L199.998 249.79C200.007 250.065 199.97 250.34 199.892 250.598C199.814 250.856 199.695 251.091 199.542 251.29C199.39 251.489 199.207 251.647 199.005 251.755C198.803 251.863 198.586 251.918 198.366 251.918H193.133C192.743 251.921 192.365 251.746 192.068 251.426C191.772 251.107 191.577 250.664 191.519 250.178L184.413 195.344C184.406 195.287 184.383 195.236 184.347 195.2C184.311 195.164 184.266 195.147 184.221 195.151C184.175 195.155 184.133 195.181 184.101 195.223C184.07 195.264 184.053 195.319 184.052 195.377L183.73 249.517C183.727 250.04 183.565 250.542 183.277 250.92C182.99 251.298 182.598 251.524 182.183 251.552L176.589 251.826C176.56 251.828 176.531 251.829 176.502 251.829Z" fill="#2F2E41"/>
<path d="M181.502 99.3144C186.749 99.3144 191.002 94.4341 191.002 88.414C191.002 82.3939 186.749 77.5137 181.502 77.5137C176.256 77.5137 172.002 82.3939 172.002 88.414C172.002 94.4341 176.256 99.3144 181.502 99.3144Z" fill="#A0616A"/>
<path d="M182.918 187.728C178.854 187.713 174.81 187.044 170.892 185.737C170.515 185.604 170.187 185.317 169.964 184.926C169.741 184.534 169.636 184.061 169.667 183.587C170.919 160.794 171.213 143.106 168.581 130.868C167.459 125.652 167.969 120.159 169.978 115.796C173.003 109.231 178.562 105.236 184.492 105.374C184.775 105.38 185.062 105.392 185.351 105.41C194.35 105.972 201.362 115.836 200.982 127.4L199.172 182.517C199.166 182.92 199.061 183.31 198.871 183.64C198.682 183.971 198.415 184.225 198.106 184.372C193.251 186.586 188.106 187.722 182.918 187.728Z" fill="#3F3D56"/>
<path d="M170.326 135.817L163.484 124.716C163.289 124.4 163.148 124.032 163.071 123.638C162.993 123.243 162.981 122.831 163.034 122.43C163.087 122.028 163.206 121.647 163.38 121.311C163.555 120.975 163.783 120.694 164.047 120.485L173.315 113.173C174.541 111.863 176.109 111.25 177.676 111.469C179.243 111.688 180.68 112.721 181.672 114.341C182.665 115.961 183.131 118.036 182.97 120.111C182.809 122.186 182.033 124.092 180.812 125.41L173.569 135.934C173.361 136.236 173.107 136.474 172.824 136.634C172.541 136.793 172.235 136.87 171.927 136.859C171.619 136.848 171.317 136.749 171.04 136.569C170.764 136.389 170.52 136.132 170.326 135.817Z" fill="#3F3D56"/>
<path d="M192.643 134.203C192.372 134.046 192.131 133.814 191.935 133.524C191.739 133.234 191.594 132.893 191.509 132.524L188.541 119.619C187.896 117.832 187.823 115.786 188.338 113.93C188.853 112.073 189.914 110.558 191.287 109.716C192.661 108.874 194.235 108.775 195.665 109.439C197.095 110.104 198.263 111.478 198.915 113.261L204.655 124.527C204.819 124.849 204.928 125.212 204.974 125.593C205.02 125.974 205.002 126.364 204.921 126.735C204.841 127.106 204.7 127.45 204.508 127.744C204.316 128.038 204.078 128.275 203.809 128.439L194.363 134.185C194.094 134.348 193.801 134.435 193.505 134.438C193.208 134.441 192.914 134.361 192.643 134.203Z" fill="#3F3D56"/>
<path d="M185.863 97.9455L178.85 96.0128C178.127 95.8135 177.258 95.4331 177.158 94.5478C177.023 93.3581 178.445 92.5293 178.314 91.339C178.187 90.1861 176.891 90.0375 175.968 89.6972C175.108 89.3339 174.399 88.5818 173.991 87.6002C173.583 86.6185 173.509 85.4843 173.783 84.4376C172.784 86.1333 170.501 86.2785 169.205 84.9047C167.909 83.5309 167.66 81.0384 168.438 79.1825C168.859 78.2709 169.452 77.4916 170.17 76.9081C170.888 76.3246 171.71 75.9533 172.569 75.8244C174.297 75.5884 176.044 75.9806 177.585 76.9504C177.688 75.6363 179.05 75.1035 180.146 75.0918C182.423 75.1237 184.635 76.0096 186.475 77.6262C188.314 79.2427 189.689 81.5094 190.408 84.111C191.753 89.3297 190.854 95.0502 187.09 98.1037L185.863 97.9455Z" fill="#2F2E41"/>
<path d="M259.617 264.03H113.385C113.283 264.03 113.185 263.966 113.113 263.852C113.041 263.739 113.001 263.585 113.001 263.424C113.001 263.263 113.041 263.109 113.113 262.996C113.185 262.882 113.283 262.818 113.385 262.818H259.617C259.719 262.818 259.817 262.882 259.889 262.996C259.961 263.109 260.001 263.263 260.001 263.424C260.001 263.585 259.961 263.739 259.889 263.852C259.817 263.966 259.719 264.03 259.617 264.03Z" fill="#333333"/>
</svg>
