<svg width="24" height="24" viewBox="0 0 24 24" fill="none" xmlns="http://www.w3.org/2000/svg">
<path fill-rule="evenodd" clip-rule="evenodd" d="M7.05273 0.0695449C8.33236 0.0126445 8.74036 0 12 0C15.2596 0 15.6676 0.0136982 16.9462 0.0695449C18.2247 0.125392 19.0975 0.322436 19.8611 0.607991C20.6607 0.899869 21.3862 1.35613 21.9862 1.9462C22.5971 2.52469 23.0684 3.22436 23.3695 3.99778C23.6662 4.73538 23.8691 5.57835 23.928 6.81119C23.9869 8.0493 24 8.44339 24 11.5908C24 14.7393 23.9858 15.1334 23.928 16.3694C23.8702 17.6022 23.6662 18.4452 23.3695 19.1828C23.0684 19.9563 22.5963 20.6572 21.9862 21.2365C21.3862 21.8266 20.6607 22.2818 19.8611 22.5726C19.0975 22.8592 18.2247 23.0552 16.9484 23.1121C15.6676 23.169 15.2596 23.1816 12 23.1816C8.74036 23.1816 8.33236 23.1679 7.05273 23.1121C5.77636 23.0562 4.90364 22.8592 4.14 22.5726C3.33919 22.2817 2.61362 21.8258 2.01382 21.2365C1.40332 20.6577 0.930889 19.9572 0.629455 19.1839C0.333818 18.4463 0.130909 17.6033 0.072 16.3705C0.0130909 15.1323 0 14.7383 0 11.5908C0 8.44233 0.0141818 8.04824 0.072 6.81329C0.129818 5.57835 0.333818 4.73538 0.629455 3.99778C0.931334 3.22444 1.40413 2.52397 2.01491 1.94515C2.61386 1.3556 3.3387 0.899283 4.13891 0.607991C4.90255 0.322436 5.77527 0.126445 7.05164 0.0695449H7.05273ZM16.8491 2.15589C15.5836 2.10005 15.204 2.08846 12 2.08846C8.796 2.08846 8.41636 2.10005 7.15091 2.15589C5.98036 2.20752 5.34545 2.39614 4.92218 2.55525C4.36255 2.76599 3.96218 3.01572 3.54218 3.4214C3.14405 3.79552 2.83765 4.25097 2.64545 4.75434C2.48073 5.16318 2.28545 5.77644 2.232 6.90707C2.17418 8.12938 2.16218 8.49607 2.16218 11.5908C2.16218 14.6856 2.17418 15.0523 2.232 16.2746C2.28545 17.4052 2.48073 18.0185 2.64545 18.4273C2.83745 18.9299 3.144 19.3862 3.54218 19.7602C3.92945 20.1448 4.40182 20.4409 4.92218 20.6264C5.34545 20.7855 5.98036 20.9741 7.15091 21.0257C8.41636 21.0816 8.79491 21.0932 12 21.0932C15.2051 21.0932 15.5836 21.0816 16.8491 21.0257C18.0196 20.9741 18.6545 20.7855 19.0778 20.6264C19.6375 20.4156 20.0378 20.1659 20.4578 19.7602C20.856 19.3862 21.1625 18.9299 21.3545 18.4273C21.5193 18.0185 21.7145 17.4052 21.768 16.2746C21.8258 15.0523 21.8378 14.6856 21.8378 11.5908C21.8378 8.49607 21.8258 8.12938 21.768 6.90707C21.7145 5.77644 21.5193 5.16318 21.3545 4.75434C21.1364 4.21379 20.8778 3.82708 20.4578 3.4214C20.0705 3.03687 19.5989 2.74092 19.0778 2.55525C18.6545 2.39614 18.0196 2.20752 16.8491 2.15589ZM10.4673 15.164C11.3233 15.5081 12.2764 15.5546 13.1639 15.2954C14.0514 15.0362 14.8182 14.4874 15.3334 13.7428C15.8485 12.9981 16.0801 12.1038 15.9884 11.2126C15.8968 10.3215 15.4876 9.48864 14.8309 8.85644C14.4123 8.45232 13.906 8.14288 13.3487 7.9504C12.7914 7.75793 12.1968 7.6872 11.6078 7.74332C11.0188 7.79943 10.45 7.98099 9.94233 8.27493C9.43468 8.56887 9.00081 8.96786 8.67197 9.4432C8.34312 9.91854 8.12748 10.4584 8.04056 11.0239C7.95365 11.5894 7.99762 12.1665 8.16932 12.7136C8.34101 13.2607 8.63616 13.7642 9.03351 14.1879C9.43087 14.6116 9.92054 14.945 10.4673 15.164ZM7.63855 7.37808C8.2113 6.82486 8.89126 6.38602 9.6396 6.08662C10.3879 5.78721 11.19 5.63311 12 5.63311C12.81 5.63311 13.6121 5.78721 14.3604 6.08661C15.1087 6.38602 15.7887 6.82486 16.3615 7.37808C16.9342 7.93131 17.3885 8.58808 17.6985 9.3109C18.0085 10.0337 18.168 10.8084 18.168 11.5908C18.168 12.3732 18.0085 13.1479 17.6985 13.8707C17.3885 14.5936 16.9342 15.2503 16.3615 15.8036C15.2047 16.9208 13.6359 17.5485 12 17.5485C10.3641 17.5485 8.79528 16.9208 7.63855 15.8036C6.48182 14.6863 5.83197 13.1709 5.83197 11.5908C5.83197 10.0107 6.48182 8.49537 7.63855 7.37808ZM19.536 6.52036C19.6779 6.39104 19.7916 6.23553 19.8701 6.06303C19.9487 5.89053 19.9907 5.70455 19.9935 5.5161C19.9964 5.32766 19.9601 5.14058 19.8867 4.96594C19.8134 4.7913 19.7045 4.63265 19.5665 4.49939C19.4285 4.36612 19.2643 4.26095 19.0835 4.1901C18.9027 4.11925 18.709 4.08416 18.5139 4.08691C18.3188 4.08965 18.1263 4.13018 17.9477 4.20609C17.7691 4.28201 17.6081 4.39176 17.4742 4.52885C17.2138 4.79547 17.0712 5.14961 17.0768 5.5161C17.0823 5.88259 17.2355 6.23257 17.5038 6.49175C17.7721 6.75092 18.1345 6.89889 18.5139 6.90423C18.8933 6.90957 19.26 6.77187 19.536 6.52036Z" fill="#00C5B4"/>
</svg>
